<svg width="24" height="24" viewBox="0 0 24 24" fill="none" xmlns="http://www.w3.org/2000/svg">
<g clip-path="url(#clip0_2039_1046)">
<g clip-path="url(#clip1_2039_1046)">
<path fill-rule="evenodd" clip-rule="evenodd" d="M10.41 20.6486C10.41 22.4957 8.90571 24 7.05857 24H3.35143C1.50429 24 0 22.4957 0 20.6486V16.9414C0 15.0943 1.50429 13.59 3.35143 13.59H7.05857C8.90571 13.59 10.41 15.0943 10.41 16.9414V20.6486ZM1.76571 20.6486C1.76571 21.5229 2.47714 22.2386 3.35571 22.2386H7.06286C7.93714 22.2386 8.65286 21.5271 8.65286 20.6486V16.9414C8.65286 16.0671 7.94143 15.3514 7.06286 15.3514H3.35143C2.47714 15.3514 1.76143 16.0629 1.76143 16.9414V20.6486H1.76571Z" fill="#1A1C1D"/>
<path fill-rule="evenodd" clip-rule="evenodd" d="M23.9998 20.6486C23.9998 22.4957 22.4956 24 20.6484 24H16.9413C15.0941 24 13.5898 22.4957 13.5898 20.6486V16.9414C13.5898 15.0943 15.0941 13.59 16.9413 13.59H20.6484C22.4956 13.59 23.9998 15.0943 23.9998 16.9414V20.6486ZM15.3513 20.6486C15.3513 21.5229 16.0627 22.2386 16.9413 22.2386H20.6484C21.5227 22.2386 22.2384 21.5271 22.2384 20.6486V16.9414C22.2384 16.0671 21.527 15.3514 20.6484 15.3514H16.9413C16.067 15.3514 15.3513 16.0629 15.3513 16.9414V20.6486Z" fill="#1A1C1D"/>
<path fill-rule="evenodd" clip-rule="evenodd" d="M10.41 7.05857C10.41 8.90571 8.90571 10.41 7.05857 10.41H3.35143C1.50429 10.41 0 8.90571 0 7.05857V3.35571C0 1.50429 1.50429 0 3.35143 0H7.05857C8.90571 0 10.41 1.50429 10.41 3.35571V7.06286V7.05857ZM1.76571 7.05857C1.76571 7.93286 2.47714 8.64857 3.35571 8.64857H7.06286C7.93714 8.64857 8.65286 7.93714 8.65286 7.05857V3.35571C8.65286 2.48143 7.94143 1.76571 7.06286 1.76571H3.35143C2.47714 1.76571 1.76143 2.47714 1.76143 3.35571V7.06286L1.76571 7.05857Z" fill="#1A1C1D"/>
<path fill-rule="evenodd" clip-rule="evenodd" d="M18.797 0C15.9256 0 13.5898 2.33571 13.5898 5.20714C13.5898 8.07857 15.9256 10.4143 18.797 10.4143C21.6684 10.4143 23.9998 8.07857 23.9998 5.20714C23.9998 2.33571 21.6641 0 18.797 0ZM18.797 8.64857C16.8984 8.64857 15.3556 7.10571 15.3556 5.20714C15.3556 3.30857 16.8984 1.76571 18.797 1.76571C20.6956 1.76571 22.2384 3.30857 22.2384 5.20714C22.2384 7.10571 20.6913 8.64857 18.797 8.64857Z" fill="#1A1C1D"/>
<path fill-rule="evenodd" clip-rule="evenodd" d="M22.2383 5.20714C22.2383 7.10572 20.6912 8.64857 18.7969 8.64857C16.9026 8.64857 15.3555 7.10572 15.3555 5.20714C15.3555 3.30857 16.8983 1.76572 18.7969 1.76572C20.6955 1.76572 22.2383 3.30857 22.2383 5.20714Z" fill="#57CC99"/>
</g>
</g>
<defs>
<clipPath id="clip0_2039_1046">
<rect width="24" height="24" fill="white"/>
</clipPath>
<clipPath id="clip1_2039_1046">
<rect width="24" height="24" fill="white"/>
</clipPath>
</defs>
</svg>
