<svg xmlns="http://www.w3.org/2000/svg" width="22" height="22" fill="none" viewBox="0 0 22 22">
    <path fill="#fff" d="M21.61 5.067c-.3-2.879-2.794-4.942-5.633-4.942H6.016C3.159.125.662 2.213.376 5.107c-.334 3.375-.334 6.221 0 9.608.228 2.302 1.855 4.097 3.95 4.735.011 0 .015.014.011.022l-.54 1.42a.72.72 0 0 0 .174.777.72.72 0 0 0 .78.152L9.872 19.7h6.097c2.842 0 5.336-2.07 5.637-4.949.355-3.426.359-6.294.003-9.688zm-6.68 5.7h-3.187s-.018.007-.018.018v3.186c0 .37-.25.722-.616.776a.728.728 0 0 1-.834-.718v-3.245s-.007-.018-.018-.018H7.07c-.37 0-.722-.25-.776-.616a.728.728 0 0 1 .718-.834h3.244s.018-.007.018-.018V6.111c0-.37.25-.722.616-.776a.728.728 0 0 1 .834.718v3.245s.007.018.018.018h3.245c.434 0 .783.388.717.834-.054.366-.406.616-.775.616"/>
</svg>
