<svg width="54" height="54" viewBox="0 0 54 54" fill="none" xmlns="http://www.w3.org/2000/svg">
<g clip-path="url(#clip0_2556_8169)">
<path d="M16.36 45.65C14.23 45.65 12.5 43.92 12.5 41.8V16.43C12.5 14.31 14.23 12.58 16.36 12.58H19.19L19.21 12.31C19.31 11.44 20.04 10.78 20.91 10.78H23.54L23.61 10.58C24.08 9.33 25.28 8.5 26.6 8.5C27.92 8.5 29.11 9.34 29.58 10.58L29.66 10.79H32.28C33.15 10.79 33.88 11.44 33.98 12.31L34.01 12.59H37.11C39.14 12.59 40.84 14.16 40.97 16.17V42.05C40.84 44.06 39.14 45.64 37.11 45.64H16.36V45.65ZM16.36 14.31C15.18 14.31 14.22 15.26 14.22 16.43V41.8C14.22 42.97 15.18 43.92 16.36 43.92H37.11C38.29 43.92 39.25 42.97 39.25 41.8V16.43C39.25 15.26 38.29 14.31 37.11 14.31H33.99V15.53C33.99 16.48 33.23 17.26 32.28 17.26H20.92C19.97 17.26 19.2 16.49 19.2 15.53V14.3H16.37L16.36 14.31ZM20.92 15.54H32.28V12.5H28.92C28.45 12.5 28.07 12.13 28.06 11.66C28.04 10.87 27.39 10.22 26.61 10.22C25.83 10.22 25.17 10.87 25.15 11.66C25.15 12.13 24.75 12.51 24.29 12.51H20.94V15.54H20.92Z" fill="#1A1C1D"/>
<path d="M17.9498 35.47C17.4698 35.47 17.0898 35.08 17.0898 34.61C17.0898 34.14 17.4798 33.75 17.9498 33.75H35.5398C36.0198 33.75 36.3998 34.14 36.3998 34.61C36.3998 35.08 36.0098 35.47 35.5398 35.47H17.9498Z" fill="#1A1C1D"/>
<path d="M17.9498 40.17C17.4698 40.17 17.0898 39.7799 17.0898 39.3099C17.0898 38.8399 17.4798 38.45 17.9498 38.45H35.5398C36.0198 38.45 36.3998 38.8399 36.3998 39.3099C36.3998 39.7799 36.0098 40.17 35.5398 40.17H17.9498Z" fill="#1A1C1D"/>
<path d="M24.9802 30.22H24.9602C24.7402 30.22 24.5302 30.13 24.3702 29.97L20.9702 26.53C20.8102 26.37 20.7202 26.15 20.7202 25.92C20.7202 25.69 20.8102 25.47 20.9802 25.31C21.1402 25.15 21.3602 25.06 21.5902 25.06C21.8202 25.06 22.0402 25.15 22.2002 25.32L25.0002 28.15L31.2802 21.85C31.4402 21.69 31.6602 21.6 31.8902 21.6C32.1202 21.6 32.3402 21.69 32.5002 21.85C32.6602 22.01 32.7502 22.23 32.7502 22.46C32.7502 22.69 32.6602 22.91 32.5002 23.07L25.6002 29.98C25.4402 30.14 25.2202 30.23 24.9902 30.23H24.9802V30.22Z" fill="#1A1C1D"/>
</g>
<defs>
<clipPath id="clip0_2556_8169">
<rect width="28.47" height="37.15" fill="white" transform="translate(12.5 8.5)"/>
</clipPath>
</defs>
</svg>
