<svg width="54" height="54" viewBox="0 0 54 54" fill="none" xmlns="http://www.w3.org/2000/svg">
<path d="M18.4798 14.37C17.9898 14.37 17.5898 13.97 17.5898 13.48V11.69C17.5898 11.2 17.9898 10.8 18.4798 10.8C18.9698 10.8 19.3698 11.2 19.3698 11.69V13.48C19.3698 13.97 18.9698 14.37 18.4798 14.37Z" fill="#29638A"/>
<path d="M18.4798 23.34C17.9898 23.34 17.5898 22.94 17.5898 22.45V21.11C17.5898 20.62 17.9898 20.22 18.4798 20.22C18.9698 20.22 19.3698 20.62 19.3698 21.11V22.45C19.3698 22.94 18.9698 23.34 18.4798 23.34Z" fill="#29638A"/>
<path d="M18.1502 21.69C16.9302 21.69 15.9302 20.69 15.9302 19.47C15.9302 18.98 16.3302 18.58 16.8202 18.58C17.3102 18.58 17.7102 18.98 17.7102 19.47C17.7102 19.71 17.9102 19.91 18.1502 19.91H19.2602C19.5002 19.91 19.7002 19.71 19.7002 19.47V18.36C19.7002 18.12 19.5002 17.92 19.2602 17.92H18.1502C16.9302 17.92 15.9302 16.92 15.9302 15.7V14.81C15.9302 13.59 16.9302 12.59 18.1502 12.59H19.2602C20.4802 12.59 21.4802 13.59 21.4802 14.81C21.4802 15.3 21.0802 15.7 20.5902 15.7C20.1002 15.7 19.7002 15.3 19.7002 14.81C19.7002 14.57 19.5002 14.37 19.2602 14.37H18.1502C17.9102 14.37 17.7102 14.57 17.7102 14.81V15.7C17.7102 15.94 17.9102 16.14 18.1502 16.14H19.2602C20.4802 16.14 21.4802 17.14 21.4802 18.36V19.47C21.4802 20.69 20.4802 21.69 19.2602 21.69H18.1502Z" fill="#29638A"/>
<path d="M18.7098 25.77C13.8098 25.77 9.81982 21.79 9.81982 16.89C9.81982 11.99 13.8098 8 18.7098 8C23.6098 8 27.5998 11.99 27.5998 16.89C27.5998 21.79 23.6098 25.78 18.7098 25.78V25.77ZM18.7098 9.78C14.7898 9.78 11.5998 12.97 11.5998 16.89C11.5998 20.81 14.7898 24 18.7098 24C22.6298 24 25.8198 20.81 25.8198 16.89C25.8198 12.97 22.6298 9.78 18.7098 9.78Z" fill="#29638A"/>
<path d="M18.71 45.15C18.4 45.15 18.11 44.99 17.95 44.72L14.22 38.59C14.05 38.32 14.05 37.97 14.2 37.69C14.36 37.41 14.66 37.24 14.97 37.24H15.85L15.8 28.72C15.8 28.23 16.2 27.83 16.69 27.83H20.28C20.77 27.83 21.17 28.23 21.17 28.72V37.29L22.45 37.24C22.77 37.24 23.07 37.41 23.22 37.69C23.38 37.97 23.37 38.31 23.2 38.59L19.46 44.72C19.3 44.98 19.01 45.15 18.7 45.15H18.71ZM18.75 42.62L20.91 38.95L20.28 39.03C19.79 39.03 19.39 38.63 19.39 38.14V29.57L17.53 29.62L17.58 38.14C17.58 38.63 17.18 39.03 16.69 39.03H16.55L18.75 42.63V42.62Z" fill="#29638A"/>
<path d="M35.5101 42.16C35.0201 42.16 34.6201 41.76 34.6201 41.27V39.48C34.6201 38.99 35.0201 38.59 35.5101 38.59C36.0001 38.59 36.4001 38.99 36.4001 39.48V41.27C36.4001 41.76 36.0001 42.16 35.5101 42.16Z" fill="#29638A"/>
<path d="M35.0702 32.75C34.5802 32.75 34.1802 32.35 34.1802 31.86V30.52C34.1802 30.03 34.5802 29.63 35.0702 29.63C35.5602 29.63 35.9602 30.03 35.9602 30.52V31.86C35.9602 32.35 35.5602 32.75 35.0702 32.75Z" fill="#29638A"/>
<path d="M34.74 40.38C33.52 40.38 32.52 39.38 32.52 38.16C32.52 37.67 32.92 37.27 33.41 37.27C33.9 37.27 34.3 37.67 34.3 38.16C34.3 38.4 34.5 38.6 34.74 38.6H35.85C36.09 38.6 36.29 38.4 36.29 38.16V37.27C36.29 37.03 36.09 36.83 35.85 36.83H34.74C33.52 36.83 32.52 35.83 32.52 34.61V33.5C32.52 32.28 33.52 31.28 34.74 31.28H35.85C37.07 31.28 38.07 32.28 38.07 33.5C38.07 33.99 37.67 34.39 37.18 34.39C36.69 34.39 36.29 33.99 36.29 33.5C36.29 33.26 36.09 33.06 35.85 33.06H34.74C34.5 33.06 34.3 33.26 34.3 33.5V34.61C34.3 34.85 34.5 35.05 34.74 35.05H35.85C37.07 35.05 38.07 36.05 38.07 37.27V38.16C38.07 39.38 37.07 40.38 35.85 40.38H34.74Z" fill="#29638A"/>
<path d="M35.2899 44.9699C30.3899 44.9699 26.3999 40.9799 26.3999 36.0799C26.3999 31.1799 30.3899 27.1899 35.2899 27.1899C40.1899 27.1899 44.1799 31.1799 44.1799 36.0799C44.1799 40.9799 40.1899 44.9699 35.2899 44.9699ZM35.2899 28.9699C31.3699 28.9699 28.1799 32.1599 28.1799 36.0799C28.1799 39.9999 31.3699 43.1899 35.2899 43.1899C39.2099 43.1899 42.3999 39.9999 42.3999 36.0799C42.3999 32.1599 39.2099 28.9699 35.2899 28.9699Z" fill="#29638A"/>
<path d="M33.2698 25.58C32.7798 25.58 32.3798 25.18 32.3798 24.69V16.12L31.5498 16.17C31.2298 16.17 30.9298 16 30.7698 15.72C30.6098 15.44 30.6198 15.1 30.7898 14.82L34.5298 8.69003C34.6898 8.43003 34.9698 8.28003 35.2898 8.28003C35.6098 8.28003 35.8898 8.43003 36.0498 8.69003L39.7398 14.75C39.8498 14.85 39.9198 15.07 39.9198 15.28C39.9198 15.77 39.5198 16.17 39.0298 16.17H37.6898L37.7398 24.69C37.7398 25.18 37.3398 25.58 36.8498 25.58H33.2598H33.2698ZM33.2698 14.39C33.7598 14.39 34.1598 14.79 34.1598 15.28V23.85L36.0198 23.8L35.9698 15.28C35.9698 14.79 36.3698 14.39 36.8598 14.39H37.5298L35.2898 10.86L33.0898 14.47L33.2698 14.39Z" fill="#29638A"/>
</svg>
