<svg width="54" height="54" viewBox="0 0 54 54" fill="none" xmlns="http://www.w3.org/2000/svg">
<g clip-path="url(#clip0_2907_8886)">
<path d="M38.75 19.0001C38.44 19.0001 38.18 18.8401 38.03 18.5701C37.8 18.1601 37.93 17.6901 38.33 17.4301C38.63 17.2501 38.93 17.0701 39.23 16.8901L43.57 14.3501C43.81 14.2101 44.04 14.1201 44.26 14.1001L44.56 14.1501L44.93 14.5101C45.19 15.1101 45.07 15.4601 44.51 15.8001L39.38 18.7701C39.3 18.8201 39.21 18.8701 39.13 18.9101C38.99 18.9601 38.88 18.9901 38.75 18.9901V19.0001Z" fill="#29638A"/>
<path d="M13.31 41.49C12.83 41.47 12.55 41.38 12.37 41.21C12.2 41.03 12.12 40.74 12.12 40.3V29.29C12.12 29 12.06 28.89 11.86 28.78C11.38 28.55 11.04 28.12 10.86 27.52C10.81 27.36 10.78 27.33 10.62 27.3C9.04001 27.07 8.02001 25.9 8.01001 24.32V23.59C8.06001 22.12 9.10001 20.97 10.55 20.79C10.71 20.77 10.77 20.74 10.83 20.56C11.13 19.56 11.97 18.95 13.02 18.94H13.38C14.52 18.94 15.67 18.93 16.81 18.93H18.54C18.82 18.93 19.07 18.88 19.35 18.79L21.24 18.03C24.96 16.54 28.68 15.05 32.4 13.58C32.68 13.47 32.85 13.33 32.99 13.07C33.36 12.4 34.01 12.01 34.77 12.01C35.28 12.01 35.79 12.17 36.32 12.47C36.77 12.73 37.08 13.48 37.09 14.27L37.13 33.77C37.13 34.73 36.68 35.45 35.83 35.84C35.53 35.98 35.22 36.06 34.93 36.06C34.45 36.06 33.97 35.88 33.52 35.53C33.29 35.36 33.1 35.12 32.97 34.83C32.91 34.67 32.79 34.58 32.52 34.47L19.03 29.14C18.86 29.1 18.8 29.09 18.74 29.09C18.67 29.09 18.64 29.17 18.63 29.41L18.65 40.26C18.65 41.15 18.37 41.44 17.5 41.44C17.5 41.44 15.19 41.45 13.71 41.45H13.3V41.49H13.31ZM13.84 29.16H13.83L13.81 29.3V31.32L13.83 39.72L14.4 39.74H16.94V29.26L16.8 29.12H13.94L13.86 29.16H13.84ZM34.94 13.66C34.63 13.67 34.43 13.86 34.41 14.15L34.45 33.8C34.45 34.21 34.7 34.28 34.81 34.32H34.92C35.09 34.32 35.22 34.27 35.38 34.02C35.44 33.95 35.44 33.78 35.44 33.62L35.42 16.08V14.13C35.41 13.84 35.22 13.65 34.94 13.65H34.95L34.94 13.66ZM32.64 15.33C32.64 15.33 32.62 15.33 28.24 17.07L20.3 20.23C20.04 20.34 19.98 20.42 20 20.68C20.02 21.04 20.01 21.4 20 21.76V27.67C20.17 27.77 32.5 32.63 32.64 32.69C32.71 32.62 32.7 26.7 32.7 21.8V15.32H32.64V15.33ZM18.25 27.23C18.29 25.11 18.29 22.93 18.3 20.77L15.89 20.65L13.09 20.67C12.64 20.67 12.44 20.87 12.43 21.32C12.42 22.91 12.43 24.5 12.43 26.07V26.79C12.43 27.05 12.53 27.24 12.72 27.31C12.85 27.39 13 27.43 13.19 27.43H18.16M10.69 22.5C10.62 22.5 10.55 22.55 10.46 22.6C10.22 22.73 10.14 22.79 10.09 22.88C9.63001 23.35 9.60001 24.68 10.02 25.21C10.1 25.32 10.21 25.44 10.36 25.51C10.52 25.61 10.64 25.65 10.7 25.65C10.75 25.53 10.76 25.46 10.76 25.31V24.18C10.76 23.75 10.76 23.31 10.75 22.88V22.69L10.7 22.51L10.69 22.5Z" fill="#29638A"/>
<path d="M44.28 33.81C44.11 33.81 43.92 33.76 43.73 33.65C42.56 32.99 41.4 32.31 40.23 31.64L38.45 30.62C38.2 30.48 38.02 30.25 37.96 30.01C37.91 29.79 37.95 29.56 38.07 29.36C38.23 29.12 38.48 28.98 38.76 28.98C38.96 28.98 39.16 29.04 39.36 29.15L44.58 32.15C45.1 32.45 45.29 32.91 45.06 33.35C44.92 33.64 44.64 33.81 44.31 33.81H44.29H44.28Z" fill="#29638A"/>
<path d="M38.81 24.8299C38.27 24.7799 37.93 24.4699 37.95 23.9999C37.95 23.7599 38.03 23.5399 38.19 23.3999C38.35 23.2399 38.57 23.1599 38.84 23.1599L44.11 23.1399C44.35 23.1399 44.54 23.1499 44.72 23.2699C45.04 23.4899 45.18 23.7999 45.1 24.1599C45.02 24.5699 44.72 24.8199 44.28 24.8299H38.8H38.81Z" fill="#29638A"/>
</g>
<defs>
<clipPath id="clip0_2907_8886">
<rect width="37.15" height="29.49" fill="white" transform="translate(8 12)"/>
</clipPath>
</defs>
</svg>
