<svg width="54" height="54" viewBox="0 0 54 54" fill="none" xmlns="http://www.w3.org/2000/svg">
<g clip-path="url(#clip0_2907_8833)">
<path d="M12.41 45.65C10.25 45.65 8.5 43.89 8.5 41.74V16.08C8.5 13.92 10.26 12.17 12.41 12.17H14.05L14 11.19C14 9.70998 15.21 8.49998 16.69 8.49998C18.17 8.49998 19.38 9.70998 19.38 11.19V12.21L24.43 12.16L24.38 11.18C24.38 9.69998 25.59 8.48998 27.07 8.48998C28.55 8.48998 29.76 9.69998 29.76 11.18V12.2L34.81 12.15L34.76 11.17C34.76 9.68998 35.97 8.47998 37.45 8.47998C38.93 8.47998 40.14 9.68998 40.14 11.17V12.19L41.73 12.14C43.89 12.14 45.64 13.9 45.64 16.05V41.71C45.64 43.87 43.88 45.62 41.73 45.62H12.41V45.65ZM10.21 41.74C10.21 42.95 11.2 43.94 12.41 43.94H41.74C42.95 43.94 43.94 42.95 43.94 41.74V16.08C43.94 14.87 42.95 13.88 41.74 13.88H40.1L40.15 14.86C40.15 16.34 38.94 17.55 37.46 17.55C35.98 17.55 34.77 16.34 34.77 14.86V13.84L29.72 13.89L29.77 14.87C29.77 16.35 28.56 17.56 27.08 17.56C25.6 17.56 24.39 16.35 24.39 14.87V13.85L19.34 13.9L19.39 14.88C19.39 16.36 18.18 17.57 16.7 17.57C15.22 17.57 14.01 16.36 14.01 14.88V13.86L12.42 13.91C11.21 13.91 10.22 14.9 10.22 16.11V19.58L42.35 19.53C42.82 19.53 43.21 19.91 43.21 20.39C43.21 20.87 42.83 21.25 42.35 21.25H10.22V41.78L10.21 41.74ZM37.46 10.22C36.92 10.22 36.48 10.66 36.48 11.2V14.87C36.48 15.41 36.92 15.85 37.46 15.85C38 15.85 38.44 15.41 38.44 14.87V11.2C38.44 10.66 38 10.22 37.46 10.22ZM27.07 10.22C26.53 10.22 26.1 10.66 26.1 11.2V14.87C26.1 15.41 26.54 15.85 27.07 15.85C27.6 15.85 28.05 15.41 28.05 14.87V11.2C28.05 10.66 27.61 10.22 27.07 10.22ZM16.68 10.22C16.14 10.22 15.7 10.66 15.7 11.2V14.87C15.7 15.41 16.14 15.85 16.68 15.85C17.22 15.85 17.66 15.41 17.66 14.87V11.2C17.66 10.66 17.22 10.22 16.68 10.22Z" fill="#29638A"/>
<path d="M25.5 39.54C24.97 39.54 24.49 39.28 24.2 38.84L23.83 38.27L23.19 38.67C22.95 38.8 22.67 38.87 22.39 38.87C21.94 38.87 21.52 38.7 21.2 38.38C20.68 37.86 20.56 37.04 20.92 36.4L21.33 35.66L20.81 35.38C20.19 34.98 19.93 34.21 20.18 33.51C20.4 32.9 20.98 32.49 21.62 32.49C21.68 32.49 21.75 32.49 21.81 32.5L24.07 32.57L25.02 31.53L21.14 28.98C20.7 28.71 20.48 28.16 20.61 27.65C20.74 27.08 21.25 26.66 21.84 26.63C21.84 26.63 21.96 26.63 21.98 26.63L28.56 27.49L30.18 25.59C30.55 25.21 31.07 24.99 31.59 24.99H32.96C33.86 25 34.61 25.74 34.63 26.65V27.99C34.64 28.51 34.44 29.02 34.07 29.39L32.11 31.07L32.99 37.57C32.99 37.62 32.99 37.68 32.99 37.73C32.95 38.33 32.53 38.82 31.95 38.96C31.86 38.98 31.76 38.99 31.66 38.99C31.22 38.99 30.81 38.75 30.59 38.36L28 34.55L27 35.55L27.06 37.89C27.11 38.58 26.68 39.23 26.01 39.45C25.84 39.51 25.66 39.54 25.48 39.54H25.5ZM24.15 36.32C24.45 36.32 24.72 36.47 24.87 36.72L25.45 37.62L25.31 35.19C25.31 34.95 25.41 34.71 25.59 34.54L27.62 32.66C27.78 32.51 27.98 32.43 28.2 32.43H28.3C28.55 32.46 28.77 32.6 28.91 32.81L31.18 36.15L30.39 30.9C30.39 30.9 30.37 30.78 30.37 30.69C30.37 30.45 30.48 30.22 30.66 30.06L32.93 28.13C32.93 28.13 32.94 28.07 32.93 28.02V26.67L31.64 26.71C31.56 26.71 31.5 26.73 31.45 26.78L29.56 28.97C29.4 29.16 29.16 29.27 28.91 29.27C28.84 29.27 28.77 29.27 28.7 29.24L23.43 28.56L26.8 30.71C27.01 30.85 27.14 31.08 27.17 31.32C27.2 31.57 27.12 31.82 26.95 32L25.07 34.02C24.92 34.19 24.69 34.29 24.46 34.29L22.04 34.21L22.94 34.68C23.32 34.93 23.44 35.43 23.22 35.82L22.44 37.21L23.75 36.4C23.88 36.33 24.02 36.3 24.16 36.3L24.15 36.32Z" fill="#29638A"/>
</g>
<defs>
<clipPath id="clip0_2907_8833">
<rect width="37.15" height="37.15" fill="white" transform="translate(8.5 8.5)"/>
</clipPath>
</defs>
</svg>
