<svg width="54" height="54" viewBox="0 0 54 54" fill="none" xmlns="http://www.w3.org/2000/svg">
<g clip-path="url(#clip0_2595_8186)">
<path d="M13.53 45.65C11.64 45.6 10.11 44.44 9.64 42.69C9.55 42.35 9.5 41.97 9.5 41.47V17.87C9.5 15.36 11.2 13.67 13.72 13.66H17.19C17.39 13.66 17.42 13.65 17.47 13.48C17.76 12.5 18.47 11.9 19.53 11.75C19.7 11.72 19.72 11.7 19.76 11.52C20.1 9.81001 21.54 8.58001 23.26 8.51001H23.38C25.05 8.51001 26.51 9.67001 26.93 11.33C27.01 11.66 27.08 11.76 27.4 11.81C28.33 11.95 28.98 12.53 29.25 13.45C29.31 13.66 29.37 13.68 29.57 13.68H31.71C32.1 13.68 32.47 13.68 32.85 13.66H33.11C34.25 13.66 35.33 14.1 36.08 14.86C36.87 15.65 37.28 16.75 37.26 18.06C37.24 20.86 37.25 23.65 37.26 26.46V29.88C37.26 30.19 37.39 30.35 37.69 30.4C41 30.96 43.59 33.68 43.99 37.02C44.24 39.1 43.68 41.14 42.39 42.76C41.09 44.39 39.2 45.4 37.08 45.62C36.69 45.65 36.32 45.68 35.93 45.68H13.53V45.65ZM14.85 15.4C14.38 15.4 13.89 15.4 13.42 15.41C12.17 15.44 11.22 16.4 11.22 17.63V41.66C11.22 42.2 11.4 42.68 11.75 43.1C12.22 43.65 12.87 43.91 13.8 43.91H31.64C29.54 42.26 28.55 40.04 28.68 37.38C28.68 37.19 28.7 37.02 28.68 36.99C28.65 37.02 15.99 37.02 15.84 37.02C15.34 36.96 15.04 36.69 15 36.24C14.96 35.85 15.17 35.53 15.56 35.37C15.73 35.3 15.89 35.3 16.02 35.3H28.87C29.09 35.3 29.17 35.27 29.25 35.07C30.39 32.43 32.41 30.85 35.25 30.36C35.46 30.32 35.47 30.29 35.47 30.14V24.69C35.47 22.3 35.47 19.92 35.46 17.52C35.46 16.52 34.7 15.64 33.73 15.5C33.22 15.43 32.66 15.39 31.96 15.39C31.6 15.39 31.26 15.39 30.91 15.4H29.83L29.37 15.41C29.22 17.62 27.76 18.99 25.64 19.01H21.13C18.98 19.01 17.52 17.68 17.32 15.54C17.3133 15.4467 17.2767 15.4 17.21 15.4H14.85ZM36.29 31.99C33.07 32.06 30.44 34.71 30.43 37.89C30.43 39.5 31.07 41.06 32.19 42.17C33.31 43.29 34.77 43.88 36.4 43.88C39.71 43.88 42.31 41.28 42.32 37.96C42.32 36.37 41.71 34.88 40.61 33.77C39.48 32.64 37.98 32.01 36.4 32.01H36.37L36.29 31.99ZM19.98 13.47C19.29 13.49 19.06 13.74 19.06 14.5V15.35C19.12 16.53 19.84 17.24 21.01 17.24H25.76C26.89 17.24 27.63 16.5 27.65 15.35V14.47C27.65 13.71 27.42 13.49 26.65 13.49H19.99L19.98 13.47ZM23.28 10.25C22.44 10.32 21.68 10.92 21.49 11.68C21.47 11.77 21.47 11.8 21.47 11.8L22.28 11.74C22.28 11.74 25.29 11.74 25.31 11.74C25.03 10.89 24.19 10.25 23.36 10.25H23.27H23.28Z" fill="#1A1C1D"/>
<path d="M16.2602 24.57C16.0702 24.57 15.8602 24.57 15.6402 24.51C15.2402 24.41 14.9902 24.1 14.9902 23.69C14.9902 23.26 15.2502 22.94 15.6702 22.85C15.8102 22.81 15.9702 22.8 16.2002 22.8H30.4702C30.6902 22.8 30.8802 22.82 31.0802 22.86C31.4602 22.96 31.6902 23.25 31.7002 23.65C31.7102 24.06 31.5102 24.36 31.1202 24.5C30.9602 24.55 30.7802 24.58 30.5502 24.58H16.2602V24.57Z" fill="#1A1C1D"/>
<path d="M16.2602 30.7099C16.0702 30.7099 15.8602 30.7099 15.6402 30.6499C15.2402 30.5499 14.9902 30.2399 14.9902 29.8299C14.9902 29.3999 15.2502 29.0799 15.6702 28.9899C15.8102 28.9599 15.9702 28.9399 16.2002 28.9399H30.4702C30.6902 28.9399 30.8802 28.9599 31.0802 28.9999C31.4602 29.0999 31.6902 29.3799 31.7002 29.7899C31.7102 30.1999 31.5102 30.4999 31.1202 30.6399C30.9602 30.6899 30.7802 30.7199 30.5502 30.7199H16.2602V30.7099Z" fill="#1A1C1D"/>
<path d="M35.7604 40.15C35.5204 40.13 35.3204 40.03 35.0604 39.81C34.6604 39.47 34.2804 39.13 33.8904 38.79L33.4904 38.43C33.1504 38.12 33.0604 37.77 33.2204 37.4C33.3404 37.1 33.6104 36.91 33.9704 36.86C34.3304 36.86 34.5404 37.02 34.7104 37.17L35.0804 37.5C35.3204 37.7 35.4904 37.86 35.6404 38.02C35.6704 38.05 35.7404 38.11 35.7604 38.11C35.7604 38.11 35.7904 38.11 35.8804 38.02C36.3904 37.55 36.9204 37.08 37.4404 36.63L38.0104 36.12L38.2004 35.97C38.4004 35.83 38.5804 35.77 38.7704 35.77C38.9904 35.77 39.2004 35.87 39.3804 36.05C39.7304 36.4 39.7304 36.89 39.3604 37.26C39.1904 37.43 39.0204 37.58 38.8404 37.74L37.6904 38.76C37.3004 39.12 36.9004 39.46 36.5004 39.81C36.2404 40.05 36.0204 40.15 35.7904 40.15H35.7704H35.7604Z" fill="#1A1C1D"/>
</g>
<defs>
<clipPath id="clip0_2595_8186">
<rect width="34.55" height="37.15" fill="white" transform="translate(9.5 8.5)"/>
</clipPath>
</defs>
</svg>
