<svg width="24" height="24" viewBox="0 0 24 24" fill="none" xmlns="http://www.w3.org/2000/svg">
<path d="M21.3333 0H2.66667C1.2 0 0 1.2 0 2.66667V21.3333C0 22.8 1.2 24 2.66667 24H21.3333C22.8 24 24 22.8 24 21.3333V2.66667C24 1.2 22.8 0 21.3333 0ZM21.3333 21.3333H2.66667V15.2267L3.98667 16.5467L9.32 11.2133L14.6533 16.5467L19.9867 11.2267L21.3333 12.5733V21.3333ZM21.3333 8.78667L19.9867 7.44L14.6533 12.7867L9.32 7.45333L3.98667 12.7867L2.66667 11.4533V2.66667H21.3333V8.78667Z" fill="#29638A"/>
</svg>
