<svg xmlns="http://www.w3.org/2000/svg" width="23" height="24" fill="none" viewBox="0 0 23 24">
<path fill="#57CC99" fill-rule="evenodd" d="M14.75 10.998a3.004 3.004 0 0 1-3 3.002 3 3 0 1 1 3-3.002" clip-rule="evenodd"/>
<path fill="#1A1C1D" fill-rule="evenodd" d="M11.75 7c-2.207 0-4 1.798-4 4s1.793 4 4 4 4-1.794 4-4-1.793-4-4-4m0 6.626A2.625 2.625 0 1 1 14.374 11a2.63 2.63 0 0 1-2.624 2.626" clip-rule="evenodd"/>
<path fill="#1A1C1D" fill-rule="evenodd" d="M6.594.75C3.64.75 1.054 2.91.758 5.903c-.345 3.49-.344 6.436.003 9.939.236 2.388 1.93 4.249 4.104 4.903l-.566 1.489a.75.75 0 0 0 .988.959l5.3-2.193h6.305c2.94 0 5.52-2.14 5.83-5.12.37-3.544.37-6.509.004-10.018C22.416 2.885 19.836.75 16.9.75zM2.25 6.05c.215-2.171 2.105-3.8 4.343-3.8H16.9c2.226 0 4.11 1.61 4.334 3.768.356 3.404.355 6.265-.004 9.706-.224 2.161-2.11 3.776-4.338 3.776h-6.454a.8.8 0 0 0-.287.057l-3.833 1.586.257-.676a.75.75 0 0 0-.598-1.01c-1.961-.27-3.529-1.793-3.724-3.763-.336-3.405-.338-6.252-.002-9.643" clip-rule="evenodd"/>
</svg>
