<svg width="54" height="54" viewBox="0 0 54 54" fill="none" xmlns="http://www.w3.org/2000/svg">
<g clip-path="url(#clip0_2537_8810)">
<path d="M41.62 38.32C42.37 37.59 42.8 36.59 42.8 35.55C42.8 33.45 41.09 31.74 38.99 31.74C36.89 31.74 35.18 33.45 35.18 35.55C35.18 35.88 35.22 36.21 35.38 36.49C34.82 35.86 34.14 35.35 33.37 35.04C34.13 34.32 34.56 33.31 34.56 32.28C34.56 30.18 32.85 28.47 30.75 28.47C28.65 28.47 26.94 30.18 26.94 32.28C26.94 33.31 27.37 34.32 28.14 34.98C27.36 35.34 26.69 35.85 26.19 36.52C26.27 36.21 26.32 35.87 26.32 35.55C26.32 33.45 24.61 31.74 22.51 31.74C20.41 31.74 18.7 33.45 18.7 35.55C18.7 36.58 19.13 37.59 19.89 38.24C17.75 39.25 16.36 41.44 16.36 43.81C16.36 44.28 16.73 44.66 17.21 44.66H27.82C28.29 44.66 28.68 44.29 28.68 43.81C28.68 42.96 28.5 42.11 28.12 41.39L33.39 41.33C33.05 42.11 32.87 42.96 32.87 43.81C32.87 44.28 33.25 44.66 33.72 44.66H44.34C44.81 44.66 45.2 44.29 45.2 43.81C45.2 41.44 43.8 39.25 41.67 38.3L41.62 38.32ZM38.99 33.44C40.16 33.44 41.1 34.38 41.1 35.54C41.1 36.7 40.16 37.65 38.99 37.65C37.82 37.65 36.88 36.71 36.88 35.54C36.88 34.37 37.83 33.44 38.99 33.44ZM30.74 30.17C31.91 30.17 32.85 31.11 32.85 32.28C32.85 33.45 31.9 34.39 30.74 34.39C29.58 34.39 28.63 33.44 28.63 32.28C28.63 31.12 29.58 30.17 30.74 30.17ZM22.49 33.44C23.65 33.44 24.6 34.38 24.6 35.55C24.6 36.72 23.65 37.65 22.48 37.66C21.32 37.66 20.38 36.71 20.38 35.55C20.38 34.39 21.32 33.44 22.49 33.44ZM18.11 43.02C18.49 40.92 20.31 39.39 22.48 39.33V39.37C24.64 39.37 26.48 40.9 26.9 42.97L18.1 43.02H18.11ZM27.08 39.72C26.89 39.51 26.7 39.33 26.51 39.2C27.1 37.36 28.78 36.12 30.75 36.06V36.1C32.7 36.1 34.4 37.35 35.01 39.15C34.8 39.33 34.61 39.51 34.45 39.71H27.09L27.08 39.72ZM34.61 43.02C34.99 40.92 36.82 39.39 38.99 39.33V39.37C41.14 39.37 42.99 40.9 43.41 42.97L34.6 43.02H34.61ZM27.39 22.64H25.54C25.08 22.64 24.69 23.02 24.69 23.5C24.69 23.98 25.07 24.35 25.54 24.35H27.39C27.86 24.35 28.25 23.98 28.25 23.5C28.25 23.02 27.87 22.64 27.39 22.64ZM36.2 22.64H29.51C29.04 22.64 28.65 23.02 28.65 23.5C28.65 23.98 29.03 24.35 29.51 24.35H36.2C36.67 24.35 37.06 23.98 37.06 23.5C37.06 23.02 36.68 22.64 36.2 22.64ZM36.2 13.34H34.1C33.64 13.34 33.25 13.72 33.25 14.2C33.25 14.68 33.63 15.06 34.1 15.06H36.2C36.67 15.06 37.06 14.68 37.06 14.2C37.06 13.72 36.68 13.34 36.2 13.34ZM34.1 15.05H36.2C36.67 15.05 37.06 14.67 37.06 14.19C37.06 13.71 36.68 13.33 36.2 13.33H34.1C33.64 13.33 33.25 13.71 33.25 14.19C33.25 14.67 33.63 15.05 34.1 15.05ZM36.2 22.64H29.51C29.04 22.64 28.65 23.02 28.65 23.5C28.65 23.98 29.03 24.35 29.51 24.35H36.2C36.67 24.35 37.06 23.98 37.06 23.5C37.06 23.02 36.68 22.64 36.2 22.64ZM27.39 22.64H25.54C25.08 22.64 24.69 23.02 24.69 23.5C24.69 23.98 25.07 24.35 25.54 24.35H27.39C27.86 24.35 28.25 23.98 28.25 23.5C28.25 23.02 27.87 22.64 27.39 22.64ZM38.69 10H21.65C19.55 10 17.84 11.71 17.84 13.81L17.86 23.82L17.42 24.1C17.03 23.19 16.34 22.4 15.5 21.94C16.51 21.14 17.1 19.94 17.1 18.66C17.1 16.35 15.21 14.46 12.9 14.46C10.59 14.46 8.72 16.34 8.72 18.65C8.72 19.94 9.31 21.14 10.32 21.87C8.87 22.76 8 24.33 8 26.04V36.22C8 37.21 8.8 38.01 9.79 38.01H16.03C17.02 38.01 17.82 37.21 17.82 36.22L17.8 29.32L21.03 27.63C21.24 27.67 21.44 27.69 21.65 27.69H38.69C40.79 27.69 42.5 25.97 42.5 23.87V13.81C42.5 11.71 40.79 10 38.69 10ZM12.87 16.16C14.25 16.16 15.36 17.27 15.36 18.65C15.36 20.03 14.25 21.13 12.87 21.13C11.49 21.13 10.38 20.02 10.38 18.65C10.38 17.28 11.5 16.16 12.87 16.16ZM21.49 25.47L14.52 29.09C14.42 29.14 14.3 29.17 14.19 29.17C14.11 29.17 14.03 29.15 13.95 29.13C13.76 29.07 13.63 28.94 13.55 28.79C13.46 28.63 13.44 28.46 13.47 28.29C13.58 27.84 13.28 27.39 12.82 27.28C12.76 27.28 12.7 27.26 12.64 27.26C12.24 27.26 11.89 27.55 11.8 27.93C11.68 28.47 11.76 29.05 12.02 29.56C12.31 30.13 12.8 30.55 13.42 30.75C13.68 30.84 13.93 30.88 14.19 30.88C14.58 30.88 14.97 30.78 15.31 30.6L16.09 30.14V36.23C16.09 36.23 16.05 36.32 16 36.32H9.75C9.75 36.32 9.66 36.28 9.66 36.23V26.05C9.66 24.28 11.1 22.85 12.86 22.85C14.39 22.85 15.72 23.94 16.02 25.45L16.29 26.55L20.82 24.2C20.94 24.13 21.07 24.1 21.17 24.1C21.29 24.1 21.4 24.13 21.49 24.19C21.73 24.35 21.89 24.66 21.88 24.94C21.88 25.18 21.73 25.35 21.48 25.49L21.49 25.47ZM40.77 23.87C40.77 25.04 39.82 25.98 38.65 25.98L23.29 26.04C23.48 25.73 23.58 25.37 23.59 25C23.59 24.72 23.57 24.45 23.48 24.21L27.58 17.56C27.58 17.56 27.64 17.44 27.66 17.39L27.71 17.01C27.71 17.01 27.71 16.95 27.69 16.91C27.63 16.68 27.5 16.5 27.31 16.38C27.17 16.3 27.02 16.25 26.87 16.25C26.57 16.25 26.3 16.41 26.14 16.65L22.41 22.73C22.04 22.49 21.61 22.37 21.17 22.37C20.79 22.37 20.4 22.47 20.03 22.66L19.5 22.99V13.82C19.5 12.65 20.44 11.7 21.61 11.7H38.64C39.81 11.7 40.76 12.65 40.76 13.82V23.87H40.77ZM36.2 13.34H34.1C33.64 13.34 33.25 13.72 33.25 14.2C33.25 14.68 33.63 15.06 34.1 15.06H36.2C36.67 15.06 37.06 14.68 37.06 14.2C37.06 13.72 36.68 13.34 36.2 13.34ZM36.2 22.64H29.51C29.04 22.64 28.65 23.02 28.65 23.5C28.65 23.98 29.03 24.35 29.51 24.35H36.2C36.67 24.35 37.06 23.98 37.06 23.5C37.06 23.02 36.68 22.64 36.2 22.64ZM27.39 22.64H25.54C25.08 22.64 24.69 23.02 24.69 23.5C24.69 23.98 25.07 24.35 25.54 24.35H27.39C27.86 24.35 28.25 23.98 28.25 23.5C28.25 23.02 27.87 22.64 27.39 22.64ZM27.39 22.64H25.54C25.08 22.64 24.69 23.02 24.69 23.5C24.69 23.98 25.07 24.35 25.54 24.35H27.39C27.86 24.35 28.25 23.98 28.25 23.5C28.25 23.02 27.87 22.64 27.39 22.64ZM36.2 22.64H29.51C29.04 22.64 28.65 23.02 28.65 23.5C28.65 23.98 29.03 24.35 29.51 24.35H36.2C36.67 24.35 37.06 23.98 37.06 23.5C37.06 23.02 36.68 22.64 36.2 22.64ZM36.2 13.34H34.1C33.64 13.34 33.25 13.72 33.25 14.2C33.25 14.68 33.63 15.06 34.1 15.06H36.2C36.67 15.06 37.06 14.68 37.06 14.2C37.06 13.72 36.68 13.34 36.2 13.34ZM36.2 22.64H29.51C29.04 22.64 28.65 23.02 28.65 23.5C28.65 23.98 29.03 24.35 29.51 24.35H36.2C36.67 24.35 37.06 23.98 37.06 23.5C37.06 23.02 36.68 22.64 36.2 22.64ZM27.39 22.64H25.54C25.08 22.64 24.69 23.02 24.69 23.5C24.69 23.98 25.07 24.35 25.54 24.35H27.39C27.86 24.35 28.25 23.98 28.25 23.5C28.25 23.02 27.87 22.64 27.39 22.64ZM36.19 13.34H34.09C33.63 13.34 33.24 13.72 33.24 14.2C33.24 14.68 33.62 15.06 34.09 15.06H36.19C36.66 15.06 37.05 14.68 37.05 14.2C37.05 13.72 36.67 13.34 36.19 13.34Z" fill="black"/>
<path d="M32.55 14.2C32.55 14.67 32.17 15.06 31.69 15.06H24.06C23.6 15.06 23.21 14.68 23.21 14.2C23.21 13.72 23.59 13.34 24.06 13.34H31.69C32.16 13.34 32.55 13.72 32.55 14.2Z" fill="black"/>
<path d="M37.37 18.81C37.37 19.28 36.99 19.67 36.52 19.67H28.89C28.45 19.67 28.08 19.34 28.04 18.9C28.04 18.9 28.04 18.9066 28.04 18.92L28.09 18.54C28.21 18.21 28.52 17.97 28.9 17.97H36.53C36.99 17.97 37.38 18.34 37.38 18.82L37.37 18.81Z" fill="black"/>
</g>
<defs>
<clipPath id="clip0_2537_8810">
<rect width="37.15" height="34.67" fill="white" transform="translate(8 10)"/>
</clipPath>
</defs>
</svg>
