<svg width="54" height="54" viewBox="0 0 54 54" fill="none" xmlns="http://www.w3.org/2000/svg">
<g clip-path="url(#clip0_2948_8291)">
<path d="M14.11 18.2001C13.64 18.2001 13.25 17.8201 13.25 17.3401C13.25 16.8601 13.63 16.4801 14.11 16.4801H23.78C24.25 16.4801 24.64 16.8601 24.64 17.3401C24.64 17.8201 24.26 18.2001 23.78 18.2001H14.11Z" fill="#1A1C1D"/>
<path d="M14.11 21.4201C13.64 21.4201 13.25 21.0401 13.25 20.5601C13.25 20.0801 13.63 19.7001 14.11 19.7001H28.61C29.08 19.7001 29.47 20.0801 29.47 20.5601C29.47 21.0401 29.09 21.4201 28.61 21.4201H14.11Z" fill="#1A1C1D"/>
<path d="M14.11 14.97C13.64 14.97 13.25 14.59 13.25 14.11C13.25 13.63 13.63 13.25 14.11 13.25H28.61C29.08 13.25 29.47 13.63 29.47 14.11C29.47 14.59 29.09 14.97 28.61 14.97H14.11Z" fill="#1A1C1D"/>
<path d="M40.2995 33.5C39.8295 33.5 39.4395 33.12 39.4395 32.65C39.4395 32.18 39.8195 31.79 40.2995 31.79H41.4895C41.9595 31.79 42.3495 32.17 42.3495 32.65C42.3495 33.13 41.9695 33.5 41.4895 33.5H40.2995Z" fill="#1A1C1D"/>
<path d="M29.9996 33.5C29.5296 33.5 29.1396 33.12 29.1396 32.65C29.1396 32.18 29.5196 31.79 29.9996 31.79H33.3796C33.8496 31.79 34.2396 32.17 34.2396 32.65C34.2396 33.13 33.8596 33.5 33.3896 33.5H30.0096H29.9996Z" fill="#1A1C1D"/>
<path d="M20.61 33.5C20.14 33.5 19.75 33.12 19.75 32.65C19.75 32.18 20.13 31.79 20.61 31.79H23.99C24.46 31.79 24.85 32.17 24.85 32.65C24.85 33.13 24.47 33.5 23.99 33.5H20.61Z" fill="#1A1C1D"/>
<path d="M12.4996 33.5C12.0296 33.5 11.6396 33.12 11.6396 32.65C11.6396 32.18 12.0196 31.79 12.4996 31.79H13.6896C14.1596 31.79 14.5496 32.17 14.5496 32.65C14.5496 33.13 14.1696 33.5 13.6896 33.5H12.4996Z" fill="#1A1C1D"/>
<path d="M44.7199 13.36C44.2499 13.36 43.8599 12.98 43.8599 12.5C43.8599 11.2 42.7999 10.13 41.4899 10.13C41.0199 10.13 40.6299 9.75003 40.6299 9.27003C40.6299 8.79003 41.0099 8.41003 41.4899 8.41003C43.7399 8.41003 45.5699 10.24 45.5699 12.49C45.5699 12.96 45.1899 13.35 44.7199 13.35V13.36Z" fill="#1A1C1D"/>
<path d="M12.4996 10.14C12.0296 10.14 11.6396 9.76004 11.6396 9.28004C11.6396 8.80004 12.0196 8.42004 12.4996 8.42004H41.4997C41.9697 8.42004 42.3596 8.80004 42.3596 9.28004C42.3596 9.76004 41.9797 10.14 41.4997 10.14H12.4996Z" fill="#1A1C1D"/>
<path d="M9.27992 13.3601C8.80992 13.3601 8.41992 12.9801 8.41992 12.5001C8.41992 10.2601 10.2499 8.43005 12.4999 8.43005C12.9699 8.43005 13.3599 8.81005 13.3599 9.29005C13.3599 9.77005 12.9799 10.1501 12.4999 10.1501C11.1999 10.1501 10.1299 11.2101 10.1299 12.5201C10.1299 12.9901 9.74992 13.3801 9.26992 13.3801L9.27992 13.3601Z" fill="#1A1C1D"/>
<path d="M9.27992 30.28C8.80992 30.28 8.41992 29.9 8.41992 29.42V12.51C8.41992 12.04 8.79992 11.65 9.27992 11.65C9.75992 11.65 10.1399 12.03 10.1399 12.51V29.42C10.1399 29.89 9.75992 30.28 9.27992 30.28Z" fill="#1A1C1D"/>
<path d="M44.7204 30.28C44.2504 30.28 43.8604 29.9 43.8604 29.42V12.51C43.8604 12.04 44.2404 11.65 44.7204 11.65C45.2004 11.65 45.5704 12.03 45.5704 12.51V29.42C45.5704 29.89 45.1904 30.28 44.7204 30.28Z" fill="#1A1C1D"/>
<path d="M12.4999 33.5001C10.2499 33.5001 8.41992 31.6701 8.41992 29.4201C8.41992 28.9501 8.79992 28.5601 9.27992 28.5601C9.75992 28.5601 10.1399 28.9401 10.1399 29.4201C10.1399 30.7201 11.1999 31.7901 12.5099 31.7901C12.9799 31.7901 13.3699 32.1701 13.3699 32.6501C13.3699 33.1301 12.9899 33.5001 12.5099 33.5001H12.4999Z" fill="#1A1C1D"/>
<path d="M41.4899 33.5001C41.0199 33.5001 40.6299 33.1201 40.6299 32.6501C40.6299 32.1801 41.0099 31.7901 41.4899 31.7901C42.7899 31.7901 43.8599 30.7301 43.8599 29.4201C43.8599 28.9501 44.2399 28.5601 44.7199 28.5601C45.1999 28.5601 45.5699 28.9401 45.5699 29.4201C45.5699 31.6701 43.7399 33.5001 41.4899 33.5001Z" fill="#1A1C1D"/>
<path d="M42.5703 38.06C42.1003 38.06 41.7203 37.68 41.7203 37.2C41.7203 34.71 39.7103 32.53 37.2303 32.34C37.1103 32.34 36.9903 32.33 36.8803 32.33C34.4503 32.33 32.3103 34.2 32.0203 36.59C31.9703 37.02 31.6003 37.34 31.1803 37.34C31.1403 37.34 31.1103 37.34 31.0703 37.34C30.6003 37.28 30.2703 36.85 30.3303 36.38C30.7303 33.15 33.6203 30.62 36.8903 30.62C37.0503 30.62 37.2103 30.62 37.3703 30.64C40.7703 30.9 43.4403 33.79 43.4403 37.2C43.4403 37.67 43.0503 38.06 42.5803 38.06H42.5703Z" fill="#1A1C1D"/>
<path d="M11.4196 38.06C10.9496 38.06 10.5596 37.68 10.5596 37.2C10.5596 33.74 13.3696 30.79 16.8296 30.62C16.9296 30.62 17.0296 30.62 17.1396 30.62C20.4496 30.62 23.2596 33.1 23.6696 36.38C23.6996 36.61 23.6396 36.83 23.4996 37.01C23.3596 37.19 23.1596 37.31 22.9296 37.33C22.8896 37.33 22.8596 37.33 22.8196 37.33C22.3896 37.33 22.0296 37.01 21.9696 36.58C21.6696 34.19 19.5396 32.31 17.1296 32.31C17.0596 32.31 16.9896 32.31 16.9096 32.31C14.3496 32.43 12.2596 34.62 12.2596 37.18C12.2596 37.41 12.1696 37.62 12.0096 37.78C11.8496 37.94 11.6296 38.03 11.4096 38.03L11.4196 38.06Z" fill="#1A1C1D"/>
<path d="M11.4196 42.36C10.9496 42.36 10.5596 41.98 10.5596 41.5C10.5596 41.02 10.9396 40.64 11.4196 40.64H21.2596C21.7296 40.64 22.1196 41.02 22.1196 41.5C22.1196 41.98 21.7396 42.36 21.2596 42.36H11.4196Z" fill="#1A1C1D"/>
<path d="M32.7204 42.36C32.2504 42.36 31.8604 41.98 31.8604 41.5C31.8604 41.02 32.2404 40.64 32.7204 40.64H42.5604C43.0304 40.64 43.4204 41.02 43.4204 41.5C43.4204 41.98 43.0404 42.36 42.5604 42.36H32.7204Z" fill="#1A1C1D"/>
<path d="M11.4196 42.3601C10.9496 42.3601 10.5596 41.9801 10.5596 41.5001V37.2001C10.5596 36.7301 10.9396 36.3501 11.4196 36.3501C11.8996 36.3501 12.2796 36.7301 12.2796 37.2001V41.5001C12.2796 41.9701 11.8996 42.3601 11.4196 42.3601Z" fill="#1A1C1D"/>
<path d="M17.1503 32.3401C14.9403 32.3401 13.0703 30.4701 13.0703 28.2601C13.0703 26.0501 14.9403 24.1801 17.1503 24.1801C19.3603 24.1801 21.2303 26.0501 21.2303 28.2601C21.2303 30.4701 19.3603 32.3401 17.1503 32.3401ZM17.1503 25.9001C15.8703 25.9001 14.7803 26.9801 14.7803 28.2701C14.7803 29.5601 15.8603 30.6401 17.1503 30.6401C18.4403 30.6401 19.5203 29.5601 19.5203 28.2701C19.5203 26.9801 18.4403 25.9001 17.1503 25.9001Z" fill="#1A1C1D"/>
<path d="M36.8398 32.3401C34.6298 32.3401 32.7598 30.4701 32.7598 28.2601C32.7598 26.0501 34.6298 24.1801 36.8398 24.1801C39.0498 24.1801 40.9198 26.0501 40.9198 28.2601C40.9198 30.4701 39.0498 32.3401 36.8398 32.3401ZM36.8398 25.9001C35.5598 25.9001 34.4698 26.9801 34.4698 28.2701C34.4698 29.5601 35.5498 30.6401 36.8398 30.6401C38.1298 30.6401 39.2098 29.5601 39.2098 28.2701C39.2098 26.9801 38.1298 25.9001 36.8398 25.9001Z" fill="#1A1C1D"/>
<path d="M42.5697 42.3601C42.0997 42.3601 41.7197 41.9801 41.7197 41.5001V37.2001C41.7197 36.7301 42.0997 36.3501 42.5697 36.3501C43.0397 36.3501 43.4297 36.7301 43.4297 37.2001V41.5001C43.4297 41.9701 43.0497 42.3601 42.5697 42.3601Z" fill="#1A1C1D"/>
<path d="M21.2702 45.5801C20.8002 45.5801 20.4102 45.2001 20.4102 44.7301V40.4301C20.4102 39.9601 20.7902 39.5701 21.2702 39.5701C21.7502 39.5701 22.1302 39.9501 22.1302 40.4301V44.7301C22.1302 45.2001 21.7502 45.5801 21.2702 45.5801Z" fill="#1A1C1D"/>
<path d="M32.7204 45.5801C32.2504 45.5801 31.8604 45.2001 31.8604 44.7301V40.4301C31.8604 39.9601 32.2404 39.5701 32.7204 39.5701C33.2004 39.5701 33.5704 39.9501 33.5704 40.4301V44.7301C33.5704 45.2001 33.1904 45.5801 32.7204 45.5801Z" fill="#1A1C1D"/>
<path d="M21.2702 45.58C20.8002 45.58 20.4102 45.2 20.4102 44.73C20.4102 44.26 20.7902 43.87 21.2702 43.87H32.7302C33.2002 43.87 33.5802 44.25 33.5802 44.73C33.5802 45.21 33.2002 45.58 32.7202 45.58H21.2602H21.2702Z" fill="#1A1C1D"/>
<path d="M32.7204 41.2801C32.2504 41.2801 31.8604 40.9001 31.8604 40.4301C31.8604 37.7901 29.6304 35.5601 26.9904 35.5601C24.3504 35.5601 22.1204 37.7901 22.1204 40.4301C22.1204 40.9001 21.7404 41.2801 21.2604 41.2801C20.7804 41.2801 20.4004 40.9001 20.4004 40.4301C20.4004 36.8601 23.4104 33.8501 26.9804 33.8501C30.5504 33.8501 33.5604 36.8601 33.5604 40.4301C33.5604 40.9001 33.1804 41.2801 32.7104 41.2801H32.7204Z" fill="#1A1C1D"/>
<path d="M26.9999 35.56C24.7899 35.56 22.9199 33.69 22.9199 31.48C22.9199 29.27 24.7899 27.4 26.9999 27.4C29.2099 27.4 31.0799 29.27 31.0799 31.48C31.0799 33.69 29.2099 35.56 26.9999 35.56ZM26.9999 29.12C25.7199 29.12 24.6299 30.2 24.6299 31.49C24.6299 32.78 25.7099 33.86 26.9999 33.86C28.2899 33.86 29.3699 32.78 29.3699 31.49C29.3699 30.2 28.2899 29.12 26.9999 29.12Z" fill="#1A1C1D"/>
</g>
<defs>
<clipPath id="clip0_2948_8291">
<rect width="37.15" height="37.15" fill="white" transform="translate(8.41992 8.43005)"/>
</clipPath>
</defs>
</svg>
