<svg width="54" height="54" viewBox="0 0 54 54" fill="none" xmlns="http://www.w3.org/2000/svg">
<g clip-path="url(#clip0_2946_8182)">
<path d="M40.31 33.49C39.84 33.49 39.46 33.11 39.46 32.64C39.46 32.17 39.84 31.79 40.31 31.79H41.5C41.97 31.79 42.35 32.17 42.35 32.64C42.35 33.11 41.97 33.49 41.5 33.49H40.31Z" fill="#1A1C1D"/>
<path d="M30.1904 33.49C29.6204 33.49 29.1504 33.11 29.1504 32.64C29.1504 32.17 29.6104 31.79 30.1904 31.79H34.3304C34.9004 31.79 35.3704 32.17 35.3704 32.64C35.3704 33.11 34.9104 33.49 34.3404 33.49H30.2004H30.1904Z" fill="#1A1C1D"/>
<path d="M20.6098 33.49C20.1398 33.49 19.7598 33.11 19.7598 32.64C19.7598 32.17 20.1398 31.79 20.6098 31.79H23.9898C24.4598 31.79 24.8398 32.17 24.8398 32.64C24.8398 33.11 24.4598 33.49 23.9898 33.49H20.6098Z" fill="#1A1C1D"/>
<path d="M12.4896 33.49C12.0196 33.49 11.6396 33.11 11.6396 32.64C11.6396 32.17 12.0196 31.79 12.4896 31.79H13.6796C14.1496 31.79 14.5296 32.17 14.5296 32.64C14.5296 33.11 14.1496 33.49 13.6796 33.49H12.4896Z" fill="#1A1C1D"/>
<path d="M44.7196 13.35C44.2496 13.35 43.8696 12.97 43.8696 12.5C43.8696 11.19 42.7996 10.12 41.4896 10.12C41.0196 10.12 40.6396 9.74004 40.6396 9.27004C40.6396 8.80004 41.0196 8.42004 41.4896 8.42004C43.7296 8.42004 45.5596 10.25 45.5596 12.49C45.5596 12.96 45.1796 13.34 44.7096 13.34L44.7196 13.35Z" fill="#1A1C1D"/>
<path d="M12.4896 10.12C12.0196 10.12 11.6396 9.74004 11.6396 9.27004C11.6396 8.80004 12.0196 8.42004 12.4896 8.42004H41.4997C41.9697 8.42004 42.3496 8.80004 42.3496 9.27004C42.3496 9.74004 41.9697 10.12 41.4997 10.12H12.4896Z" fill="#1A1C1D"/>
<path d="M9.26992 13.3501C8.79992 13.3501 8.41992 12.9701 8.41992 12.5001C8.41992 10.2601 10.2499 8.43005 12.4899 8.43005C12.9599 8.43005 13.3399 8.81005 13.3399 9.28005C13.3399 9.75005 12.9599 10.1301 12.4899 10.1301C11.1799 10.1301 10.1099 11.2001 10.1099 12.5101C10.1099 12.9801 9.72992 13.3601 9.25992 13.3601L9.26992 13.3501Z" fill="#1A1C1D"/>
<path d="M9.26992 30.27C8.79992 30.27 8.41992 29.89 8.41992 29.42V12.5C8.41992 12.03 8.79992 11.65 9.26992 11.65C9.73992 11.65 10.1199 12.03 10.1199 12.5V29.42C10.1199 29.89 9.73992 30.27 9.26992 30.27Z" fill="#1A1C1D"/>
<path d="M44.7201 30.27C44.2501 30.27 43.8701 29.89 43.8701 29.42V12.5C43.8701 12.03 44.2501 11.65 44.7201 11.65C45.1901 11.65 45.5701 12.03 45.5701 12.5V29.42C45.5701 29.89 45.1901 30.27 44.7201 30.27Z" fill="#1A1C1D"/>
<path d="M12.4899 33.4901C10.2499 33.4901 8.41992 31.6601 8.41992 29.4201C8.41992 28.9501 8.79992 28.5701 9.26992 28.5701C9.73992 28.5701 10.1199 28.9501 10.1199 29.4201C10.1199 30.7301 11.1899 31.8001 12.4999 31.8001C12.9699 31.8001 13.3499 32.1801 13.3499 32.6501C13.3499 33.1201 12.9699 33.5001 12.4999 33.5001L12.4899 33.4901Z" fill="#1A1C1D"/>
<path d="M41.5004 33.4901C41.0304 33.4901 40.6504 33.1101 40.6504 32.6401C40.6504 32.1701 41.0304 31.7901 41.5004 31.7901C42.8104 31.7901 43.8804 30.7201 43.8804 29.4101C43.8804 28.9401 44.2604 28.5601 44.7304 28.5601C45.2004 28.5601 45.5804 28.9401 45.5804 29.4101C45.5804 31.6501 43.7504 33.4801 41.5104 33.4801L41.5004 33.4901Z" fill="#1A1C1D"/>
<path d="M43.0703 38.67C42.6003 38.67 42.2203 38.29 42.2203 37.82C42.2203 35.33 40.2003 33.14 37.7203 32.95C37.6003 32.95 37.4803 32.94 37.3703 32.94C34.9403 32.94 32.7903 34.82 32.4903 37.21C32.4403 37.63 32.0803 37.95 31.6503 37.95C31.6103 37.95 31.5803 37.95 31.5403 37.95C31.3203 37.92 31.1203 37.81 30.9803 37.63C30.8403 37.45 30.7803 37.23 30.8103 37.01C31.2103 33.78 34.0903 31.25 37.3703 31.25C37.5303 31.25 37.6903 31.25 37.8503 31.27C41.2503 31.53 43.9103 34.41 43.9103 37.83C43.9103 38.3 43.5303 38.68 43.0603 38.68L43.0703 38.67Z" fill="#1A1C1D"/>
<path d="M11.4203 38.06C10.9503 38.06 10.5703 37.68 10.5703 37.21C10.5703 33.75 13.3803 30.81 16.8403 30.64C16.9403 30.64 17.0403 30.64 17.1503 30.64C20.4603 30.64 23.2603 33.12 23.6803 36.4C23.7103 36.62 23.6503 36.85 23.5103 37.02C23.3703 37.2 23.1703 37.31 22.9503 37.34C22.9103 37.34 22.8803 37.34 22.8403 37.34C22.4203 37.34 22.0603 37.02 22.0003 36.6C21.7003 34.2 19.5703 32.32 17.1403 32.32C17.0703 32.32 17.0003 32.32 16.9203 32.32C14.3503 32.44 12.2603 34.63 12.2603 37.2C12.2603 37.43 12.1703 37.64 12.0103 37.8C11.8503 37.96 11.6403 38.05 11.4103 38.05L11.4203 38.06Z" fill="#1A1C1D"/>
<path d="M11.4203 42.36C10.9503 42.36 10.5703 41.98 10.5703 41.51C10.5703 41.04 10.9503 40.66 11.4203 40.66H21.2703C21.7403 40.66 22.1203 41.04 22.1203 41.51C22.1203 41.98 21.7403 42.36 21.2703 42.36H11.4203Z" fill="#1A1C1D"/>
<path d="M33.2201 42.96C32.7501 42.96 32.3701 42.58 32.3701 42.11C32.3701 41.64 32.7501 41.26 33.2201 41.26H43.0701C43.5401 41.26 43.9201 41.64 43.9201 42.11C43.9201 42.58 43.5401 42.96 43.0701 42.96H33.2201Z" fill="#1A1C1D"/>
<path d="M11.4203 42.36C10.9503 42.36 10.5703 41.98 10.5703 41.51V37.21C10.5703 36.74 10.9503 36.36 11.4203 36.36C11.8903 36.36 12.2703 36.74 12.2703 37.21V41.51C12.2703 41.98 11.8903 42.36 11.4203 42.36Z" fill="#1A1C1D"/>
<path d="M17.1501 32.3301C14.9401 32.3301 13.0801 30.4701 13.0801 28.2601C13.0801 26.0501 14.9401 24.1901 17.1501 24.1901C19.3601 24.1901 21.2201 26.0501 21.2201 28.2601C21.2201 30.4701 19.3601 32.3301 17.1501 32.3301ZM17.1501 25.8801C15.8601 25.8801 14.7701 26.9701 14.7701 28.2601C14.7701 29.5501 15.8601 30.6401 17.1501 30.6401C18.4401 30.6401 19.5301 29.5501 19.5301 28.2601C19.5301 26.9701 18.4401 25.8801 17.1501 25.8801Z" fill="#1A1C1D"/>
<path d="M37.3395 32.94C35.1295 32.94 33.2695 31.08 33.2695 28.87C33.2695 26.66 35.1295 24.8 37.3395 24.8C39.5495 24.8 41.4095 26.66 41.4095 28.87C41.4095 31.08 39.5495 32.94 37.3395 32.94ZM37.3395 26.49C36.0495 26.49 34.9595 27.58 34.9595 28.87C34.9595 30.16 36.0495 31.25 37.3395 31.25C38.6295 31.25 39.7195 30.16 39.7195 28.87C39.7195 27.58 38.6295 26.49 37.3395 26.49Z" fill="#1A1C1D"/>
<path d="M43.0697 42.9601C42.5997 42.9601 42.2197 42.5801 42.2197 42.1101V37.8101C42.2197 37.3401 42.5997 36.9601 43.0697 36.9601C43.5397 36.9601 43.9197 37.3401 43.9197 37.8101V42.1101C43.9197 42.5801 43.5397 42.9601 43.0697 42.9601Z" fill="#1A1C1D"/>
<path d="M21.2602 45.5801C20.7902 45.5801 20.4102 45.2001 20.4102 44.7301V40.4301C20.4102 39.9601 20.7902 39.5801 21.2602 39.5801C21.7302 39.5801 22.1102 39.9601 22.1102 40.4301V44.7301C22.1102 45.2001 21.7302 45.5801 21.2602 45.5801Z" fill="#1A1C1D"/>
<path d="M32.7299 45.5801C32.2599 45.5801 31.8799 45.2001 31.8799 44.7301V40.4301C31.8799 39.9601 32.2599 39.5801 32.7299 39.5801C33.1999 39.5801 33.5799 39.9601 33.5799 40.4301V44.7301C33.5799 45.2001 33.1999 45.5801 32.7299 45.5801Z" fill="#1A1C1D"/>
<path d="M21.2602 45.58C20.7902 45.58 20.4102 45.2 20.4102 44.73C20.4102 44.26 20.7902 43.88 21.2602 43.88H32.7202C33.1902 43.88 33.5702 44.26 33.5702 44.73C33.5702 45.2 33.1902 45.58 32.7202 45.58H21.2602Z" fill="#1A1C1D"/>
<path d="M32.7299 41.2801C32.2599 41.2801 31.8799 40.9001 31.8799 40.4301C31.8799 37.7801 29.6399 35.5501 26.9999 35.5501C24.3599 35.5501 22.1199 37.7901 22.1199 40.4301C22.1199 40.9001 21.7399 41.2801 21.2699 41.2801C20.7999 41.2801 20.4199 40.9001 20.4199 40.4301C20.4199 36.8701 23.4299 33.8501 26.9999 33.8501C30.5699 33.8501 33.5799 36.8601 33.5799 40.4301C33.5799 40.9001 33.1999 41.2801 32.7299 41.2801Z" fill="#1A1C1D"/>
<path d="M26.9997 35.55C24.7897 35.55 22.9297 33.69 22.9297 31.48C22.9297 29.27 24.7897 27.41 26.9997 27.41C29.2097 27.41 31.0697 29.27 31.0697 31.48C31.0697 33.69 29.2097 35.55 26.9997 35.55ZM26.9997 29.1C25.7097 29.1 24.6197 30.19 24.6197 31.48C24.6197 32.77 25.7097 33.86 26.9997 33.86C28.2897 33.86 29.3797 32.77 29.3797 31.48C29.3797 30.19 28.2897 29.1 26.9997 29.1Z" fill="#1A1C1D"/>
<path d="M18.7298 12.1801C18.5698 12.0201 18.3598 11.9301 18.1298 11.9301H14.6898C14.2198 11.9301 13.8398 12.3101 13.8398 12.7801V16.2301C13.8398 16.7001 14.2198 17.0801 14.6898 17.0801H14.6798L18.1298 17.0701C18.5998 17.0701 18.9798 16.6901 18.9798 16.2201V12.7801C18.9798 12.5501 18.8898 12.3401 18.7298 12.1801ZM15.5398 15.4301V13.6401L17.2898 13.6001L17.3298 15.3901L15.5398 15.4301Z" fill="#1A1C1D"/>
<path d="M25.8695 12.1801C25.7095 12.0201 25.4995 11.9301 25.2695 11.9301H21.8295C21.3595 11.9301 20.9795 12.3101 20.9795 12.7801V16.2301C20.9795 16.7001 21.3595 17.0801 21.8295 17.0801H21.8195L25.2695 17.0701C25.7395 17.0701 26.1195 16.6901 26.1195 16.2201V12.7801C26.1195 12.5501 26.0295 12.3401 25.8695 12.1801ZM22.6795 15.4301V13.6401L24.4295 13.6001L24.4695 15.3901L22.6795 15.4301Z" fill="#1A1C1D"/>
<path d="M18.1298 18.0801H14.6898C14.2198 18.0801 13.8398 18.4601 13.8398 18.9301V22.3801C13.8398 22.8501 14.2198 23.2301 14.6898 23.2301H14.6798L18.1298 23.2201C18.5998 23.2201 18.9798 22.8401 18.9798 22.3701V18.9301C18.9798 18.4601 18.5998 18.0801 18.1298 18.0801ZM15.5398 21.5801V19.7901L17.2898 19.7501L17.3298 21.5401L15.5398 21.5801Z" fill="#1A1C1D"/>
<path d="M25.2695 18.0801H21.8295C21.3595 18.0801 20.9795 18.4601 20.9795 18.9301V22.3801C20.9795 22.8501 21.3595 23.2301 21.8295 23.2301H21.8195L25.2695 23.2201C25.7395 23.2201 26.1195 22.8401 26.1195 22.3701V18.9301C26.1195 18.4601 25.7395 18.0801 25.2695 18.0801ZM22.6795 21.5801V19.7901L24.4295 19.7501L24.4695 21.5401L22.6795 21.5801Z" fill="#1A1C1D"/>
<path d="M35.34 23.1601C33.87 23.1601 32.47 22.5701 31.4 21.4901C30.33 20.4101 29.75 19.0001 29.77 17.5201C29.8 14.4401 32.32 11.9301 35.39 11.9301C36.89 11.9301 38.31 12.5101 39.37 13.5701C40.43 14.6301 41.01 16.0401 41.01 17.5501C41.01 20.6801 38.54 23.1501 35.38 23.1601H35.35H35.34ZM35.2 13.6301C33.05 13.7901 31.48 15.4301 31.48 17.5401C31.48 18.6001 31.88 19.5901 32.6 20.3101C33.33 21.0401 34.31 21.4401 35.37 21.4401C37.56 21.4401 39.27 19.7301 39.27 17.5401C39.27 15.3501 37.6 13.6801 35.37 13.6201H35.2V13.6301Z" fill="#1A1C1D"/>
<path d="M35.5101 18.4001H35.3701C34.9001 18.4001 34.5901 18.0901 34.5801 17.6201C34.5601 17.0701 34.5301 16.4701 34.5401 15.9201C34.5401 15.4401 34.9001 15.1001 35.3901 15.1001C35.8801 15.1001 36.2201 15.4401 36.2401 15.9201C36.2401 16.0601 36.2401 16.1901 36.2401 16.3301C36.2401 16.3301 36.2401 16.6101 36.2401 16.6501L37.0001 16.6901C37.4801 16.7001 37.8301 17.0601 37.8301 17.5401C37.8301 18.0201 37.4801 18.3801 37.0101 18.3901H35.5201L35.5101 18.4001Z" fill="#1A1C1D"/>
</g>
<defs>
<clipPath id="clip0_2946_8182">
<rect width="37.15" height="37.15" fill="white" transform="translate(8.41992 8.43005)"/>
</clipPath>
</defs>
</svg>
