<svg width="54" height="54" viewBox="0 0 54 54" fill="none" xmlns="http://www.w3.org/2000/svg">
<g clip-path="url(#clip0_2573_9448)">
<path d="M15.2699 24.58C14.7899 24.58 14.3999 24.19 14.3999 23.71C14.3999 23.23 14.7899 22.84 15.2699 22.84H22.6899C23.1699 22.84 23.5599 23.23 23.5599 23.71C23.5599 24.19 23.1699 24.58 22.6899 24.58H15.2699Z" fill="#1A1C1D"/>
<path d="M15.2699 28.71C14.7899 28.71 14.3999 28.32 14.3999 27.84C14.3999 27.36 14.7899 26.97 15.2699 26.97H30.1099C30.5899 26.97 30.9799 27.36 30.9799 27.84C30.9799 28.32 30.5899 28.71 30.1099 28.71H15.2699Z" fill="#1A1C1D"/>
<path d="M15.2699 32.84C14.7899 32.84 14.3999 32.45 14.3999 31.97C14.3999 31.49 14.7899 31.1 15.2699 31.1H30.1099C30.5899 31.1 30.9799 31.49 30.9799 31.97C30.9799 32.45 30.5899 32.84 30.1099 32.84H15.2699Z" fill="#1A1C1D"/>
<path d="M15.2699 36.98C14.7899 36.98 14.3999 36.59 14.3999 36.11C14.3999 35.63 14.7899 35.24 15.2699 35.24H30.1099C30.5899 35.24 30.9799 35.63 30.9799 36.11C30.9799 36.59 30.5899 36.98 30.1099 36.98H15.2699Z" fill="#1A1C1D"/>
<path d="M15.2699 41.11C14.7899 41.11 14.3999 40.72 14.3999 40.24C14.3999 39.76 14.7899 39.37 15.2699 39.37H30.1099C30.5899 39.37 30.9799 39.76 30.9799 40.24C30.9799 40.72 30.5899 41.11 30.1099 41.11H15.2699Z" fill="#1A1C1D"/>
<path d="M35.1302 18.04C34.6602 18.04 34.2702 17.65 34.2702 17.17V16.12C34.2702 15.64 34.6602 15.25 35.1402 15.25C35.6702 15.25 36.1102 14.82 36.1102 14.28C36.1102 13.74 35.6802 13.31 35.1402 13.31C34.6002 13.31 34.1702 13.74 34.1702 14.28C34.1702 14.76 33.7802 15.15 33.3002 15.15C32.8202 15.15 32.4302 14.76 32.4302 14.28C32.4302 12.79 33.6402 11.58 35.1302 11.58C36.6202 11.58 37.8302 12.79 37.8302 14.28C37.8302 15.47 37.0602 16.5 35.9202 16.86L35.9802 17.17C35.9802 17.65 35.5902 18.04 35.1202 18.04H35.1302Z" fill="#1A1C1D"/>
<path d="M35.14 20.25C34.66 20.25 34.27 19.86 34.27 19.38V19.16C34.27 18.68 34.66 18.29 35.14 18.29C35.62 18.29 36.01 18.68 36.01 19.16V19.38C36.01 19.86 35.62 20.25 35.14 20.25Z" fill="#1A1C1D"/>
<path d="M13.15 45.62C11.69 45.62 10.5 44.43 10.5 42.97V19.67C10.5 19.45 10.6 19.21 10.75 19.06L16.91 12.91C17.06 12.76 17.3 12.66 17.52 12.66H26.93C28.33 10.15 31.56 8.51001 35.13 8.51001C40.16 8.51001 44.25 11.74 44.25 15.71C44.25 18.7 41.96 21.33 38.43 22.41L37.55 22.64C36.76 22.82 35.95 22.9 35.12 22.9H34.77L34.87 42.97C34.87 44.43 33.68 45.62 32.22 45.62H13.15V45.66V45.63V45.62ZM12.23 42.96C12.23 43.48 12.64 43.89 13.15 43.89H32.24C32.75 43.89 33.16 43.48 33.16 42.97V22.65C33.1 22.66 33.04 22.67 32.98 22.67C32.82 22.67 32.65 22.64 32.45 22.58L30.75 24.34C30.42 24.67 29.98 24.85 29.52 24.85C28.55 24.85 27.77 24.06 27.77 23.1V19.9C26.63 18.72 26.02 17.25 26.02 15.69C26.02 15.2 26.08 14.71 26.21 14.24L18.29 14.36L18.39 17.86C18.39 19.32 17.2 20.51 15.74 20.51H12.23V42.95V42.96ZM35.14 10.23C31.07 10.23 27.76 12.68 27.76 15.7C27.76 16.89 28.27 18.03 29.24 18.99C29.41 19.16 29.5 19.38 29.5 19.6V23.11L31.61 21.02C31.77 20.86 31.99 20.77 32.22 20.77C32.29 20.77 32.38 20.77 32.47 20.81C33.29 21.05 34.19 21.18 35.13 21.18C39.2 21.18 42.51 18.73 42.51 15.71C42.51 12.69 39.2 10.24 35.13 10.24L35.14 10.23ZM13.3 18.97L15.75 18.81C16.26 18.81 16.67 18.4 16.67 17.89V15.6L13.3 18.97Z" fill="#1A1C1D"/>
</g>
<defs>
<clipPath id="clip0_2573_9448">
<rect width="33.76" height="37.15" fill="white" transform="translate(10.5 8.5)"/>
</clipPath>
</defs>
</svg>
