<svg width="24" height="24" viewBox="0 0 24 24" fill="none" xmlns="http://www.w3.org/2000/svg">
<g clip-path="url(#clip0_2039_1050)">
<path fill-rule="evenodd" clip-rule="evenodd" d="M12 10C9.792 10 8 11.792 8 14C8 16.208 9.792 18 12 18C14.208 18 16 16.208 16 14C16 11.792 14.208 10 12 10ZM12 16.4C10.676 16.4 9.6 15.324 9.6 14C9.6 12.676 10.676 11.6 12 11.6C13.324 11.6 14.4 12.676 14.4 14C14.4 15.324 13.324 16.4 12 16.4Z" fill="#1A1C1D"/>
<path fill-rule="evenodd" clip-rule="evenodd" d="M23.8078 11.5522L16.0598 2.73251C16.0598 2.73251 16.0438 2.71679 16.0318 2.70501C13.8318 0.430363 10.1718 0.430363 7.96779 2.70501C7.95979 2.71679 7.95179 2.72465 7.93979 2.73251L0.195788 11.5522C-0.00821247 11.7839 -0.0562125 12.1139 0.0717875 12.3929C0.203788 12.6718 0.487788 12.8525 0.799788 12.8525H2.17179L3.89179 19.8414C4.27979 21.6721 5.90379 23 7.80779 23H15.7958C17.6958 23 19.3198 21.6721 19.7078 19.8414L21.4318 12.8525H23.1998C23.5118 12.8525 23.7958 12.6718 23.9278 12.3929C24.0598 12.1139 24.0118 11.7839 23.8078 11.5522ZM20.7998 11.2811C20.4318 11.2811 20.1078 11.5286 20.0238 11.8822L18.1518 19.4839V19.4957C18.1518 19.4957 18.1478 19.5036 18.1438 19.5075V19.5154C17.9118 20.635 16.9238 21.4286 15.7958 21.4286H7.80779C6.67579 21.4286 5.68779 20.635 5.45579 19.5154V19.5036L5.45179 19.4839L3.57979 11.8822C3.49179 11.5286 3.16779 11.2811 2.79979 11.2811H2.54779L9.13979 3.77751C10.7078 2.17072 13.2918 2.17072 14.8598 3.77751L21.4518 11.2811H20.7998Z" fill="#1A1C1D"/>
<path d="M11.9996 16.4C13.3251 16.4 14.3996 15.3255 14.3996 14C14.3996 12.6745 13.3251 11.6 11.9996 11.6C10.6741 11.6 9.59961 12.6745 9.59961 14C9.59961 15.3255 10.6741 16.4 11.9996 16.4Z" fill="#57CC99"/>
</g>
<defs>
<clipPath id="clip0_2039_1050">
<rect width="24" height="22" fill="white" transform="translate(0 1)"/>
</clipPath>
</defs>
</svg>
