<svg width="24" height="24" viewBox="0 0 24 24" fill="none" xmlns="http://www.w3.org/2000/svg">
<g opacity="0.6">
<g clip-path="url(#clip0_2039_1045)">
<path fill-rule="evenodd" clip-rule="evenodd" d="M12 10C9.792 10 8 11.792 8 14C8 16.208 9.792 18 12 18C14.208 18 16 16.208 16 14C16 11.792 14.208 10 12 10ZM9.6 14C9.6 12.676 10.676 11.6 12 11.6C13.324 11.6 14.4 12.676 14.4 14C14.4 15.324 13.324 16.4 12 16.4C10.676 16.4 9.6 15.324 9.6 14Z" fill="#1A1C1D"/>
<path fill-rule="evenodd" clip-rule="evenodd" d="M16.0267 2.70491C13.8234 0.430271 10.1645 0.430271 7.96524 2.70491C7.95724 2.71277 7.94925 2.72456 7.93725 2.73241L0.19572 11.5521C-0.00821488 11.7838 -0.0561996 12.1138 0.0757583 12.3928C0.207716 12.6717 0.491626 12.8524 0.803526 12.8524H2.17509L3.89454 19.8453C4.28242 21.676 5.9059 23.0038 7.80929 23.0038H15.7947C17.6941 23.0038 19.3216 21.676 19.7095 19.8453L21.4289 12.8524H23.2004C23.5123 12.8524 23.7962 12.6717 23.9281 12.3928C24.0601 12.1138 24.0121 11.7838 23.8082 11.5521L16.0547 2.73241C16.0547 2.73241 16.0387 2.71277 16.0267 2.70491ZM2.54697 11.2771L9.13687 3.77741C10.7044 2.17063 13.2875 2.17063 14.855 3.77741L21.4449 11.281H20.7931C20.4253 11.281 20.1014 11.5285 20.0174 11.8821L18.146 19.4878V19.4996C18.146 19.4996 18.142 19.5074 18.142 19.5113C18.142 19.5113 18.142 19.5153 18.142 19.5192C17.9101 20.6428 16.9224 21.4363 15.7947 21.4363H7.80929C6.68165 21.4363 5.69397 20.6428 5.46204 19.5192V19.5074C5.46204 19.5074 5.45804 19.4956 5.45404 19.4917L3.58264 11.886C3.49467 11.5324 3.17477 11.2849 2.80689 11.2849H2.55497L2.54697 11.2771Z" fill="#1A1C1D"/>
</g>
</g>
<defs>
<clipPath id="clip0_2039_1045">
<rect width="24" height="22" fill="white" transform="translate(0 1)"/>
</clipPath>
</defs>
</svg>
