<svg width="48" height="48" viewBox="0 0 48 48" fill="none" xmlns="http://www.w3.org/2000/svg">
<path d="M33.632 10.4526C33.6371 12.3346 32.0697 13.915 30.1783 13.9361C28.3144 13.9571 26.7158 12.3722 26.6955 10.483C26.6752 8.61921 28.268 7.01263 30.1486 7.00031C32.0204 6.98726 33.6277 8.58007 33.632 10.4526Z" fill="white"/>
<path d="M26.7105 32.0259L26.2083 35.1898C26.1293 35.6151 25.9076 36.0014 25.58 36.284L19.8928 41.2045C19.3486 41.6755 18.5464 41.7342 17.9601 41.3175C17.5007 40.9914 17.3058 40.5733 17.2413 40.1798C17.142 39.579 17.3637 38.9689 17.7862 38.5297L22.0712 34.0716C22.3111 33.8093 22.4727 33.4846 22.5379 33.1353L23.0792 30.2483L26.7105 32.0259Z" fill="white"/>
<path d="M17.1763 23.0719C17.8488 23.261 18.5691 23.0037 18.9937 22.4486L21.2344 19.5239C21.3388 19.3811 21.4968 19.2877 21.6721 19.2652L23.6135 18.9543C23.5548 19.3109 23.5273 19.5616 23.4708 19.8051C23.0671 21.5377 22.6562 24.4386 22.2497 26.1698C21.8185 28.0054 23.5309 29.067 25.2665 29.783C27.0195 30.5055 27.8318 31.0055 29.5935 31.707C30.0457 31.8867 30.2747 32.1142 30.3522 32.6338L32.3248 39.0826C32.4994 40.0775 33.3683 40.7384 34.2539 40.5957C35.1974 40.4435 35.8699 39.5797 35.7148 38.6297C35.3814 36.5868 35.0198 34.5491 34.6763 32.5084C34.6524 32.3686 34.5271 31.6867 34.4133 31.0772C34.2915 30.4236 33.9024 29.8518 33.3393 29.4982L30.6522 27.8706C30.1674 27.693 29.9935 27.4343 30.0884 26.9872C30.137 26.7568 30.1964 26.5278 30.2435 26.2973L31.1812 21.0979L32.4284 22.511C33.1429 23.3588 33.7488 23.5016 34.7531 23.0479C36.1097 22.4356 37.4598 21.8088 38.7997 21.1616C39.836 20.6616 40.1969 19.7862 39.7925 18.8724C39.3744 17.9282 38.4287 17.6108 37.3591 18.0782C36.6373 18.3934 35.9039 18.6963 35.2213 19.084L34.5742 19.3435L31.474 16.3318C31.3385 16.1999 31.1936 16.0796 31.0428 15.968L28.6645 18.2304L28.8746 17.339L29.6326 16.7796C29.7863 16.6513 29.8384 16.4339 29.7515 16.2426C29.6993 16.1296 29.5986 16.047 29.4812 16.0049L28.5659 15.6716C28.4492 15.6288 28.3181 15.6267 28.2058 15.6803C28.0159 15.7694 27.9166 15.9709 27.9514 16.168L28.1717 17.084L27.7296 17.9594L27.1782 14.6962L21.5221 15.5129C21.0004 15.5883 20.5047 15.7926 20.0887 16.1158C18.7561 17.1499 17.2263 19.0993 16.2828 20.3906C15.5907 21.337 16.0038 22.7124 17.1241 23.0581C17.14 23.061 17.1582 23.0668 17.1763 23.0719Z" fill="white"/>
<path d="M13.1803 21.979L18.2965 25.3646C18.7951 25.6943 18.9335 26.3654 18.6067 26.8661L16.2269 30.5061C15.8964 31.0112 15.2181 31.1503 14.7152 30.817L9.48597 27.3444C8.97653 27.006 8.84609 26.3146 9.19756 25.8139L11.6911 22.2609C12.0288 21.779 12.689 21.6536 13.1803 21.979Z" fill="white"/>
</svg>
