<svg width="54" height="54" viewBox="0 0 54 54" fill="none" xmlns="http://www.w3.org/2000/svg">
<g clip-path="url(#clip0_2550_8119)">
<path d="M20.3897 45.04C18.2297 45.04 16.4697 43.28 16.4697 41.12V11.92C16.4697 9.76 18.2297 8 20.3897 8H37.2997C37.5297 8 37.7397 8.08 37.9097 8.24L44.8197 15.15C44.9797 15.31 45.0797 15.55 45.0597 15.76V41.11C45.0597 43.27 43.2997 45.03 41.1397 45.03H20.3897V45.04ZM20.3897 9.71C19.1697 9.71 18.1797 10.7 18.1797 11.92V41.1C18.1797 42.32 19.1697 43.31 20.3897 43.31H41.1297C41.7197 43.31 42.2697 43.08 42.6897 42.66C43.0997 42.25 43.3297 41.69 43.3297 41.1V16.53L40.3497 16.62C38.1897 16.62 36.4297 14.86 36.4297 12.7V9.64L20.3897 9.71ZM38.1397 12.69C38.1397 13.91 39.1297 14.9 40.3497 14.9H42.1597L38.1297 10.92V12.69H38.1397Z" fill="#1A1C1D"/>
<path d="M11.4398 44.14C11.1898 44.14 10.9698 43.96 10.8298 43.74L8.14977 39.62L8.07977 39.47C8.02977 39.33 8.00977 39.25 8.00977 39.15V14.77C8.00977 13.88 8.73977 13.15 9.62977 13.15H13.4798C13.9198 13.15 14.3298 13.32 14.6298 13.63C14.9398 13.94 15.0998 14.35 15.0898 14.78V39.16C15.0898 39.27 15.0098 39.36 14.9798 39.43L14.8798 39.59L12.2598 43.75C12.0998 43.99 11.8298 44.14 11.5398 44.14M11.5898 41.72L12.6998 39.98L10.4698 40.01L11.5798 41.72H11.5898ZM9.69977 19.47L9.71977 38.39L13.4598 38.3L13.3698 19.4L9.69977 19.47ZM9.69977 14.86L9.71977 17.84L13.4698 17.75L13.3798 14.79L9.69977 14.86Z" fill="#1A1C1D"/>
<path d="M20.3903 23.1599C19.9203 23.1599 19.5303 22.7799 19.5303 22.2999V17.6899C19.5303 17.2199 19.9203 16.8199 20.3903 16.8199H25.0003C25.4703 16.8199 25.8603 17.2099 25.8603 17.6899V22.2999C25.8603 22.7699 25.4803 23.1599 25.0003 23.1599H20.3903ZM21.2403 18.5499L21.2603 21.5299L24.2403 21.4399L24.1503 18.4799L21.2403 18.5499Z" fill="#1A1C1D"/>
<path d="M28.07 19.32C27.6 19.32 27.21 18.93 27.21 18.45C27.21 17.97 27.59 17.59 28.07 17.59H34.22C34.69 17.59 35.08 17.97 35.08 18.45C35.08 18.93 34.69 19.32 34.22 19.32H28.07Z" fill="#1A1C1D"/>
<path d="M28.07 22.3899C27.6 22.3899 27.21 21.9999 27.21 21.5199C27.21 21.0399 27.59 20.6599 28.07 20.6599H34.22C34.69 20.6599 35.08 21.0399 35.08 21.5199C35.08 21.9999 34.69 22.3899 34.22 22.3899H28.07Z" fill="#1A1C1D"/>
<path d="M20.3903 32.19C19.9203 32.19 19.5303 31.81 19.5303 31.33V26.72C19.5303 26.25 19.9203 25.85 20.3903 25.85H25.0003C25.4903 25.85 25.8603 26.22 25.8603 26.72V31.33C25.8603 31.8 25.4803 32.19 25.0003 32.19H20.3903ZM21.2403 27.58L21.2603 30.56L24.2403 30.47L24.1503 27.51L21.2403 27.58Z" fill="#1A1C1D"/>
<path d="M28.07 28.34C27.6 28.34 27.21 27.95 27.21 27.47C27.21 26.99 27.59 26.61 28.07 26.61H40.37C40.84 26.61 41.23 26.99 41.23 27.47C41.23 27.95 40.84 28.34 40.37 28.34H28.07Z" fill="#1A1C1D"/>
<path d="M28.07 31.4099C27.6 31.4099 27.21 31.0199 27.21 30.5399C27.21 30.0599 27.59 29.6799 28.07 29.6799H34.22C34.69 29.6799 35.08 30.0599 35.08 30.5399C35.08 31.0199 34.69 31.4099 34.22 31.4099H28.07Z" fill="#1A1C1D"/>
<path d="M20.3903 41.21C19.9203 41.21 19.5303 40.83 19.5303 40.35V35.74C19.5303 35.27 19.9103 34.89 20.3903 34.89H25.0003C25.4703 34.89 25.8603 35.27 25.8603 35.74V40.35C25.8603 40.82 25.4803 41.21 25.0003 41.21H20.3903ZM21.2403 36.6L21.2603 39.58L24.2403 39.49L24.1503 36.53L21.2403 36.6Z" fill="#1A1C1D"/>
<path d="M28.07 37.38C27.6 37.38 27.21 37 27.21 36.53C27.21 36.06 27.6 35.66 28.07 35.66H40.37C40.84 35.66 41.23 36.05 41.23 36.53C41.23 37.01 40.85 37.38 40.37 37.38H28.07Z" fill="#1A1C1D"/>
<path d="M28.07 40.45C27.6 40.45 27.21 40.07 27.21 39.59C27.21 39.11 27.6 38.72 28.07 38.72H34.21C34.69 38.72 35.08 39.11 35.08 39.59C35.08 40.07 34.7 40.45 34.22 40.45H28.07Z" fill="#1A1C1D"/>
</g>
<defs>
<clipPath id="clip0_2550_8119">
<rect width="37.07" height="37.15" fill="white" transform="translate(8 8)"/>
</clipPath>
</defs>
</svg>
