<svg width="54" height="54" viewBox="0 0 54 54" fill="none" xmlns="http://www.w3.org/2000/svg">
<path d="M12.3 45.12C9.93 45.12 8 43.19 8 40.82V12.3C8 9.93 9.93 8 12.3 8H32.87C35.24 8 37.17 9.93 37.17 12.3V22.96C37.22 23.44 36.87 23.87 36.39 23.91C35.88 23.91 35.49 23.59 35.45 23.13C35.45 23.08 35.45 23.02 35.45 22.97V12.3C35.45 10.89 34.31 9.75 32.9 9.75H12.3C10.9 9.75 9.74 10.88 9.72 12.27V40.84C9.72 42.25 10.86 43.39 12.27 43.39H25.73C26.21 43.39 26.59 43.78 26.59 44.25C26.59 44.73 26.2 45.11 25.73 45.11H12.3V45.12Z" fill="#29638A"/>
<path d="M14.03 18.46C13.58 18.46 13.21 18.12 13.17 17.68C13.15 17.45 13.22 17.23 13.36 17.05C13.51 16.87 13.71 16.76 13.94 16.74H31C31.22 16.76 31.43 16.87 31.57 17.05C31.72 17.23 31.79 17.45 31.76 17.68C31.72 18.09 31.39 18.42 30.98 18.46H14.12H14.02H14.03Z" fill="#29638A"/>
<path d="M14.15 23.25C13.67 23.25 13.29 22.86 13.29 22.39C13.29 21.92 13.68 21.53 14.15 21.53H23.44C23.92 21.53 24.3 21.92 24.3 22.39C24.3 22.86 23.91 23.25 23.44 23.25H14.15Z" fill="#29638A"/>
<path d="M14.0154 28.72C13.4487 28.72 13 28.33 13 27.86C13 27.39 13.4605 27 14.0154 27H24.9846C25.5513 27 26 27.39 26 27.86C26 28.33 25.5395 28.72 24.9846 28.72H14.0154Z" fill="#29638A"/>
<path d="M29.19 40.8301C28.84 40.8301 28.53 40.6001 28.44 40.2601C28.32 39.9201 28.46 39.5401 28.76 39.3601C28.85 39.2901 30.92 37.6701 30.92 32.4501C30.92 29.2201 33.55 26.5901 36.78 26.5901C40.01 26.5901 42.64 29.2201 42.64 32.4501C42.64 37.4501 44.58 39.1701 44.8 39.3501C45.1 39.5601 45.23 39.9301 45.12 40.2701C45.02 40.6101 44.71 40.8301 44.36 40.8301H29.19ZM36.7 28.0101C34.43 28.0101 32.57 29.7901 32.46 32.0601C32.46 32.1901 32.46 32.3201 32.46 32.4601C32.56 34.7301 32.05 37.0001 30.98 39.0201L30.9 39.1701L42.45 39.2301L42.41 39.0201C41.35 37.0001 40.84 34.7401 40.94 32.4601C40.99 31.3301 40.6 30.2401 39.84 29.4001C39.08 28.5601 38.03 28.0701 36.9 28.0201H36.7V28.0101Z" fill="#29638A"/>
<path d="M36.7 45.04C35.82 45.04 35 44.56 34.55 43.8C34.33 43.42 34.46 42.92 34.85 42.7C34.97 42.63 35.11 42.59 35.25 42.59C35.53 42.59 35.79 42.74 35.93 42.98C36.11 43.25 36.39 43.41 36.7 43.41C36.88 43.41 37.06 43.36 37.21 43.25C37.31 43.19 37.39 43.1 37.45 43.01C37.6 42.72 37.87 42.54 38.18 42.54C38.3 42.54 38.42 42.57 38.53 42.62C38.72 42.71 38.87 42.88 38.94 43.08C39.01 43.28 39 43.5 38.9 43.69C38.88 43.72 38.87 43.75 38.84 43.79C38.39 44.55 37.57 45.03 36.69 45.04H36.7Z" fill="#29638A"/>
</svg>
