<svg width="54" height="54" viewBox="0 0 54 54" fill="none" xmlns="http://www.w3.org/2000/svg">
<path d="M35.0499 41.3C34.5799 41.3 34.1899 40.91 34.1899 40.44V38.9C34.1899 38.43 34.5699 38.04 35.0499 38.04C35.5299 38.04 35.9099 38.43 35.9099 38.9V40.44C35.9099 40.91 35.5199 41.3 35.0499 41.3Z" fill="#29638A"/>
<path d="M32.7399 39.7598C32.2699 39.7598 31.8799 39.3798 31.8799 38.8998C31.8799 38.4198 32.2699 38.0398 32.7399 38.0398H35.4399C36.0299 38.0398 36.5099 37.5598 36.5099 36.9698C36.5099 36.3798 36.0299 35.8998 35.4399 35.8998H34.6699C33.1299 35.8998 31.8799 34.6498 31.8799 33.1098C31.8799 31.5698 33.1299 30.3198 34.6699 30.3198H37.3699C37.8399 30.3198 38.2299 30.7098 38.2299 31.1798C38.2299 31.6498 37.8499 32.0398 37.3699 32.0398H34.6699C34.0799 32.0398 33.5999 32.5198 33.5999 33.1098C33.5999 33.6998 34.0799 34.1798 34.6699 34.1798H35.4399C36.9799 34.1798 38.2199 35.4298 38.2199 36.9698C38.2199 38.5098 36.9699 39.7498 35.4399 39.7498H32.7399V39.7598Z" fill="#29638A"/>
<path d="M35.0499 32.06C34.5799 32.06 34.1899 31.6801 34.1899 31.2001V29.66C34.1899 29.19 34.5699 28.8 35.0499 28.8C35.5299 28.8 35.9099 29.19 35.9099 29.66V31.2001C35.9099 31.6701 35.5199 32.06 35.0499 32.06Z" fill="#29638A"/>
<path d="M35.0502 45.15C29.4802 45.15 24.9502 40.6199 24.9502 35.0499C24.9502 29.4799 29.4802 24.95 35.0502 24.95C40.6202 24.95 45.1502 29.4799 45.1502 35.0499C45.1502 40.6199 40.6202 45.15 35.0502 45.15ZM35.0502 26.66C30.4302 26.66 26.6702 30.42 26.6702 35.04C26.6702 39.66 30.4302 43.4199 35.0502 43.4199C39.6702 43.4199 43.4302 39.66 43.4302 35.04C43.4302 30.42 39.6702 26.66 35.0502 26.66Z" fill="#29638A"/>
<path d="M11.94 40.5301C9.77 40.5301 8 38.7601 8 36.5901V16.5601C8 14.3901 9.77 12.6201 11.94 12.6201H15.02C15.49 12.6201 15.88 13.0101 15.88 13.4801C15.88 13.9501 15.49 14.3401 15.02 14.3401H11.94C10.72 14.3401 9.72 15.3401 9.72 16.5601V36.5901C9.72 37.8101 10.72 38.8101 11.94 38.8101H22.72C23.19 38.8101 23.58 39.1901 23.58 39.6701C23.58 40.1501 23.19 40.5301 22.72 40.5301H11.94Z" fill="#29638A"/>
<path d="M16.5602 17.42C15.2402 17.42 14.1602 16.34 14.1602 15.02V11.94C14.1602 11.47 14.5502 11.08 15.0202 11.08H17.3302C17.7302 9.29 19.3402 8 21.1802 8C23.0202 8 24.6302 9.29 25.0302 11.08H27.3502C27.8202 11.08 28.2102 11.47 28.2102 11.94V15.02C28.2102 16.34 27.1302 17.42 25.8102 17.42H16.5702H16.5602ZM15.8802 15.02C15.8802 15.4 16.1902 15.7 16.5602 15.7H25.8002C26.1802 15.7 26.4802 15.39 26.4802 15.02V12.8H24.2602C23.7902 12.8 23.4002 12.41 23.4002 11.94C23.4002 10.71 22.4002 9.72 21.1802 9.72C19.9602 9.72 18.9602 10.72 18.9602 11.94C18.9602 12.41 18.5702 12.8 18.1002 12.8H15.8802V15.02Z" fill="#29638A"/>
<path d="M13.4801 22.0398C13.0101 22.0398 12.6201 21.6498 12.6201 21.1798C12.6201 20.7098 13.0101 20.3198 13.4801 20.3198H28.8801C29.3501 20.3198 29.7401 20.7098 29.7401 21.1798C29.7401 21.6498 29.3501 22.0398 28.8801 22.0398H13.4801Z" fill="#29638A"/>
<path d="M13.4801 26.6599C13.0101 26.6599 12.6201 26.2699 12.6201 25.7999C12.6201 25.3299 13.0101 24.9399 13.4801 24.9399H24.2601C24.7301 24.9399 25.1201 25.3299 25.1201 25.7999C25.1201 26.2699 24.7301 26.6599 24.2601 26.6599H13.4801Z" fill="#29638A"/>
<path d="M13.4801 31.2898C13.0101 31.2898 12.6201 30.8998 12.6201 30.4298C12.6201 29.9598 13.0101 29.5698 13.4801 29.5698H21.1801C21.6501 29.5698 22.0401 29.9498 22.0401 30.4298C22.0401 30.9098 21.6501 31.2898 21.1801 31.2898H13.4801Z" fill="#29638A"/>
<path d="M33.5102 22.0401C33.0402 22.0401 32.6502 21.6501 32.6502 21.1801V16.5601C32.6502 15.3401 31.6502 14.3401 30.4302 14.3401H27.3502C26.8802 14.3401 26.4902 13.9501 26.4902 13.4801C26.4902 13.0101 26.8802 12.6201 27.3502 12.6201H30.4302C32.6002 12.6201 34.3702 14.3901 34.3702 16.5601V21.1801C34.3702 21.6501 33.9802 22.0401 33.5102 22.0401Z" fill="#29638A"/>
<path d="M33.5101 21.95C33.0801 21.95 32.7401 21.6 32.7401 21.18V16.56C32.7401 15.29 31.7001 14.25 30.4301 14.25H27.3501C26.9201 14.25 26.5801 13.9 26.5801 13.48C26.5801 13.06 26.9301 12.71 27.3501 12.71H30.4301C32.5501 12.71 34.2801 14.44 34.2801 16.56V21.18C34.2801 21.61 33.9301 21.95 33.5101 21.95Z" fill="#29638A"/>
</svg>
