<svg width="54" height="54" viewBox="0 0 54 54" fill="none" xmlns="http://www.w3.org/2000/svg">
<g clip-path="url(#clip0_2571_9378)">
<path d="M15.16 45.65C13.69 45.65 12.5 44.46 12.5 42.99V11.16C12.5 9.69 13.69 8.5 15.16 8.5H33.11C33.31 8.5 33.62 8.66 33.72 8.76L41.08 16.07C41.25 16.24 41.34 16.5 41.34 16.68V42.99C41.34 44.46 40.15 45.65 38.68 45.65H15.16ZM15.16 10.22C14.64 10.22 14.22 10.63 14.22 11.14V42.98C14.22 43.49 14.64 43.9 15.16 43.9H38.68C39.2 43.9 39.62 43.49 39.62 42.98V17.45L33.12 17.54C32.64 17.54 32.25 17.15 32.25 16.67V10.15L15.17 10.22H15.16ZM33.97 15.9L38.43 15.82L33.97 11.43V15.9Z" fill="#1A1C1D"/>
<path d="M16.7704 33.71C16.2904 33.71 15.9004 33.32 15.9004 32.84C15.9004 32.36 16.2904 31.97 16.7704 31.97H37.0504C37.5304 31.97 37.9204 32.36 37.9204 32.84C37.9204 33.32 37.5304 33.71 37.0504 33.71H16.7704Z" fill="#1A1C1D"/>
<path d="M16.7704 30.1C16.2904 30.1 15.9004 29.71 15.9004 29.23C15.9004 28.75 16.2904 28.36 16.7704 28.36H37.0504C37.5304 28.36 37.9204 28.75 37.9204 29.23C37.9204 29.71 37.5304 30.1 37.0504 30.1H16.7704Z" fill="#1A1C1D"/>
<path d="M16.7704 26.49C16.2904 26.49 15.9004 26.1 15.9004 25.62C15.9004 25.14 16.2904 24.75 16.7704 24.75H37.0504C37.5304 24.75 37.9204 25.14 37.9204 25.62C37.9204 26.1 37.5304 26.49 37.0504 26.49H16.7704Z" fill="#1A1C1D"/>
<path d="M16.7704 22.87C16.2904 22.87 15.9004 22.48 15.9004 22C15.9004 21.52 16.2904 21.13 16.7704 21.13H37.0504C37.5304 21.13 37.9204 21.52 37.9204 22C37.9204 22.48 37.5304 22.87 37.0504 22.87H16.7704Z" fill="#1A1C1D"/>
<path d="M16.7704 37.5599C16.2904 37.5599 15.9004 37.1699 15.9004 36.6899C15.9004 36.2099 16.2904 35.8199 16.7704 35.8199H37.0504C37.5304 35.8199 37.9204 36.2099 37.9204 36.6899C37.9204 37.1699 37.5304 37.5599 37.0504 37.5599H16.7704Z" fill="#1A1C1D"/>
<path d="M16.7704 41.4199C16.3004 41.4199 15.9004 41.03 15.9004 40.57C15.9004 40.11 16.3004 39.7 16.7704 39.7H37.0504C37.5304 39.7 37.9204 40.09 37.9204 40.57C37.9204 41.05 37.5304 41.4199 37.0504 41.4199H16.7704Z" fill="#1A1C1D"/>
</g>
<defs>
<clipPath id="clip0_2571_9378">
<rect width="28.84" height="37.15" fill="white" transform="translate(12.5 8.5)"/>
</clipPath>
</defs>
</svg>
