<svg width="54" height="54" viewBox="0 0 54 54" fill="none" xmlns="http://www.w3.org/2000/svg">
<g clip-path="url(#clip0_2591_8057)">
<path d="M20.1498 29.36C19.6898 29.36 19.3098 28.98 19.2998 28.52C19.2998 28.05 19.6798 27.65 20.1398 27.64H31.5598C32.0198 27.64 32.3998 28.02 32.3998 28.48C32.3998 28.94 32.0198 29.36 31.5598 29.36H20.1498Z" fill="#1A1C1D"/>
<path d="M20.1503 31.82C19.6703 31.82 19.2803 31.43 19.2803 30.95C19.2803 30.47 19.6703 30.08 20.1503 30.08H28.7703C29.2503 30.08 29.6403 30.47 29.6403 30.95C29.6403 31.43 29.2503 31.82 28.7703 31.82H20.1503Z" fill="#1A1C1D"/>
<path d="M13.5702 32.24C13.0902 32.24 12.7002 31.85 12.7002 31.37V28.07C12.7002 27.59 13.0902 27.2 13.5702 27.2H16.8602C17.3402 27.2 17.7302 27.59 17.7302 28.07V31.37C17.7302 31.85 17.3402 32.24 16.8602 32.24H13.5702ZM14.4002 28.94L14.4402 30.58L16.0702 30.52L16.0102 28.93L14.4002 28.95V28.94Z" fill="#1A1C1D"/>
<path d="M20.1498 20.9101C19.6898 20.9001 19.3098 20.5201 19.2998 20.0601C19.2998 19.8201 19.3798 19.6001 19.5398 19.4401C19.7098 19.2701 19.9198 19.1801 20.1398 19.1801H31.5598C32.0298 19.1801 32.3998 19.5501 32.4098 20.0301C32.4098 20.2701 32.3298 20.4901 32.1698 20.6501C31.9998 20.8201 31.7898 20.9101 31.5698 20.9101H20.1498Z" fill="#1A1C1D"/>
<path d="M20.1498 23.37C19.6898 23.37 19.3098 22.99 19.2998 22.53C19.2998 22.29 19.3798 22.07 19.5398 21.91C19.7098 21.74 19.9198 21.65 20.1398 21.65H31.5598C32.0198 21.65 32.3998 22.03 32.4098 22.49C32.4098 22.73 32.3298 22.95 32.1698 23.11C31.9998 23.28 31.7898 23.37 31.5698 23.37H20.1498Z" fill="#1A1C1D"/>
<path d="M13.5802 23.78C13.3402 23.78 13.1102 23.69 12.9502 23.53C12.7902 23.37 12.7002 23.15 12.7002 22.92V19.63C12.7002 19.15 13.0902 18.76 13.5702 18.76H16.8702C17.3502 18.76 17.7402 19.15 17.7402 19.63V22.92C17.7402 23.4 17.3502 23.79 16.8702 23.79H13.5802V23.78ZM14.3902 20.48L14.4302 22.12L16.0602 22.06L16.0002 20.47L14.3902 20.49V20.48Z" fill="#1A1C1D"/>
<path d="M20.1496 37.81C19.6896 37.81 19.3096 37.43 19.3096 36.97C19.3096 36.73 19.3896 36.51 19.5496 36.36C19.7196 36.19 19.9296 36.1 20.1496 36.1H26.3096C26.7696 36.1 27.1496 36.48 27.1496 36.94C27.1496 37.18 27.0596 37.4 26.9096 37.55C26.7396 37.72 26.5296 37.81 26.3096 37.81H20.1496Z" fill="#1A1C1D"/>
<path d="M20.1703 40.2801C19.6903 40.2801 19.3203 39.9001 19.3203 39.4401C19.3203 38.9801 19.6903 38.5801 20.1603 38.5601H25.6503C26.1103 38.5601 26.4903 38.9401 26.5003 39.4001C26.5003 39.6401 26.4203 39.8601 26.2603 40.0201C26.0903 40.1901 25.8803 40.2801 25.6603 40.2801H20.1703Z" fill="#1A1C1D"/>
<path d="M13.57 40.7C13.34 40.69 13.11 40.6 12.96 40.44C12.8 40.28 12.71 40.06 12.71 39.84V36.54C12.71 36.06 13.1 35.67 13.58 35.67H16.88C17.36 35.67 17.75 36.06 17.75 36.54V39.84C17.75 40.32 17.36 40.71 16.88 40.71H13.58L13.57 40.7ZM14.4 37.4L14.44 39.04L16.07 38.98L16.01 37.39L14.4 37.41V37.4Z" fill="#1A1C1D"/>
<path d="M10.03 45.62C9.55 45.62 9.16 45.23 9.16 44.75V14.92C8.17 14.46 7.5 13.29 7.5 12.06C7.5 11.11 7.86 10.22 8.52 9.55C9.18 8.87 10.07 8.5 11 8.5H35.1C37.67 8.5 39.77 10.57 39.78 13.12V21.09L40.45 20.04C40.95 19.39 41.71 19.02 42.53 19.02C43.11 19.02 43.67 19.21 44.13 19.57L45.19 20.4C45.74 20.83 46.1 21.45 46.18 22.15C46.26 22.85 46.08 23.53 45.65 24.09C45.65 24.09 39.76 31.69 39.73 31.74L39.76 41C39.76 41.48 39.37 41.87 38.9 41.87H35.87L35.93 44.76C35.93 45.24 35.54 45.63 35.06 45.63H10.03V45.67V45.64V45.62ZM10.86 15.57L10.9 43.97L34.31 43.91L34.25 37.91L30.13 40.08C30.02 40.13 29.88 40.16 29.75 40.16H29.61C29.38 40.12 29.17 39.99 29.03 39.8C28.89 39.6 28.84 39.38 28.88 39.14L30.06 33.66C30.1 33.53 30.15 33.42 30.21 33.32L34.28 28.06L34.25 15.57L10.87 15.59L10.86 15.57ZM35.92 36.67L35.96 40.21L38.12 40.15L38.06 33.91L35.92 36.67ZM30.9 37.86L33.22 36.59L31.45 35.33L30.9 37.87V37.86ZM32.06 33.68L34.64 35.61L42.06 25.92L39.54 24.04L32.06 33.68ZM35.19 10.24C34.4 10.36 33.77 10.99 33.67 11.77C33.6 12.24 33.72 12.71 34.01 13.11C34.3 13.49 34.72 13.74 35.2 13.81C35.35 13.85 35.5 13.92 35.65 14.02C35.84 14.2 35.95 14.43 35.97 14.68V26.03L38.11 23.09L38.08 13.12C38.08 11.53 36.79 10.24 35.21 10.24L35.19 10.2V10.24ZM42.53 20.75C42.25 20.75 41.99 20.87 41.82 21.09L40.55 22.73L43.13 24.65L44.31 23.03C44.46 22.84 44.52 22.6 44.49 22.36C44.46 22.12 44.34 21.91 44.15 21.77L43.09 20.94C42.93 20.82 42.75 20.76 42.54 20.76L42.53 20.75ZM11 10.23C10.03 10.24 9.24 11.02 9.22 12.01C9.22 12.5 9.4 12.95 9.74 13.29C10.08 13.63 10.53 13.83 11.01 13.84H32.54C31.76 12.81 31.74 11.36 32.44 10.2L11.01 10.24L11 10.23Z" fill="#1A1C1D"/>
</g>
<defs>
<clipPath id="clip0_2591_8057">
<rect width="38.72" height="37.15" fill="white" transform="translate(7.5 8.5)"/>
</clipPath>
</defs>
</svg>
