<svg width="54" height="54" viewBox="0 0 54 54" fill="none" xmlns="http://www.w3.org/2000/svg">
<g clip-path="url(#clip0_2907_8837)">
<path d="M10.36 43.34C9.06 43.34 8 42.28 8 40.98V15.7C8 14.4 9.06 13.34 10.36 13.34H16.25L16.21 12.76C16.23 11.52 17.25 10.5 18.5 10.5C19.76 10.51 20.77 11.5 20.79 12.75V13.38L24.33 13.34L24.29 12.76C24.32 11.53 25.35 10.52 26.58 10.52C27.85 10.55 28.83 11.5 28.87 12.74V13.37L32.41 13.33L32.37 12.75C32.38 11.5 33.41 10.48 34.66 10.48C35.92 10.49 36.93 11.48 36.95 12.73V13.36L42.81 13.32C44.11 13.32 45.17 14.38 45.17 15.68V40.95C45.17 42.25 44.11 43.31 42.81 43.31H10.36V43.34ZM9.69 40.98C9.69 41.35 9.99 41.65 10.36 41.65H42.79C43.16 41.65 43.46 41.35 43.46 40.98V20.38L9.7 20.42V40.98H9.69ZM10.36 15.04C9.99 15.04 9.69 15.34 9.69 15.71V18.77L43.49 18.73L43.45 15.71C43.45 15.34 43.15 15.04 42.78 15.04H34.01L34.05 16.88C34.05 17.35 33.67 17.73 33.2 17.73C32.73 17.73 32.35 17.35 32.35 16.88V15L25.93 15.04L25.97 16.88C25.97 17.35 25.59 17.73 25.12 17.73C24.65 17.73 24.27 17.35 24.27 16.88V15L17.85 15.04L17.89 16.88C17.89 17.35 17.51 17.73 17.04 17.73C16.57 17.73 16.19 17.35 16.19 16.88V15L10.34 15.04H10.36ZM34.61 12.19C34.31 12.19 34.07 12.42 34.06 12.72V13.38L35.29 13.34L35.25 12.76C35.26 12.45 35.03 12.2 34.73 12.19H34.62H34.61ZM26.57 12.16C26.23 12.21 25.99 12.47 25.98 12.78V13.38L27.21 13.34L27.17 12.76C27.17 12.44 26.91 12.16 26.59 12.16H26.57ZM18.47 12.19C18.17 12.19 17.93 12.42 17.92 12.72V13.38L19.15 13.34L19.11 12.76C19.11 12.61 19.06 12.47 18.97 12.36C18.87 12.25 18.74 12.19 18.59 12.19H18.48H18.47ZM26.57 39.94C26.1 39.94 25.72 39.56 25.72 39.09V37.6C24.55 37.52 23.4 37.06 22.45 36.31L21.46 37.34C21.3 37.49 21.09 37.58 20.87 37.58C20.64 37.58 20.42 37.49 20.26 37.32C19.94 36.99 19.94 36.47 20.26 36.14L21.31 35.11C20.55 34.23 20.07 33.05 19.94 31.85L18.5 31.89C18.03 31.89 17.65 31.51 17.65 31.04C17.65 30.57 18.03 30.19 18.5 30.19H20.01C20.14 29.04 20.61 27.9 21.32 26.94L20.26 25.93C20.1 25.77 20.01 25.55 20.02 25.33C20.02 25.1 20.11 24.89 20.27 24.73C20.43 24.57 20.64 24.49 20.86 24.49C21.08 24.49 21.29 24.58 21.45 24.73L22.49 25.77C23.37 25.01 24.55 24.52 25.75 24.39L25.71 22.97C25.71 22.5 26.09 22.12 26.56 22.12C27.03 22.12 27.41 22.5 27.41 22.97V24.44C28.58 24.55 29.72 25.02 30.67 25.78L31.67 24.73C31.83 24.57 32.04 24.49 32.26 24.49C32.48 24.49 32.71 24.58 32.86 24.74C33.18 25.07 33.18 25.6 32.86 25.92L31.8 26.98C32.55 27.88 33.03 29.02 33.18 30.22L34.63 30.19C35.1 30.19 35.48 30.57 35.48 31.04C35.48 31.51 35.1 31.89 34.63 31.89H33.14C33.03 33.06 32.55 34.2 31.8 35.16L32.85 36.15C33.01 36.31 33.1 36.53 33.1 36.75C33.1 36.98 33.01 37.19 32.85 37.35C32.69 37.51 32.48 37.59 32.26 37.59C32.04 37.59 31.83 37.51 31.67 37.35L30.62 36.32C29.72 37.07 28.57 37.53 27.36 37.65L27.4 39.1C27.4 39.57 27.02 39.95 26.55 39.95L26.57 39.94ZM26.57 26.04C25.24 26.04 23.98 26.58 23.05 27.53C22.11 28.48 21.6 29.74 21.61 31.08C21.61 32.43 22.18 33.73 23.15 34.66C24.04 35.52 25.21 35.99 26.44 35.99H26.57C29.96 35.92 31.51 33.39 31.51 31.08C31.51 28.72 29.97 26.14 26.57 26.05V26.04ZM38 39.63C37.53 39.63 37.15 39.25 37.15 38.78V35.33C37.15 34.86 37.53 34.48 38 34.48H41.44C41.91 34.48 42.29 34.86 42.29 35.33V38.78C42.29 39.01 42.2 39.22 42.04 39.38C41.88 39.54 41.67 39.63 41.44 39.63H37.99H38ZM38.85 37.98L40.64 37.94L40.6 36.15L38.85 36.19V37.98ZM11.73 39.63C11.26 39.63 10.88 39.25 10.88 38.78V35.33C10.88 34.86 11.26 34.48 11.73 34.48H15.17C15.64 34.48 16.02 34.86 16.02 35.33V38.78C16.02 39.25 15.64 39.63 15.17 39.63H11.72H11.73ZM12.58 37.98L14.37 37.94L14.33 36.15L12.58 36.19V37.98ZM38 33.44C37.53 33.44 37.15 33.06 37.15 32.59V29.14C37.15 28.67 37.53 28.29 38 28.29H41.44C41.91 28.29 42.29 28.67 42.29 29.14V32.58C42.29 32.81 42.2 33.02 42.04 33.18C41.88 33.34 41.67 33.43 41.44 33.43H37.99L38 33.44ZM38.85 31.79L40.64 31.75L40.6 29.96L38.85 30V31.79ZM11.73 33.44C11.26 33.44 10.88 33.06 10.88 32.59V29.14C10.88 28.67 11.26 28.29 11.73 28.29H15.17C15.64 28.29 16.02 28.67 16.02 29.14V32.58C16.02 33.05 15.64 33.43 15.17 33.43H11.72L11.73 33.44ZM12.58 31.79L14.37 31.75L14.33 29.96L12.58 30V31.79ZM38 27.25C37.53 27.25 37.15 26.87 37.15 26.4V22.95C37.15 22.48 37.53 22.1 38 22.1H41.44C41.67 22.1 41.88 22.19 42.04 22.35C42.2 22.51 42.29 22.72 42.29 22.95V26.39C42.29 26.62 42.2 26.83 42.04 26.99C41.88 27.15 41.67 27.24 41.44 27.24H37.99L38 27.25ZM38.85 25.6L40.64 25.56L40.6 23.77L38.85 23.81V25.6ZM11.73 27.25C11.26 27.25 10.88 26.87 10.88 26.4V22.95C10.88 22.48 11.26 22.1 11.73 22.1H15.17C15.4 22.1 15.61 22.19 15.77 22.35C15.93 22.51 16.02 22.72 16.02 22.95V26.39C16.02 26.86 15.64 27.24 15.17 27.24H11.72L11.73 27.25ZM12.58 25.6L14.37 25.56L14.33 23.77L12.58 23.81V25.6Z" fill="#29638A"/>
</g>
<defs>
<clipPath id="clip0_2907_8837">
<rect width="37.15" height="32.84" fill="white" transform="translate(8 10.5)"/>
</clipPath>
</defs>
</svg>
