<svg width="54" height="54" viewBox="0 0 54 54" fill="none" xmlns="http://www.w3.org/2000/svg">
<path d="M11.996 25.3795C11.996 21.1064 11.996 16.8213 11.996 12.5481C11.996 10.5556 13.2683 8.97117 15.2128 8.51505C15.5609 8.43103 15.933 8.39502 16.2931 8.39502C21.0704 8.39502 25.8357 8.39502 30.6009 8.39502C31.8733 8.39502 32.9535 8.82713 33.8538 9.72737C35.2582 11.1438 36.6745 12.5601 38.1029 13.9765C39.0152 14.8767 39.4713 15.957 39.4593 17.2534C39.4353 20.6623 39.4593 24.0712 39.4593 27.4801C39.4593 27.5881 39.4593 27.7082 39.4593 27.8162C39.4353 28.2483 39.1232 28.5724 38.6911 28.6084C38.319 28.6444 37.9469 28.3923 37.8268 28.0082C37.7548 27.8042 37.7668 27.5881 37.7668 27.3721C37.7668 24.0592 37.7668 20.7583 37.7668 17.4454C37.7668 17.2774 37.7548 17.1213 37.7668 16.9533C37.7908 16.6412 37.6588 16.5332 37.3467 16.5452C36.2664 16.5572 35.1861 16.5452 34.1059 16.5452C32.3534 16.5452 31.3451 15.5369 31.3451 13.7725C31.3451 12.7042 31.3331 11.6359 31.3451 10.5676C31.3451 10.2075 31.2011 10.0875 30.889 10.0755C30.793 10.0755 30.6849 10.0755 30.5889 10.0755C25.8357 10.0755 21.0704 10.0755 16.3171 10.0755C14.9368 10.0755 14.0005 10.7957 13.7484 12.044C13.7124 12.224 13.7124 12.4161 13.7124 12.6081C13.7124 21.1064 13.7124 29.5927 13.7124 38.0909C13.7124 39.6153 14.7087 40.6116 16.2451 40.6116C19.0418 40.6116 21.8266 40.6116 24.6233 40.6116C25.3675 40.6116 25.7756 40.9117 25.7756 41.4518C25.7756 42.004 25.3675 42.304 24.6353 42.304C21.8266 42.304 19.0178 42.304 16.2211 42.304C13.7724 42.316 11.996 40.5516 11.996 38.1029C11.996 33.8658 11.996 29.6167 11.996 25.3795ZM36.4225 14.8527C35.3062 13.7244 34.1659 12.5841 33.0256 11.4438C33.0256 12.3201 33.0136 13.2323 33.0256 14.1566C33.0256 14.5407 33.3256 14.8407 33.7458 14.8527C34.658 14.8767 35.5702 14.8527 36.4105 14.8527H36.4225Z" fill="#29638A"/>
<path d="M34.658 29.3645C39.1112 29.3765 42.7242 33.0135 42.6882 37.5147C42.6521 41.7998 39.2552 45.5208 34.562 45.5448C30.0728 45.5688 26.4718 41.8719 26.4958 37.3467C26.5079 32.9295 30.1688 29.3525 34.658 29.3645ZM34.61 31.057C31.0451 31.057 28.2003 33.8897 28.2003 37.4427C28.2003 40.6595 30.697 43.8404 34.622 43.8284C38.439 43.8284 41.0077 40.7196 40.9957 37.4307C40.9957 33.8897 38.1509 31.045 34.61 31.045V31.057Z" fill="#29638A"/>
<path d="M28.9325 22.1746C27.084 22.1746 25.2355 22.1746 23.387 22.1746C22.8108 22.1746 22.4628 21.8145 22.4988 21.2864C22.5228 20.9143 22.7148 20.6742 23.0509 20.5542C23.255 20.4822 23.471 20.4822 23.6871 20.4822C27.204 20.4822 30.733 20.4822 34.2499 20.4822C34.3819 20.4822 34.526 20.4822 34.658 20.5062C35.1501 20.5902 35.4742 20.9743 35.4262 21.4184C35.3902 21.8625 35.0181 22.1746 34.502 22.1746C33.2296 22.1746 31.9573 22.1746 30.6849 22.1746C30.0968 22.1746 29.4966 22.1746 28.9085 22.1746H28.9325Z" fill="#29638A"/>
<path d="M20.9505 21.3344C20.9505 21.5624 20.9505 21.7905 20.9505 22.0185C20.9505 23.0148 20.3864 23.687 19.4141 23.783C18.802 23.843 18.1778 23.843 17.5656 23.783C16.6894 23.711 16.1252 23.1468 16.0412 22.2826C15.9692 21.6104 15.9452 20.9263 16.0652 20.2541C16.2093 19.4379 16.8454 18.8977 17.6737 18.8857C18.2138 18.8737 18.7539 18.8737 19.2941 18.8857C20.2303 18.9097 20.9265 19.6059 20.9505 20.5422C20.9505 20.8062 20.9505 21.0703 20.9505 21.3344ZM18.5019 20.5782C17.5776 20.5902 17.7217 20.4581 17.7097 21.3824C17.7097 22.2226 17.6016 22.1146 18.4539 22.1146C19.3661 22.1146 19.2461 22.2466 19.2461 21.3104C19.2461 20.4821 19.3421 20.5782 18.5019 20.5782Z" fill="#29638A"/>
<path d="M20.9505 27.756C20.9505 28.0201 20.9505 28.2841 20.9505 28.5482C20.9265 29.5325 20.2303 30.2167 19.246 30.2407C18.7659 30.2407 18.2858 30.2407 17.8177 30.2407C16.8334 30.2407 16.1492 29.6765 16.0532 28.7043C15.9932 28.0921 15.9932 27.4679 16.0532 26.8558C16.1252 26.0035 16.6774 25.4394 17.5176 25.3434C18.1898 25.2593 18.8739 25.2473 19.5461 25.3554C20.4103 25.4874 20.9385 26.1356 20.9505 26.9998C20.9505 27.2519 20.9505 27.5039 20.9505 27.756ZM17.7096 27.732C17.7216 28.6442 17.5776 28.5242 18.5018 28.5362C19.3421 28.5362 19.246 28.6322 19.246 27.792C19.246 26.8678 19.3661 26.9998 18.4538 26.9998C17.6016 26.9998 17.7216 26.8918 17.7096 27.732Z" fill="#29638A"/>
<path d="M18.4891 36.6624C18.2491 36.6624 18.009 36.6624 17.7689 36.6624C16.7247 36.6624 16.0405 36.0023 16.0045 34.958C15.9925 34.4539 15.9805 33.9497 16.0045 33.4456C16.0405 32.4253 16.7367 31.7771 17.7569 31.7651C18.2851 31.7651 18.8132 31.7651 19.3413 31.7651C20.1816 31.7771 20.8898 32.4373 20.9258 33.2775C20.9618 33.8897 20.9618 34.5139 20.9258 35.126C20.8778 36.0143 20.1696 36.6384 19.2693 36.6504C19.0053 36.6504 18.7412 36.6504 18.4771 36.6504L18.4891 36.6624ZM18.4531 34.97C19.3413 34.97 19.2453 35.054 19.2453 34.2258C19.2453 33.3856 19.3534 33.4696 18.4771 33.4696C17.5889 33.4696 17.7089 33.3856 17.7089 34.2258C17.7089 35.042 17.6009 34.958 18.4531 34.958V34.97Z" fill="#29638A"/>
<path d="M21.6943 15.7408C20.1458 15.7408 18.5974 15.7408 17.049 15.7408C16.7009 15.7408 16.4009 15.6688 16.1848 15.3687C15.8367 14.8766 16.1008 14.2044 16.7009 14.0604C16.821 14.0364 16.953 14.0364 17.073 14.0364C20.1699 14.0364 23.2547 14.0364 26.3515 14.0364C26.9157 14.0364 27.2878 14.3004 27.3598 14.7446C27.4438 15.3087 27.0477 15.7288 26.4115 15.7288C24.8391 15.7288 23.2667 15.7288 21.6943 15.7288V15.7408Z" fill="#29638A"/>
<path d="M26.9523 26.9519C28.1046 26.9519 29.2689 26.9519 30.4212 26.9519C31.0214 26.9519 31.3815 27.264 31.4055 27.7562C31.4175 28.2603 31.0214 28.6324 30.4332 28.6324C28.1166 28.6324 25.812 28.6324 23.4954 28.6324C23.3873 28.6324 23.2673 28.6204 23.1593 28.5844C22.6912 28.4764 22.4391 28.1163 22.4991 27.6361C22.5471 27.216 22.8712 26.9399 23.3393 26.9399C24.5396 26.9399 25.752 26.9399 26.9523 26.9399V26.9519Z" fill="#29638A"/>
<path d="M23.95 35.0657C23.722 35.0657 23.494 35.0777 23.266 35.0657C22.798 35.0297 22.474 34.6577 22.486 34.2137C22.486 33.7817 22.81 33.4217 23.266 33.3857C23.734 33.3617 24.202 33.3617 24.658 33.3857C25.138 33.4097 25.462 33.7817 25.474 34.2137C25.474 34.6577 25.15 35.0177 24.67 35.0537C24.43 35.0777 24.19 35.0537 23.95 35.0537V35.0657Z" fill="#29638A"/>
<path d="M37.0339 38.9071C36.9979 39.7113 36.6018 40.3474 35.8456 40.7315C35.5455 40.8876 35.4135 41.0316 35.4255 41.3797C35.4375 41.9319 35.0774 42.304 34.5973 42.316C34.1051 42.316 33.733 41.9439 33.745 41.3677C33.745 41.0556 33.637 40.9116 33.3609 40.8276C33.0609 40.7315 32.7848 40.5755 32.5327 40.3715C32.1126 40.0474 32.0286 39.5552 32.3047 39.1711C32.5927 38.763 33.0969 38.691 33.529 39.0151C33.8891 39.2792 34.2732 39.4232 34.7293 39.3392C34.9934 39.2912 35.2574 39.2191 35.3055 38.9311C35.3655 38.631 35.0774 38.547 34.8613 38.4509C34.3332 38.1869 33.757 38.0308 33.2529 37.7187C32.5567 37.2986 32.1006 36.7345 32.1486 35.8823C32.1966 35.042 32.6167 34.4299 33.3609 34.0698C33.637 33.9377 33.745 33.7817 33.745 33.4696C33.745 32.9415 34.0931 32.5814 34.5733 32.5694C35.0534 32.5574 35.4375 32.9295 35.4255 33.4696C35.4255 33.7817 35.5335 33.9137 35.8216 34.0098C36.1337 34.1058 36.4097 34.2858 36.6738 34.4899C37.1179 34.838 37.202 35.2941 36.9139 35.7142C36.6258 36.1103 36.1217 36.1823 35.6775 35.8462C35.2454 35.5222 34.8013 35.3661 34.2732 35.5342C34.0691 35.5942 33.8891 35.6902 33.8651 35.9303C33.8411 36.1703 34.0331 36.2544 34.2012 36.3264C34.7173 36.5664 35.2454 36.7705 35.7496 37.0226C36.5058 37.3947 37.0099 37.9708 37.0339 38.9191V38.9071Z" fill="#29638A"/>
</svg>
