<svg width="132" height="132" viewBox="0 0 132 132" fill="none" xmlns="http://www.w3.org/2000/svg">
    <rect width="132" height="132" rx="66" fill="#fff"/>
    <g fill-rule="evenodd">
        <path d="M47.427 56.322a2.188 2.188 0 1 1 0-4.375 2.188 2.188 0 0 1 0 4.375m12.188 0a2.188 2.188 0 1 1 0-4.375 2.188 2.188 0 0 1 0 4.375m12.188 0a2.187 2.187 0 1 1 0-4.374 2.187 2.187 0 0 1 0 4.374M95.25 92.927l-10.216-7.163a5.04 5.04 0 0 0-2.986-.942h-31.8a.733.733 0 0 1-.727-.726V72.868l.235-.014q.098-.006.196-.005h31.8a3.23 3.23 0 0 0 3.226-3.228V52.395h9.545a.733.733 0 0 1 .727.726z" fill="#57CC99"/>
        <path d="M71.802 52.197a1.937 1.937 0 1 1 0 3.875 1.937 1.937 0 0 1 0-3.875m0 6.875a4.937 4.937 0 1 0-.001-9.875 4.937 4.937 0 0 0 .001 9.875m-12.187-6.875a1.937 1.937 0 1 1 0 3.875 1.937 1.937 0 0 1 0-3.875m0 6.875a4.938 4.938 0 1 0 0-9.875 4.938 4.938 0 0 0 0 9.875M45.49 54.135a1.937 1.937 0 1 1 3.875 0 1.937 1.937 0 0 1-3.875 0m6.875 0a4.937 4.937 0 1 0-9.875 0 4.937 4.937 0 0 0 9.875 0M95 92.446V53.121a.483.483 0 0 0-.476-.476H85.23v16.976a3.48 3.48 0 0 1-3.476 3.478h-31.8q-.094 0-.181.005v10.992a.483.483 0 0 0 .476.477h31.8a5.3 5.3 0 0 1 3.13.987zM37 38.647v39.324l9.822-6.885a5.3 5.3 0 0 1 3.13-.987h31.8a.484.484 0 0 0 .477-.478V38.647a.48.48 0 0 0-.476-.476H37.476a.48.48 0 0 0-.476.476m57.524 10.998h-9.295V38.647a3.48 3.48 0 0 0-3.476-3.476H37.476A3.48 3.48 0 0 0 34 38.647v42.208a1.5 1.5 0 0 0 2.36 1.229l10.412-7.298v9.31a3.48 3.48 0 0 0 3.476 3.477h31.8c.505-.012 1 .144 1.407.443l12.184 8.542A1.5 1.5 0 0 0 98 95.328V53.122a3.48 3.48 0 0 0-3.476-3.476" fill="#29638A"/>
    </g>
</svg>
