<svg width="54" height="54" viewBox="0 0 54 54" fill="none" xmlns="http://www.w3.org/2000/svg">
<g clip-path="url(#clip0_2907_8868)">
<path d="M14.63 45.15C13.18 45.14 12 43.95 12 42.5V10.63C12 9.18 13.18 8 14.63 8H38.78C40.23 8 41.41 9.18 41.41 10.63V42.51C41.41 43.96 40.23 45.15 38.78 45.15H14.63ZM14.63 9.75C14.14 9.75 13.74 10.15 13.74 10.63V42.51C13.74 43.01 14.13 43.4 14.63 43.4H38.78C39.28 43.4 39.67 43.01 39.67 42.51V10.63C39.67 10.14 39.27 9.75 38.78 9.75H14.63Z" fill="#29638A"/>
<path d="M29.76 37.4801C29.43 37.4801 29.15 37.3001 29 36.9801L28.14 35.1701L25.23 35.1901L24.4 36.9701C24.25 37.2801 23.95 37.4701 23.62 37.4701C23.48 37.4701 23.35 37.4401 23.25 37.3801C22.82 37.1701 22.63 36.6501 22.84 36.2201L25.92 29.8201C26.06 29.5301 26.36 29.3501 26.7 29.3501C27.04 29.3501 27.35 29.5301 27.48 29.8201L30.56 36.2201C30.7 36.5101 30.68 36.8001 30.52 37.0501C30.36 37.3001 30.06 37.4701 29.74 37.4701L29.76 37.4801ZM27.4 33.4901L26.68 32.1401L26.1 33.4901H27.4Z" fill="#29638A"/>
<path d="M26.7 41.26C22.37 41.26 18.84 37.73 18.84 33.4C18.84 29.07 22.37 25.54 26.7 25.54C31.03 25.54 34.56 29.07 34.56 33.4C34.56 37.73 31.03 41.26 26.7 41.26ZM26.7 27.28C23.33 27.28 20.59 30.02 20.59 33.39C20.59 36.76 23.33 39.5 26.7 39.5C30.07 39.5 32.82 36.76 32.82 33.39C32.82 30.02 30.08 27.28 26.7 27.28Z" fill="#29638A"/>
<path d="M18.5501 13.6101C18.0601 13.6101 17.6801 13.2301 17.6801 12.7401C17.6801 12.2501 18.0601 11.8701 18.5501 11.8701H34.8501C35.3401 11.8701 35.7201 12.2501 35.7201 12.7401C35.7201 13.2301 35.3401 13.6101 34.8501 13.6101H18.5501Z" fill="#29638A"/>
<path d="M18.5501 18.4199C18.0601 18.4199 17.6801 18.0399 17.6801 17.5499C17.6801 17.0599 18.0601 16.6799 18.5501 16.6799H27.9401C28.4301 16.6799 28.8101 17.0599 28.8101 17.5499C28.8101 18.0399 28.4301 18.4199 27.9401 18.4199H18.5501Z" fill="#29638A"/>
<path d="M18.5501 23.22C18.0601 23.22 17.6801 22.84 17.6801 22.35C17.6801 21.86 18.0601 21.48 18.5501 21.48H31.6701C32.1601 21.48 32.5401 21.86 32.5401 22.35C32.5401 22.84 32.1601 23.22 31.6701 23.22H18.5501Z" fill="#29638A"/>
</g>
<defs>
<clipPath id="clip0_2907_8868">
<rect width="29.4" height="37.15" fill="white" transform="translate(12 8)"/>
</clipPath>
</defs>
</svg>
