<svg width="54" height="54" viewBox="0 0 54 54" fill="none" xmlns="http://www.w3.org/2000/svg">
<path d="M12.7949 45.15C11.8649 45.15 10.9549 44.72 10.3749 44C9.9649 43.49 9.8849 42.8 10.1649 42.2C10.4549 41.58 11.0649 41.2 11.7449 41.2H14.2249L14.2649 13.07C14.2649 12.11 15.0449 11.34 15.9949 11.34H17.5649L17.6049 10.1C17.6049 8.94 18.5449 8 19.7049 8H41.5049C42.6649 8 43.6049 8.94 43.6049 10.1V39.7C43.6049 40.86 42.6649 41.8 41.5049 41.8H40.3049L40.2649 42.02C40.2649 43.71 38.9449 45.08 37.2449 45.14H37.1449H12.7949V45.15ZM38.5049 13.03L16.0049 12.99L15.9249 41.16L34.0849 41.2C34.8449 41.2 35.5149 41.71 35.7549 42.46C35.8249 42.69 35.9549 42.9 36.1149 43.06C36.3949 43.34 36.7549 43.49 37.1449 43.49C37.9549 43.49 38.6149 42.83 38.6149 42.02V13.07M11.6549 42.94C11.9449 43.3 12.3549 43.5 12.7949 43.5H34.3349C34.2949 43.29 34.2249 43.12 34.1749 42.96L11.7149 42.86L11.6649 42.94H11.6549ZM19.7149 9.65C19.4649 9.65 19.2649 9.85 19.2649 10.1V11.3L38.5449 11.34C39.5049 11.34 40.2749 12.12 40.2749 13.07V40.12L41.5149 40.16C41.7649 40.16 41.9649 39.96 41.9649 39.71V10.1C41.9649 9.85 41.7649 9.65 41.5149 9.65H19.7149Z" fill="#29638A"/>
<path d="M27.2749 22.9901C27.0849 22.9901 26.9349 22.8401 26.9349 22.6501V22.4401L26.3349 22.4001C26.1449 22.4001 25.9949 22.2501 25.9949 22.0601C25.9949 21.8701 26.1449 21.7201 26.3349 21.7201H27.5049C27.7049 21.7201 27.8749 21.5601 27.8749 21.3501C27.8749 21.1401 27.7149 20.9801 27.5049 20.9801H27.0349C26.4549 20.9801 25.9949 20.5101 25.9949 19.9401C25.9949 19.4201 26.3849 18.9801 26.8949 18.9101L26.9249 18.6501C26.9249 18.4601 27.0749 18.3101 27.2649 18.3101C27.4549 18.3101 27.6049 18.4601 27.6049 18.6501V18.8601L28.2049 18.9001C28.3949 18.9001 28.5449 19.0501 28.5449 19.2401C28.5449 19.4301 28.3949 19.5801 28.2049 19.5801H27.0349C26.8349 19.5801 26.6649 19.7401 26.6649 19.9501C26.6649 20.1601 26.8249 20.3201 27.0349 20.3201H27.5049C28.0849 20.3201 28.5449 20.7901 28.5449 21.3601C28.5449 21.8801 28.1549 22.3201 27.6449 22.3901L27.6149 22.6501C27.6149 22.8401 27.4649 22.9901 27.2749 22.9901Z" fill="#29638A"/>
<path d="M22.0249 30.0499C21.5649 30.0499 21.1949 29.6799 21.1949 29.2199C21.1949 28.7599 21.5649 28.3899 22.0249 28.3899H36.0449C36.5049 28.3899 36.8749 28.7599 36.8749 29.2199C36.8749 29.6799 36.5049 30.0499 36.0449 30.0499H22.0249Z" fill="#29638A"/>
<path d="M18.5049 30.0499C18.0449 30.0499 17.6749 29.6799 17.6749 29.2199C17.6749 28.7599 18.0449 28.3899 18.5049 28.3899H19.0449C19.5049 28.3899 19.8749 28.7599 19.8749 29.2199C19.8749 29.6799 19.5049 30.0499 19.0449 30.0499H18.5049Z" fill="#29638A"/>
<path d="M22.0249 33.2701C21.5649 33.2701 21.1949 32.9001 21.1949 32.4401C21.1949 31.9801 21.5649 31.6101 22.0249 31.6101H36.0449C36.5049 31.6101 36.8749 31.9801 36.8749 32.4401C36.8749 32.9001 36.5049 33.2701 36.0449 33.2701H22.0249Z" fill="#29638A"/>
<path d="M18.5049 33.2701C18.0449 33.2701 17.6749 32.9001 17.6749 32.4401C17.6749 31.9801 18.0449 31.6101 18.5049 31.6101H19.0449C19.5049 31.6101 19.8749 31.9801 19.8749 32.4401C19.8749 32.9001 19.5049 33.2701 19.0449 33.2701H18.5049Z" fill="#29638A"/>
<path d="M22.0249 36.5001C21.5649 36.5001 21.1949 36.1301 21.1949 35.6701C21.1949 35.2101 21.5649 34.8401 22.0249 34.8401H36.0449C36.5049 34.8401 36.8749 35.2101 36.8749 35.6701C36.8749 36.1301 36.5049 36.5001 36.0449 36.5001H22.0249Z" fill="#29638A"/>
<path d="M18.5049 36.5001C18.0449 36.5001 17.6749 36.1301 17.6749 35.6701C17.6749 35.2101 18.0449 34.8401 18.5049 34.8401H19.0449C19.5049 34.8401 19.8749 35.2101 19.8749 35.6701C19.8749 36.1301 19.5049 36.5001 19.0449 36.5001H18.5049Z" fill="#29638A"/>
<path d="M22.0249 39.7201C21.5649 39.7201 21.1949 39.3501 21.1949 38.8901C21.1949 38.4301 21.5649 38.0601 22.0249 38.0601H36.0449C36.5049 38.0601 36.8749 38.4301 36.8749 38.8901C36.8749 39.3501 36.5049 39.7201 36.0449 39.7201H22.0249Z" fill="#29638A"/>
<path d="M18.5049 39.7201C18.0449 39.7201 17.6749 39.3501 17.6749 38.8901C17.6749 38.4301 18.0449 38.0601 18.5049 38.0601H19.0449C19.5049 38.0601 19.8749 38.4301 19.8749 38.8901C19.8749 39.3501 19.5049 39.7201 19.0449 39.7201H18.5049Z" fill="#29638A"/>
<path d="M27.2749 26.34C24.1349 26.34 21.5849 23.79 21.5849 20.65C21.5849 17.51 24.1349 14.96 27.2749 14.96C30.4149 14.96 32.9649 17.51 32.9649 20.65C32.9649 23.79 30.4149 26.34 27.2749 26.34ZM27.2749 15.64C24.5149 15.64 22.2649 17.89 22.2649 20.65C22.2649 23.41 24.5149 25.66 27.2749 25.66C30.0349 25.66 32.2849 23.41 32.2849 20.65C32.2849 17.89 30.0349 15.64 27.2749 15.64Z" fill="#29638A"/>
<path d="M27.2749 24.7301C25.0249 24.7301 23.1949 22.9001 23.1949 20.6501C23.1949 18.4001 25.0249 16.5701 27.2749 16.5701C29.5249 16.5701 31.3549 18.4001 31.3549 20.6501C31.3549 22.9001 29.5249 24.7301 27.2749 24.7301ZM27.2749 17.2501C25.3949 17.2501 23.8749 18.7801 23.8749 20.6501C23.8749 22.5201 25.4049 24.0501 27.2749 24.0501C29.1449 24.0501 30.6749 22.5201 30.6749 20.6501C30.6749 18.7801 29.1449 17.2501 27.2749 17.2501Z" fill="#29638A"/>
</svg>
