<svg width="54" height="54" viewBox="0 0 54 54" fill="none" xmlns="http://www.w3.org/2000/svg">
<path d="M11.9961 25.3795C11.9961 21.1064 11.9961 16.8213 11.9961 12.5481C11.9961 10.5556 13.2684 8.97117 15.2129 8.51505C15.561 8.43103 15.9331 8.39502 16.2932 8.39502C21.0705 8.39502 25.8358 8.39502 30.601 8.39502C31.8734 8.39502 32.9537 8.82713 33.8539 9.72737C35.2583 11.1438 36.6747 12.5601 38.103 13.9765C39.0153 14.8767 39.4714 15.957 39.4594 17.2534C39.4354 20.6623 39.4594 24.0712 39.4594 27.4801C39.4594 27.5881 39.4594 27.7082 39.4594 27.8162C39.4354 28.2483 39.1233 28.5724 38.6912 28.6084C38.3191 28.6444 37.947 28.3923 37.827 28.0082C37.7549 27.8042 37.767 27.5881 37.767 27.3721C37.767 24.0592 37.767 20.7583 37.767 17.4454C37.767 17.2774 37.7549 17.1213 37.767 16.9533C37.791 16.6412 37.6589 16.5332 37.3468 16.5452C36.2666 16.5572 35.1863 16.5452 34.106 16.5452C32.3535 16.5452 31.3452 15.5369 31.3452 13.7725C31.3452 12.7042 31.3332 11.6359 31.3452 10.5676C31.3452 10.2075 31.2012 10.0875 30.8891 10.0755C30.7931 10.0755 30.6851 10.0755 30.589 10.0755C25.8358 10.0755 21.0705 10.0755 16.3172 10.0755C14.9369 10.0755 14.0006 10.7957 13.7486 12.044C13.7126 12.224 13.7126 12.4161 13.7126 12.6081C13.7126 21.1064 13.7126 29.5927 13.7126 38.0909C13.7126 39.6153 14.7088 40.6116 16.2452 40.6116C19.042 40.6116 21.8267 40.6116 24.6235 40.6116C25.3677 40.6116 25.7758 40.9117 25.7758 41.4518C25.7758 42.004 25.3677 42.304 24.6355 42.304C21.8267 42.304 19.018 42.304 16.2212 42.304C13.7726 42.316 11.9961 40.5516 11.9961 38.1029C11.9961 33.8658 11.9961 29.6167 11.9961 25.3795ZM36.4226 14.8527C35.3063 13.7244 34.166 12.5841 33.0257 11.4438C33.0257 12.3201 33.0137 13.2323 33.0257 14.1566C33.0257 14.5407 33.3258 14.8407 33.7459 14.8527C34.6581 14.8767 35.5704 14.8527 36.4106 14.8527H36.4226Z" fill="#1A1C1D"/>
<path d="M34.6584 29.3645C39.1116 29.3765 42.7245 33.0135 42.6885 37.5147C42.6525 41.7998 39.2556 45.5208 34.5624 45.5448C30.0732 45.5688 26.4722 41.8719 26.4962 37.3467C26.5082 32.9295 30.1692 29.3525 34.6584 29.3645ZM34.6104 31.057C31.0454 31.057 28.2007 33.8897 28.2007 37.4427C28.2007 40.6595 30.6973 43.8404 34.6224 43.8284C38.4394 43.8284 41.0081 40.7196 40.9961 37.4307C40.9961 33.8897 38.1513 31.045 34.6104 31.045V31.057Z" fill="#1A1C1D"/>
<path d="M28.9328 22.1745C27.0844 22.1745 25.2359 22.1745 23.3874 22.1745C22.8112 22.1745 22.4631 21.8144 22.4991 21.2863C22.5231 20.9142 22.7152 20.6741 23.0513 20.5541C23.2553 20.4821 23.4714 20.4821 23.6874 20.4821C27.2044 20.4821 30.7333 20.4821 34.2503 20.4821C34.3823 20.4821 34.5263 20.4821 34.6584 20.5061C35.1505 20.5901 35.4746 20.9742 35.4266 21.4183C35.3906 21.8624 35.0185 22.1745 34.5023 22.1745C33.23 22.1745 31.9576 22.1745 30.6853 22.1745C30.0972 22.1745 29.497 22.1745 28.9088 22.1745H28.9328Z" fill="#1A1C1D"/>
<path d="M20.9508 21.3345C20.9508 21.5625 20.9508 21.7906 20.9508 22.0187C20.9508 23.0149 20.3866 23.6871 19.4144 23.7831C18.8022 23.8432 18.178 23.8432 17.5659 23.7831C16.6896 23.7111 16.1255 23.147 16.0415 22.2827C15.9694 21.6106 15.9454 20.9264 16.0655 20.2542C16.2095 19.438 16.8457 18.8978 17.6739 18.8858C18.214 18.8738 18.7542 18.8738 19.2943 18.8858C20.2306 18.9098 20.9268 19.606 20.9508 20.5423C20.9508 20.8063 20.9508 21.0704 20.9508 21.3345ZM18.5021 20.5783C17.5779 20.5903 17.7219 20.4583 17.7099 21.3825C17.7099 22.2227 17.6019 22.1147 18.4541 22.1147C19.3663 22.1147 19.2463 22.2467 19.2463 21.3105C19.2463 20.4823 19.3423 20.5783 18.5021 20.5783Z" fill="#1A1C1D"/>
<path d="M20.9506 27.756C20.9506 28.0201 20.9506 28.2841 20.9506 28.5482C20.9266 29.5325 20.2304 30.2167 19.2462 30.2407C18.766 30.2407 18.2859 30.2407 17.8178 30.2407C16.8335 30.2407 16.1493 29.6765 16.0533 28.7043C15.9933 28.0921 15.9933 27.4679 16.0533 26.8558C16.1253 26.0035 16.6775 25.4394 17.5177 25.3434C18.1899 25.2593 18.8741 25.2473 19.5462 25.3554C20.4105 25.4874 20.9386 26.1356 20.9506 26.9998C20.9506 27.2519 20.9506 27.5039 20.9506 27.756ZM17.7098 27.732C17.7218 28.6442 17.5777 28.5242 18.502 28.5362C19.3422 28.5362 19.2462 28.6322 19.2462 27.792C19.2462 26.8678 19.3662 26.9998 18.454 26.9998C17.6017 26.9998 17.7218 26.8918 17.7098 27.732Z" fill="#1A1C1D"/>
<path d="M18.4892 36.6624C18.2492 36.6624 18.0091 36.6624 17.7691 36.6624C16.7248 36.6624 16.0406 36.0023 16.0046 34.958C15.9926 34.4539 15.9806 33.9497 16.0046 33.4456C16.0406 32.4253 16.7368 31.7771 17.757 31.7651C18.2852 31.7651 18.8133 31.7651 19.3415 31.7651C20.1817 31.7771 20.8899 32.4373 20.9259 33.2775C20.9619 33.8897 20.9619 34.5139 20.9259 35.126C20.8779 36.0143 20.1697 36.6384 19.2695 36.6504C19.0054 36.6504 18.7413 36.6504 18.4772 36.6504L18.4892 36.6624ZM18.4532 34.97C19.3415 34.97 19.2454 35.054 19.2454 34.2258C19.2454 33.3856 19.3535 33.4696 18.4772 33.4696C17.589 33.4696 17.709 33.3856 17.709 34.2258C17.709 35.042 17.601 34.958 18.4532 34.958V34.97Z" fill="#1A1C1D"/>
<path d="M21.6943 15.7408C20.1458 15.7408 18.5974 15.7408 17.049 15.7408C16.7009 15.7408 16.4009 15.6688 16.1848 15.3687C15.8367 14.8766 16.1008 14.2044 16.7009 14.0604C16.821 14.0364 16.953 14.0364 17.073 14.0364C20.1699 14.0364 23.2547 14.0364 26.3515 14.0364C26.9157 14.0364 27.2878 14.3004 27.3598 14.7446C27.4438 15.3087 27.0477 15.7288 26.4115 15.7288C24.8391 15.7288 23.2667 15.7288 21.6943 15.7288V15.7408Z" fill="#1A1C1D"/>
<path d="M26.9527 26.9518C28.105 26.9518 29.2693 26.9518 30.4216 26.9518C31.0217 26.9518 31.3818 27.2639 31.4058 27.756C31.4178 28.2602 31.0217 28.6323 30.4336 28.6323C28.117 28.6323 25.8123 28.6323 23.4957 28.6323C23.3877 28.6323 23.2677 28.6203 23.1596 28.5843C22.6915 28.4762 22.4395 28.1161 22.4995 27.636C22.5475 27.2159 22.8716 26.9398 23.3397 26.9398C24.54 26.9398 25.7523 26.9398 26.9527 26.9398V26.9518Z" fill="#1A1C1D"/>
<path d="M23.9502 35.0657C23.7222 35.0657 23.4942 35.0777 23.2662 35.0657C22.7982 35.0297 22.4742 34.6577 22.4862 34.2137C22.4862 33.7817 22.8102 33.4217 23.2662 33.3857C23.7342 33.3617 24.2022 33.3617 24.6582 33.3857C25.1382 33.4097 25.4622 33.7817 25.4742 34.2137C25.4742 34.6577 25.1502 35.0177 24.6702 35.0537C24.4302 35.0777 24.1902 35.0537 23.9502 35.0537V35.0657Z" fill="#1A1C1D"/>
<path d="M37.0339 38.9071C36.9979 39.7113 36.6018 40.3474 35.8456 40.7315C35.5455 40.8876 35.4135 41.0316 35.4255 41.3797C35.4375 41.9319 35.0774 42.304 34.5973 42.316C34.1051 42.316 33.733 41.9439 33.745 41.3677C33.745 41.0556 33.637 40.9116 33.3609 40.8276C33.0609 40.7315 32.7848 40.5755 32.5327 40.3715C32.1126 40.0474 32.0286 39.5552 32.3047 39.1711C32.5927 38.763 33.0969 38.691 33.529 39.0151C33.8891 39.2792 34.2732 39.4232 34.7293 39.3392C34.9934 39.2912 35.2574 39.2191 35.3055 38.9311C35.3655 38.631 35.0774 38.547 34.8613 38.4509C34.3332 38.1869 33.757 38.0308 33.2529 37.7187C32.5567 37.2986 32.1006 36.7345 32.1486 35.8823C32.1966 35.042 32.6167 34.4299 33.3609 34.0698C33.637 33.9377 33.745 33.7817 33.745 33.4696C33.745 32.9415 34.0931 32.5814 34.5733 32.5694C35.0534 32.5574 35.4375 32.9295 35.4255 33.4696C35.4255 33.7817 35.5335 33.9137 35.8216 34.0098C36.1337 34.1058 36.4097 34.2858 36.6738 34.4899C37.1179 34.838 37.202 35.2941 36.9139 35.7142C36.6258 36.1103 36.1217 36.1823 35.6775 35.8462C35.2454 35.5222 34.8013 35.3661 34.2732 35.5342C34.0691 35.5942 33.8891 35.6902 33.8651 35.9303C33.8411 36.1703 34.0331 36.2544 34.2012 36.3264C34.7173 36.5664 35.2454 36.7705 35.7496 37.0226C36.5058 37.3947 37.0099 37.9708 37.0339 38.9191V38.9071Z" fill="#1A1C1D"/>
</svg>
