<svg width="24" height="24" viewBox="0 0 24 24" fill="none" xmlns="http://www.w3.org/2000/svg">
<g opacity="0.6" clip-path="url(#clip0_2039_1047)">
<g clip-path="url(#clip1_2039_1047)">
<path fill-rule="evenodd" clip-rule="evenodd" d="M11.9999 0C8.90558 0 6.39844 2.50714 6.39844 5.60143C6.39844 8.69571 8.90558 11.2029 11.9999 11.2029C15.0942 11.2029 17.6013 8.69571 17.6013 5.60143C17.6013 2.50714 15.0942 0 11.9999 0ZM8.00129 5.60143C8.00129 3.39429 9.79272 1.60286 11.9999 1.60286C14.207 1.60286 15.9984 3.39429 15.9984 5.60143C15.9984 7.80857 14.207 9.6 11.9999 9.6C9.79272 9.6 8.00129 7.80857 8.00129 5.60143Z" fill="#1A1C1D"/>
<path fill-rule="evenodd" clip-rule="evenodd" d="M7.01143 12.8014C3.13714 12.8014 0 15.9386 0 19.8128C0 22.1271 1.87714 24 4.18714 24H19.8086C22.1229 24 23.9957 22.1229 23.9957 19.8128C23.9957 15.9386 20.8586 12.8014 16.9843 12.8014H7.00714H7.01143ZM1.59857 19.8128C1.59857 16.8257 4.02 14.4 7.01143 14.4H16.9886C19.9757 14.4 22.4014 16.8214 22.4014 19.8128C22.4014 21.2443 21.2443 22.4014 19.8129 22.4014H4.18714C2.75571 22.4014 1.59857 21.2443 1.59857 19.8128Z" fill="#1A1C1D"/>
</g>
</g>
<defs>
<clipPath id="clip0_2039_1047">
<rect width="24" height="24" fill="white"/>
</clipPath>
<clipPath id="clip1_2039_1047">
<rect width="24" height="24" fill="white"/>
</clipPath>
</defs>
</svg>
