<svg width="24" height="24" viewBox="0 0 24 24" fill="none" xmlns="http://www.w3.org/2000/svg">
<g clip-path="url(#clip0_2039_1044)">
<g clip-path="url(#clip1_2039_1044)">
<path fill-rule="evenodd" clip-rule="evenodd" d="M11.9999 0C8.90558 0 6.39844 2.50714 6.39844 5.59714C6.39844 8.68714 8.90558 11.1986 11.9999 11.1986C15.0942 11.1986 17.597 8.69143 17.597 5.59714C17.597 2.50286 15.0899 0 11.9999 0ZM11.9999 9.6C9.78844 9.6 7.99701 7.80857 7.99701 5.59714C7.99701 3.38571 9.78844 1.59857 11.9999 1.59857C14.2113 1.59857 15.9984 3.39 15.9984 5.59714C15.9984 7.80429 14.207 9.6 11.9999 9.6Z" fill="#1A1C1D"/>
<path fill-rule="evenodd" clip-rule="evenodd" d="M7.01143 12.7971C3.13714 12.7971 0 15.9386 0 19.8086C0 22.1229 1.87714 23.9957 4.18714 23.9957H19.8086C22.1229 23.9957 23.9957 22.1186 23.9957 19.8086C23.9957 15.9343 20.8586 12.7971 16.9843 12.7971H7.00714H7.01143ZM1.59857 19.8086C1.59857 16.8214 4.02 14.3957 7.01143 14.3957H16.9886C19.9757 14.3957 22.4014 16.8172 22.4014 19.8086C22.4014 21.24 21.2443 22.3971 19.8129 22.3971H4.18714C2.75571 22.3971 1.59857 21.24 1.59857 19.8086Z" fill="#1A1C1D"/>
<path fill-rule="evenodd" clip-rule="evenodd" d="M15.9985 5.59714C15.9985 7.80857 14.2071 9.6 11.9999 9.6C9.79278 9.6 7.99707 7.80857 7.99707 5.59714C7.99707 3.38571 9.7885 1.59857 11.9999 1.59857C14.2114 1.59857 15.9985 3.39 15.9985 5.59714Z" fill="#57CC99"/>
</g>
</g>
<defs>
<clipPath id="clip0_2039_1044">
<rect width="24" height="24" fill="white"/>
</clipPath>
<clipPath id="clip1_2039_1044">
<rect width="24" height="24" fill="white"/>
</clipPath>
</defs>
</svg>
