<svg width="54" height="54" viewBox="0 0 54 54" fill="none" xmlns="http://www.w3.org/2000/svg">
<g clip-path="url(#clip0_2573_9413)">
<path d="M14.63 45.15C13.18 45.14 12 43.95 12 42.5V10.63C12 9.18 13.18 8 14.63 8H38.78C40.23 8 41.41 9.18 41.41 10.63V42.51C41.41 43.96 40.23 45.15 38.78 45.15H14.63ZM14.63 9.75C14.14 9.75 13.74 10.15 13.74 10.63V42.51C13.74 43.01 14.13 43.4 14.63 43.4H38.78C39.28 43.4 39.67 43.01 39.67 42.51V10.63C39.67 10.14 39.27 9.75 38.78 9.75H14.63Z" fill="#1A1C1D"/>
<path d="M29.7602 37.48C29.4302 37.48 29.1502 37.3 29.0002 36.98L28.1402 35.17L25.2302 35.19L24.4002 36.97C24.2502 37.28 23.9502 37.47 23.6202 37.47C23.4802 37.47 23.3502 37.44 23.2502 37.38C22.8202 37.17 22.6302 36.65 22.8402 36.22L25.9202 29.82C26.0602 29.53 26.3602 29.35 26.7002 29.35C27.0402 29.35 27.3502 29.53 27.4802 29.82L30.5602 36.22C30.7002 36.51 30.6802 36.8 30.5202 37.05C30.3602 37.3 30.0602 37.47 29.7402 37.47L29.7602 37.48ZM27.4002 33.49L26.6802 32.14L26.1002 33.49H27.4002Z" fill="#1A1C1D"/>
<path d="M26.6998 41.26C22.3698 41.26 18.8398 37.73 18.8398 33.4C18.8398 29.07 22.3698 25.54 26.6998 25.54C31.0298 25.54 34.5598 29.07 34.5598 33.4C34.5598 37.73 31.0298 41.26 26.6998 41.26ZM26.6998 27.28C23.3298 27.28 20.5898 30.02 20.5898 33.39C20.5898 36.76 23.3298 39.5 26.6998 39.5C30.0698 39.5 32.8198 36.76 32.8198 33.39C32.8198 30.02 30.0798 27.28 26.6998 27.28Z" fill="#1A1C1D"/>
<path d="M18.5502 13.61C18.0602 13.61 17.6802 13.23 17.6802 12.74C17.6802 12.25 18.0602 11.87 18.5502 11.87H34.8502C35.3402 11.87 35.7202 12.25 35.7202 12.74C35.7202 13.23 35.3402 13.61 34.8502 13.61H18.5502Z" fill="#1A1C1D"/>
<path d="M18.5502 18.4201C18.0602 18.4201 17.6802 18.0401 17.6802 17.5501C17.6802 17.0601 18.0602 16.6801 18.5502 16.6801H27.9402C28.4302 16.6801 28.8102 17.0601 28.8102 17.5501C28.8102 18.0401 28.4302 18.4201 27.9402 18.4201H18.5502Z" fill="#1A1C1D"/>
<path d="M18.5502 23.22C18.0602 23.22 17.6802 22.84 17.6802 22.35C17.6802 21.86 18.0602 21.48 18.5502 21.48H31.6702C32.1602 21.48 32.5402 21.86 32.5402 22.35C32.5402 22.84 32.1602 23.22 31.6702 23.22H18.5502Z" fill="#1A1C1D"/>
</g>
<defs>
<clipPath id="clip0_2573_9413">
<rect width="29.4" height="37.15" fill="white" transform="translate(12 8)"/>
</clipPath>
</defs>
</svg>
