<svg width="54" height="54" viewBox="0 0 54 54" fill="none" xmlns="http://www.w3.org/2000/svg">
<g clip-path="url(#clip0_5097_9141)">
<path d="M10.79 44.66C9.26 44.66 8.01 43.41 8 41.88V15.47C8 13.94 9.25 12.68 10.79 12.68H15.56L15.49 11.46C15.49 10.29 16.44 9.33997 17.61 9.33997C18.18 9.33997 18.71 9.55997 19.11 9.95997C19.51 10.36 19.73 10.89 19.73 11.46V12.75L33.49 12.68L33.42 11.46C33.42 10.29 34.37 9.33997 35.54 9.33997C36.71 9.33997 37.66 10.29 37.66 11.46V12.75L42.36 12.68C43.9 12.68 45.15 13.93 45.15 15.47V41.88C45.15 43.41 43.89 44.66 42.36 44.66H10.79ZM9.67 20.58V41.87C9.68 42.48 10.18 42.98 10.79 42.98H42.36C42.97 42.98 43.47 42.48 43.47 41.87V20.52L9.66 20.58H9.67ZM10.79 14.35C10.18 14.35 9.68 14.85 9.68 15.46V18.96L43.54 18.89L43.47 15.45C43.47 15.14 43.35 14.85 43.14 14.64C42.93 14.43 42.65 14.32 42.36 14.32H37.59L37.66 15.54C37.66 16.71 36.71 17.66 35.54 17.66C34.37 17.66 33.42 16.71 33.42 15.54V14.25L19.66 14.32L19.73 15.54C19.73 16.71 18.78 17.66 17.61 17.66C17.04 17.66 16.51 17.44 16.11 17.04C15.71 16.64 15.49 16.11 15.49 15.54V14.28L10.79 14.34V14.35ZM35.54 11.02C35.3 11.02 35.1 11.22 35.1 11.46V15.56C35.1 15.8 35.3 16 35.54 16C35.78 16 35.98 15.8 35.99 15.56V11.46C35.99 11.22 35.79 11.02 35.55 11.02H35.54ZM17.61 11.02C17.37 11.02 17.17 11.22 17.17 11.46V15.56C17.17 15.8 17.37 16 17.61 16C17.85 16 18.05 15.8 18.05 15.56V11.46C18.05 11.22 17.85 11.02 17.61 11.02Z" fill="#29638A"/>
<path d="M22.3099 36.32C20.5899 36.32 19.1799 34.92 19.1799 33.19V29.42L15.2299 28.15C14.9799 28.06 14.7899 27.87 14.7099 27.63C14.5599 27.19 14.7899 26.71 15.2299 26.56L25.0499 23.3C25.1299 23.27 25.2199 23.26 25.3099 23.26C25.3999 23.26 25.4899 23.28 25.5799 23.31L35.6099 26.56C35.8599 26.64 36.0599 26.84 36.1499 27.09C36.2999 27.53 36.0599 28.01 35.6299 28.15L34.4499 28.57L34.4999 32.22C34.4999 32.68 34.1199 33.06 33.6599 33.06C33.1999 33.06 32.8199 32.68 32.8199 32.22V29.06L31.6199 29.56L31.6599 33.19C31.6599 34.91 30.2599 36.32 28.5299 36.32H22.3099ZM20.8599 33.2C20.8599 34 21.5099 34.65 22.3099 34.65H28.5299C29.3299 34.65 29.9799 34 29.9799 33.2V30.04L25.8899 31.57C25.7999 31.6 25.7099 31.61 25.6199 31.61C25.5299 31.61 25.4399 31.6 25.3499 31.57L20.8699 30.05V33.19L20.8599 33.2ZM18.1099 27.38L25.6199 29.9L32.7399 27.37L25.3099 24.98L18.1099 27.37V27.38Z" fill="#29638A"/>
<path d="M17.4201 41.13C16.9601 41.13 16.5801 40.75 16.5801 40.29C16.5801 39.83 16.9601 39.45 17.4201 39.45H33.4401C33.9001 39.45 34.2801 39.83 34.2801 40.29C34.2801 40.75 33.9001 41.13 33.4401 41.13H17.4201Z" fill="#29638A"/>
</g>
<defs>
<clipPath id="clip0_5097_9141">
<rect width="37.15" height="35.32" fill="white" transform="translate(8 9.33997)"/>
</clipPath>
</defs>
</svg>
