<svg width="54" height="54" viewBox="0 0 54 54" fill="none" xmlns="http://www.w3.org/2000/svg">
<path fill-rule="evenodd" clip-rule="evenodd" d="M37.5 35.41C34.82 35.41 32.65 33.23 32.65 30.56C32.65 27.89 34.83 25.71 37.5 25.71C40.17 25.71 42.35 27.89 42.35 30.56C42.35 33.23 40.17 35.41 37.5 35.41ZM37.5 27.44C35.78 27.44 34.38 28.84 34.38 30.56C34.38 32.28 35.78 33.68 37.5 33.68C39.22 33.68 40.62 32.28 40.62 30.56C40.62 28.84 39.22 27.44 37.5 27.44Z" fill="#29638A"/>
<path fill-rule="evenodd" clip-rule="evenodd" d="M32.46 45.1501C31.6 45.1501 30.79 44.7301 30.3 44.0201C29.81 43.3101 29.69 42.4101 29.99 41.6001C31.14 38.4501 34.16 36.3301 37.5 36.3301C40.84 36.3301 43.86 38.4501 44.99 41.6001C45.29 42.4101 45.17 43.3001 44.68 44.0001C44.19 44.7001 43.39 45.1201 42.55 45.1201C39.86 45.1401 35.17 45.1401 32.48 45.1401H32.46V45.1501ZM37.49 38.0701C35 38.0701 32.68 39.6201 31.71 41.9301H31.69L31.71 41.9501L31.58 42.2601C31.5 42.5301 31.55 42.8101 31.71 43.0401C31.88 43.2801 32.16 43.4201 32.45 43.4201C35.14 43.4201 39.83 43.4201 42.51 43.4001C42.8 43.4001 43.08 43.2601 43.24 43.0201C43.41 42.7901 43.45 42.4901 43.34 42.2101C42.46 39.7401 40.1 38.0701 37.48 38.0701H37.49Z" fill="#29638A"/>
<path fill-rule="evenodd" clip-rule="evenodd" d="M14.18 44.2599C10.77 44.2599 8 41.4899 8 38.0799V16.8399C8 13.4299 10.77 10.6599 14.18 10.6599H35.43C38.84 10.6599 41.61 13.4299 41.61 16.8399V21.2699C41.61 21.7499 41.22 22.1399 40.74 22.1399C40.26 22.1399 39.87 21.7499 39.87 21.2699V16.8399C39.87 14.3899 37.88 12.3999 35.43 12.3999H14.18C11.73 12.3999 9.74 14.3899 9.74 16.8399V38.0899C9.74 40.5399 11.73 42.5299 14.18 42.5299H24.8C25.28 42.5299 25.67 42.9199 25.67 43.3999C25.67 43.8799 25.28 44.2699 24.8 44.2699H14.18V44.2599Z" fill="#29638A"/>
<path fill-rule="evenodd" clip-rule="evenodd" d="M17.28 15.05C16.8 15.05 16.41 14.66 16.41 14.18V8.87C16.41 8.39 16.8 8 17.28 8C17.76 8 18.15 8.39 18.15 8.87V14.18C18.15 14.66 17.76 15.05 17.28 15.05Z" fill="#29638A"/>
<path fill-rule="evenodd" clip-rule="evenodd" d="M32.33 15.05C31.85 15.05 31.46 14.66 31.46 14.18V8.87C31.46 8.39 31.85 8 32.33 8C32.81 8 33.2 8.39 33.2 8.87V14.18C33.2 14.66 32.81 15.05 32.33 15.05Z" fill="#29638A"/>
<path d="M17.98 37.38C17.74 37.38 17.52 37.29 17.37 37.12L16.76 36.51C16.42 36.17 16.42 35.63 16.76 35.29C16.93 35.12 17.13 35.03 17.37 35.03C17.61 35.03 17.82 35.12 17.98 35.29L19 34.27C19.17 34.1 19.38 34.02 19.62 34.02C19.86 34.02 20.07 34.11 20.24 34.27C20.4 34.43 20.49 34.65 20.49 34.88C20.49 35.11 20.39 35.33 20.24 35.49L18.61 37.12C18.46 37.28 18.24 37.37 18 37.37H17.98V37.38Z" fill="#29638A"/>
<path d="M18.49 40.2299C15.99 40.2299 13.96 38.1899 13.96 35.6899C13.96 33.1899 15.99 31.1599 18.49 31.1599C20.99 31.1599 23.02 33.1899 23.03 35.6899C23.03 38.1999 20.99 40.2299 18.49 40.2299ZM18.49 32.8899C16.94 32.8899 15.68 34.1499 15.68 35.6999C15.68 37.2499 16.94 38.5099 18.49 38.5099C20.04 38.5099 21.3 37.2499 21.3 35.6999C21.3 34.1499 20.04 32.8899 18.49 32.8899Z" fill="#29638A"/>
<path fill-rule="evenodd" clip-rule="evenodd" d="M15.09 22.71C14.61 22.71 14.22 22.32 14.22 21.84C14.22 21.36 14.61 20.97 15.09 20.97H20.58C21.06 20.97 21.45 21.36 21.45 21.84C21.45 22.32 21.06 22.71 20.58 22.71H15.09Z" fill="#29638A"/>
<path fill-rule="evenodd" clip-rule="evenodd" d="M15.09 28.3799C14.61 28.3799 14.22 27.9899 14.22 27.5099C14.22 27.0299 14.61 26.6399 15.09 26.6399H23.94C24.42 26.6399 24.81 27.0299 24.81 27.5099C24.81 27.9899 24.42 28.3799 23.94 28.3799H15.09Z" fill="#29638A"/>
</svg>
