<svg width="48" height="48" viewBox="0 0 48 48" fill="none" xmlns="http://www.w3.org/2000/svg">
<path d="M28.6266 27.7406L25.4354 30.9673C24.6491 31.7624 23.3651 31.7624 22.5788 30.9673L19.3877 27.7406C18.8948 27.2422 18.1751 27.0296 17.5025 27.2275C11.8675 28.8846 7.93652 32.6286 7.93652 36.9822C7.93652 39.2009 9.73528 40.9998 11.9542 40.9998H36.0601C38.279 40.9998 40.0777 39.2009 40.0777 36.9822C40.0777 32.6286 36.1466 28.8846 30.5117 27.2275C29.8391 27.0296 29.1194 27.2422 28.6266 27.7406Z" fill="white"/>
<path d="M24.005 24.7596C28.2214 24.7596 31.6711 21.3099 31.6711 17.0935V14.666C31.6711 10.4496 28.2214 6.99991 24.005 6.99991C19.7886 6.99991 16.3389 10.4496 16.3389 14.666V17.0935C16.3389 21.3099 19.7886 24.7596 24.005 24.7596Z" fill="white"/>
</svg>
