<svg width="48" height="48" viewBox="0 0 48 48" fill="none" xmlns="http://www.w3.org/2000/svg">
<path fill-rule="evenodd" clip-rule="evenodd" d="M35.4668 22.8937V13.4095H38.0534V22.8937C38.0534 23.6079 37.4743 24.1869 36.7601 24.1869C36.0458 24.1869 35.4668 23.6079 35.4668 22.8937Z" fill="white"/>
<path d="M31.1555 20.3073V15.1341H17.3604V20.3073C17.3604 24.1166 20.4485 27.2048 24.2579 27.2048C28.0672 27.2048 31.1555 24.1166 31.1555 20.3073Z" fill="white"/>
<path d="M10.512 12.6217L22.1577 7.44586C23.4953 6.85138 25.0223 6.85138 26.3599 7.44586L38.0055 12.6217C38.6882 12.9252 38.6882 13.8941 38.0055 14.1975L26.3599 19.3734C25.0223 19.9679 23.4953 19.9679 22.1577 19.3734L10.512 14.1975C9.82932 13.8941 9.82932 12.9252 10.512 12.6217Z" fill="white"/>
<path d="M28.2234 29.6182L25.484 32.3881C24.8091 33.0706 23.7069 33.0706 23.032 32.3881L20.2927 29.6182C19.8695 29.1904 19.2518 29.008 18.6744 29.1778C13.8373 30.6003 10.4629 33.8142 10.4629 37.5513C10.4629 39.4559 12.007 41 13.9117 41H34.6043C36.5091 41 38.0531 39.4559 38.0531 37.5513C38.0531 33.8142 34.6786 30.6003 29.8416 29.1778C29.2642 29.008 28.6464 29.1904 28.2234 29.6182Z" fill="white"/>
</svg>
