<svg width="54" height="54" viewBox="0 0 54 54" fill="none" xmlns="http://www.w3.org/2000/svg">
<g clip-path="url(#clip0_2907_8853)">
<path d="M16.32 45.15C14.76 45.15 13.5 43.88 13.5 42.33V10.82C13.5 9.27 14.77 8 16.33 8H38.19C39.75 8 41.01 9.27 41.01 10.82V42.13L40.99 42.33C40.99 43.86 39.75 45.12 38.22 45.15H16.32ZM16.32 9.72C15.72 9.72 15.22 10.21 15.22 10.82V42.32C15.22 42.92 15.71 43.41 16.32 43.41H38.18C38.78 43.41 39.28 42.92 39.28 42.32V10.82C39.28 10.22 38.79 9.72 38.18 9.72H16.32Z" fill="#29638A"/>
<path d="M20.72 18.4999C20.48 18.4999 20.26 18.4099 20.11 18.2399L19.5 17.6299C19.34 17.4799 19.24 17.2599 19.24 17.0199C19.24 16.7799 19.33 16.5599 19.5 16.4099C19.66 16.2499 19.88 16.1599 20.11 16.1599C20.35 16.1599 20.57 16.2499 20.72 16.4199L21.73 15.3899C21.9 15.2299 22.11 15.1499 22.34 15.1499C22.57 15.1499 22.8 15.2399 22.96 15.4099C23.13 15.5799 23.21 15.7799 23.21 16.0199C23.21 16.2599 23.12 16.4699 22.95 16.6299L21.32 18.2599C21.17 18.4199 20.95 18.5099 20.71 18.5099L20.72 18.4999Z" fill="#29638A"/>
<path d="M27.37 16.2901C26.89 16.2901 26.51 15.9001 26.51 15.4301C26.51 14.9601 26.9 14.5701 27.37 14.5701H36.96C37.44 14.5701 37.82 14.9601 37.82 15.4301C37.82 15.9001 37.43 16.2901 36.96 16.2901H27.37Z" fill="#29638A"/>
<path d="M27.37 19.0501C26.89 19.0501 26.51 18.6601 26.51 18.1901C26.51 17.7201 26.9 17.3301 27.37 17.3301H33.44C33.92 17.3301 34.3 17.7201 34.3 18.1901C34.3 18.6601 33.91 19.0501 33.44 19.0501H27.37Z" fill="#29638A"/>
<path d="M20.72 28.2599C20.48 28.2599 20.27 28.1699 20.11 27.9999L19.5 27.3899C19.34 27.2299 19.24 27.0099 19.24 26.7799C19.24 26.5499 19.34 26.3299 19.5 26.1699C19.66 26.0099 19.88 25.9199 20.11 25.9199C20.35 25.9199 20.56 26.0099 20.72 26.1799L21.74 25.1599C21.89 24.9899 22.11 24.9099 22.36 24.9099C22.61 24.9099 22.81 24.9999 22.98 25.1599C23.15 25.3299 23.23 25.5299 23.23 25.7699C23.23 26.0099 23.14 26.2199 22.98 26.3799L21.35 28.0099C21.2 28.1699 20.98 28.2699 20.74 28.2699H20.72V28.2599Z" fill="#29638A"/>
<path d="M27.37 26.0601C26.89 26.0601 26.51 25.6701 26.51 25.2001C26.51 24.7301 26.9 24.3401 27.37 24.3401H36.96C37.44 24.3401 37.82 24.7301 37.82 25.2001C37.82 25.6701 37.43 26.0601 36.96 26.0601H27.37Z" fill="#29638A"/>
<path d="M27.37 28.8301C26.89 28.8301 26.51 28.4401 26.51 27.9701C26.51 27.5001 26.9 27.1101 27.37 27.1101H33.44C33.92 27.1101 34.3 27.5001 34.3 27.9701C34.3 28.4401 33.91 28.8301 33.44 28.8301H27.37Z" fill="#29638A"/>
<path d="M20.7201 38.0402C20.4801 38.0402 20.2601 37.9502 20.1101 37.7802L19.5001 37.1702C19.1601 36.8302 19.1601 36.2902 19.5001 35.9502C19.6701 35.7802 19.8701 35.6902 20.1101 35.6902C20.3501 35.6902 20.5601 35.7802 20.7201 35.9502L21.7401 34.9302C21.9101 34.7602 22.1201 34.6802 22.3601 34.6802C22.6001 34.6802 22.8101 34.7702 22.9801 34.9302C23.1401 35.0902 23.2301 35.3102 23.2301 35.5402C23.2301 35.7702 23.1301 35.9902 22.9801 36.1502L21.3501 37.7802C21.2001 37.9402 20.9801 38.0302 20.7401 38.0302H20.7201V38.0402Z" fill="#29638A"/>
<path d="M27.37 35.8401C26.89 35.8401 26.51 35.4501 26.51 34.9801C26.51 34.5101 26.9 34.1201 27.37 34.1201H36.96C37.44 34.1201 37.82 34.5101 37.82 34.9801C37.82 35.4501 37.43 35.8401 36.96 35.8401H27.37Z" fill="#29638A"/>
<path d="M27.37 38.5999C26.89 38.5999 26.51 38.2099 26.51 37.7399C26.51 37.2699 26.9 36.8799 27.37 36.8799H33.44C33.92 36.8799 34.3 37.2699 34.3 37.7399C34.3 38.2099 33.91 38.5999 33.44 38.5999H27.37Z" fill="#29638A"/>
<path d="M21.23 31.11C18.73 31.11 16.7 29.07 16.7 26.57C16.7 24.07 18.73 22.04 21.23 22.04C23.73 22.04 25.76 24.07 25.77 26.57C25.77 29.08 23.73 31.11 21.23 31.11ZM21.23 23.77C19.68 23.77 18.42 25.03 18.42 26.58C18.42 28.13 19.68 29.39 21.23 29.39C22.78 29.39 24.04 28.13 24.04 26.58C24.04 25.03 22.78 23.77 21.23 23.77Z" fill="#29638A"/>
<path d="M21.2302 40.8898C18.7302 40.8898 16.7002 38.8498 16.7002 36.3498C16.7002 33.8498 18.7302 31.8198 21.2302 31.8198C23.7302 31.8198 25.7602 33.8498 25.7702 36.3498C25.7702 38.8598 23.7302 40.8898 21.2302 40.8898ZM21.2302 33.5498C19.6802 33.5498 18.4202 34.8098 18.4202 36.3598C18.4202 37.9098 19.6802 39.1698 21.2302 39.1698C22.7802 39.1698 24.0402 37.9098 24.0402 36.3598C24.0402 34.8098 22.7802 33.5498 21.2302 33.5498Z" fill="#29638A"/>
<path d="M21.23 21.35C18.73 21.35 16.7 19.31 16.7 16.8C16.7 14.29 18.73 12.27 21.23 12.27C23.73 12.27 25.76 14.3 25.77 16.8C25.77 19.31 23.73 21.35 21.23 21.35ZM21.23 14.01C19.68 14.01 18.42 15.27 18.42 16.82C18.42 18.37 19.68 19.64 21.23 19.64C22.78 19.64 24.04 18.38 24.04 16.82C24.04 15.26 22.78 14.01 21.23 14.01Z" fill="#29638A"/>
</g>
<defs>
<clipPath id="clip0_2907_8853">
<rect width="27.52" height="37.15" fill="white" transform="translate(13.5 8)"/>
</clipPath>
</defs>
</svg>
