<svg width="48" height="48" viewBox="0 0 48 48" fill="none" xmlns="http://www.w3.org/2000/svg">
<path d="M22.9342 15.2317C25.2073 15.2317 27.05 13.389 27.05 11.1158C27.05 8.84273 25.2073 7 22.9342 7C20.6611 7 18.8184 8.84273 18.8184 11.1158C18.8184 13.389 20.6611 15.2317 22.9342 15.2317Z" fill="white"/>
<path fill-rule="evenodd" clip-rule="evenodd" d="M24.2422 18.1162L25.0848 21.1514C25.1605 21.4242 25.1077 21.7165 24.9414 21.9456L23.9905 23.2565C23.7451 23.5946 23.3526 23.7946 22.9346 23.7946C22.517 23.7946 22.1246 23.5946 21.8792 23.2565L20.9283 21.946C20.762 21.7165 20.7091 21.4242 20.7849 21.1514L21.599 18.2189L17.7959 18.3671C16.0283 18.4359 14.4776 19.566 13.8707 21.2276L11.2583 28.382H15.8017L16.7888 25.9118V28.382H29.0808V25.0367L31.2786 28.382H35.7444C35.8741 28.382 36.0009 28.3927 36.1247 28.4141L38.78 23.5137C39.3225 22.5129 38.95 21.2601 37.9496 20.7179C36.9488 20.1758 35.696 20.5479 35.1539 21.5487L33.6039 24.4091C33.6039 24.4091 32.3596 22.1278 31.3437 20.2645C30.5506 18.8102 29.0021 17.931 27.3472 17.9953L24.2422 18.1162ZM23.1039 18.1605L23.9934 21.3647L23.0932 22.6053C23.0562 22.6559 22.9975 22.6859 22.9346 22.6859C22.8722 22.6859 22.8134 22.6559 22.7765 22.6053L21.8762 21.3647L22.7621 18.1738L23.1039 18.1605Z" fill="white"/>
<path fill-rule="evenodd" clip-rule="evenodd" d="M10.6646 35.4491H35.2035V41H10.6646V35.4491Z" fill="white"/>
<path fill-rule="evenodd" clip-rule="evenodd" d="M36.8691 30.6152C36.8691 29.994 36.3654 29.4906 35.7442 29.4906H10.1249C9.50371 29.4906 9 29.994 9 30.6152V33.2155C9 33.8367 9.50371 34.3404 10.1249 34.3404H35.7442C36.3654 34.3404 36.8691 33.8367 36.8691 33.2155V30.6152Z" fill="white"/>
</svg>
