<svg width="54" height="54" viewBox="0 0 54 54" fill="none" xmlns="http://www.w3.org/2000/svg">
<g clip-path="url(#clip0_2949_8460)">
<path d="M18.7597 45.57C17.9897 45.57 17.2597 45.28 16.6997 44.74L16.5897 44.63L16.5397 44.74C15.9797 45.27 15.2497 45.57 14.4797 45.57H14.3097C12.6897 45.44 11.4497 44.07 11.4897 42.45V32.58C11.3297 32.68 11.0897 32.73 10.8097 32.73C9.49969 32.73 8.42969 31.67 8.42969 30.36V23.33C8.42969 20.37 10.4497 17.83 13.3197 17.16C12.5297 16.4 12.0997 15.33 12.0997 14.16V12.94C12.0997 10.45 14.1197 8.42004 16.6097 8.42004C19.0997 8.42004 21.1297 10.45 21.1297 12.94V14.16C21.1297 15.21 20.7597 16.23 20.0797 17.04L30.3597 16.98C31.6697 16.98 32.7397 18.05 32.7397 19.36C32.7397 20.67 31.6697 21.74 30.3597 21.74H30.1997C30.2597 21.81 30.2797 21.94 30.2897 22.11V22.53L38.4097 22.49L38.3697 22.12C38.3697 20.98 39.2997 20.05 40.4397 20.05C41.5797 20.05 42.5097 20.98 42.5097 22.12V22.53L42.8797 22.49C44.3597 22.49 45.5597 23.69 45.5597 25.17V42.9C45.5597 44.38 44.3597 45.58 42.8797 45.58H25.7597C24.2797 45.58 23.0797 44.38 23.0797 42.9V25.17C23.0797 23.69 24.2797 22.49 25.7597 22.49H26.1697L26.1297 22.12C26.1297 21.98 26.1497 21.84 26.1797 21.7L21.6797 21.75L21.7197 42.48C21.7597 44.1 20.5197 45.47 18.8997 45.59H18.7297L18.7597 45.57ZM16.6197 32.26C17.0897 32.26 17.4697 32.64 17.4697 33.11V42.58C17.4697 42.93 17.6097 43.27 17.8697 43.52C18.1097 43.75 18.4197 43.88 18.7397 43.88C19.5097 43.8 20.0697 43.2 20.0497 42.47V20.88C20.0497 20.41 20.4297 20.03 20.8997 20.03H30.3697C30.5497 20.03 30.7197 19.96 30.8597 19.83C31.1197 19.57 31.1197 19.13 30.8597 18.87C30.7297 18.74 30.5597 18.67 30.3797 18.67H19.0897L18.6997 20.36L19.2997 24.76C19.3697 25.31 19.1197 25.87 18.6597 26.18L17.4497 26.98C17.2097 27.14 16.9197 27.23 16.6297 27.23C16.3397 27.23 16.0597 27.14 15.8097 26.98L14.5997 26.18C14.1297 25.87 13.8797 25.33 13.9597 24.77L14.5497 20.27L14.1397 18.68C11.8297 19.02 10.1497 20.97 10.1397 23.32V30.35C10.1397 30.72 10.4497 31.03 10.8197 31.03C11.1897 31.03 11.4997 30.73 11.4997 30.35V23.32C11.4997 22.85 11.8797 22.47 12.3497 22.47C12.8197 22.47 13.1997 22.85 13.1997 23.32V42.45C13.1797 43.17 13.7197 43.79 14.4297 43.86C14.8097 43.86 15.1597 43.72 15.4097 43.47C15.6497 43.23 15.7797 42.91 15.7797 42.57V33.1C15.7797 32.63 16.1597 32.25 16.6297 32.25L16.6197 32.26ZM24.7897 29.07V42.89C24.7897 43.43 25.2397 43.87 25.7897 43.87H42.9097C43.4497 43.87 43.8897 43.43 43.8897 42.89V29.04L24.7897 29.07ZM25.7897 24.18C25.2497 24.18 24.7997 24.62 24.7997 25.17V27.42L43.9297 27.38L43.8897 25.17C43.8897 24.63 43.4497 24.18 42.9097 24.18H42.4997L42.5397 24.55C42.5397 25.69 41.6097 26.62 40.4697 26.62C39.3297 26.62 38.3997 25.69 38.3997 24.55V24.14L30.2797 24.18L30.3197 24.55C30.3197 25.69 29.3897 26.62 28.2497 26.62C27.1097 26.62 26.1797 25.69 26.1797 24.55V24.15L25.8097 24.18H25.7897ZM16.1297 21.12L15.6497 24.87L16.6397 25.5L17.6097 24.84L17.0997 21.1L16.1397 21.12H16.1297ZM40.4597 21.73C40.2497 21.73 40.0897 21.9 40.0897 22.1V24.55C40.0897 24.76 40.2597 24.92 40.4597 24.92C40.6597 24.92 40.8297 24.75 40.8297 24.55V22.1C40.8297 21.89 40.6597 21.73 40.4597 21.73ZM28.2297 21.73C28.0197 21.73 27.8597 21.9 27.8597 22.1V24.55C27.8597 24.76 28.0297 24.92 28.2297 24.92C28.4297 24.92 28.5997 24.75 28.5997 24.55V22.1C28.5997 21.89 28.4297 21.73 28.2297 21.73ZM15.8497 18.67L16.0597 19.45L17.1997 19.42L17.3697 18.64L15.8497 18.68V18.67ZM16.6097 10.11C15.0597 10.11 13.7897 11.37 13.7897 12.93V14.15C13.7897 15.7 15.0497 16.97 16.6097 16.97C18.1697 16.97 19.4297 15.71 19.4297 14.15V12.93C19.4297 11.38 18.1697 10.11 16.6097 10.11Z" fill="#1A1C1D"/>
<path d="M27 41.9C26.2 41.9 25.54 41.25 25.54 40.44V37.99C25.54 37.19 26.19 36.53 27 36.53H29.45C30.25 36.53 30.91 37.18 30.91 37.99V40.44C30.91 41.25 30.26 41.9 29.45 41.9H27ZM27.23 38.23V40.24L29.25 40.2L29.21 38.2L27.23 38.23Z" fill="#1A1C1D"/>
<path d="M27 35.79C26.2 35.79 25.54 35.14 25.54 34.33V31.88C25.54 31.07 26.19 30.42 27 30.42H29.45C30.25 30.42 30.91 31.07 30.91 31.88V34.33C30.91 35.13 30.26 35.79 29.45 35.79H27ZM27.23 32.12V34.13L29.25 34.09L29.21 32.09L27.23 32.12Z" fill="#1A1C1D"/>
<path d="M33.1202 41.9C32.3202 41.9 31.6602 41.25 31.6602 40.44V37.99C31.6602 37.19 32.3102 36.53 33.1202 36.53H35.5702C36.3802 36.53 37.0302 37.18 37.0302 37.99V40.44C37.0302 41.25 36.3802 41.9 35.5702 41.9H33.1202ZM33.3502 38.23V40.24L35.3702 40.2L35.3302 38.2L33.3502 38.23Z" fill="#1A1C1D"/>
<path d="M33.1202 35.79C32.3202 35.79 31.6602 35.14 31.6602 34.33V31.88C31.6602 31.07 32.3102 30.42 33.1202 30.42H35.5702C36.3802 30.42 37.0302 31.07 37.0302 31.88V34.33C37.0302 35.13 36.3802 35.79 35.5702 35.79H33.1202ZM33.3502 32.12V34.13L35.3702 34.09L35.3302 32.09L33.3502 32.12Z" fill="#1A1C1D"/>
<path d="M39.2295 41.9C38.4195 41.9 37.7695 41.25 37.7695 40.44V37.99C37.7695 37.19 38.4195 36.53 39.2295 36.53H41.6695C42.4795 36.53 43.1295 37.18 43.1295 37.99V40.44C43.1295 41.25 42.4795 41.9 41.6695 41.9H39.2295ZM39.4595 38.23V40.24L41.4795 40.2L41.4395 38.2L39.4595 38.23Z" fill="#1A1C1D"/>
<path d="M39.2295 35.79C38.4195 35.79 37.7695 35.14 37.7695 34.33V31.88C37.7695 31.07 38.4195 30.42 39.2295 30.42H41.6695C42.4795 30.42 43.1295 31.07 43.1295 31.88V34.33C43.1295 35.13 42.4795 35.79 41.6695 35.79H39.2295ZM39.4595 32.12V34.13L41.4795 34.09L41.4395 32.09L39.4595 32.12Z" fill="#1A1C1D"/>
</g>
<defs>
<clipPath id="clip0_2949_8460">
<rect width="37.15" height="37.15" fill="white" transform="translate(8.42969 8.42004)"/>
</clipPath>
</defs>
</svg>
