<svg width="54" height="54" viewBox="0 0 54 54" fill="none" xmlns="http://www.w3.org/2000/svg">
<path d="M13.4034 45.54C10.5594 45.54 8.41141 43.392 8.41141 40.536V33.132C8.42341 27.48 8.42341 21.816 8.39941 16.152C8.39941 13.992 9.97141 11.544 12.6594 11.184C13.0194 11.136 13.4274 11.112 13.9314 11.112C14.2554 11.112 14.5914 11.112 14.9274 11.136H15.5514C15.7074 11.148 16.1274 11.148 16.4034 10.848C16.6794 10.548 16.6314 10.14 16.6194 10.008C16.5954 9.75602 16.6074 9.50402 16.6194 9.25202C16.6434 8.74802 16.9794 8.41202 17.4834 8.41202C17.9514 8.41202 18.3114 8.74802 18.3354 9.20402C18.3474 9.54002 18.3474 9.88802 18.3354 10.224C18.3354 10.5 18.4074 10.728 18.5634 10.884C18.7194 11.04 18.9354 11.124 19.2114 11.124H25.2954C25.5594 11.124 25.7754 11.04 25.9314 10.884C26.0874 10.728 26.1594 10.512 26.1474 10.248C26.1474 9.98402 26.1474 9.70802 26.1474 9.44402C26.1474 8.77202 26.4594 8.40002 26.9994 8.40002C27.5394 8.40002 27.8634 8.76002 27.8634 9.34802V9.56402C27.8634 9.76802 27.8634 9.93602 27.8634 10.116C27.8634 10.236 27.8274 10.584 28.0794 10.86C28.3314 11.136 28.6914 11.136 28.8114 11.136C29.5074 11.136 31.5234 11.136 31.5234 11.136H33.8034C33.8994 11.136 34.0074 11.136 34.1034 11.16C34.2834 11.184 34.4274 11.196 34.5714 11.196C34.9194 11.196 35.1954 11.1 35.3994 10.908C35.7954 10.536 35.7354 9.99602 35.6994 9.64802C35.6754 9.50402 35.6754 9.40802 35.6754 9.31202C35.6874 8.91602 35.8914 8.47202 36.4074 8.41202C36.9474 8.41202 37.2954 8.64002 37.3674 9.03602C37.4274 9.37202 37.4154 9.75602 37.3914 10.092C37.3914 10.212 37.3674 10.584 37.6194 10.86C37.8474 11.112 38.1714 11.136 38.3994 11.148H38.5554C38.8434 11.148 39.1314 11.148 39.4194 11.136C39.7314 11.136 39.9954 11.124 40.2474 11.124C40.7874 11.124 41.1954 11.16 41.5674 11.232C43.9194 11.688 45.5634 13.692 45.5634 16.104C45.5634 19.272 45.5634 22.428 45.5634 25.596C45.5634 25.896 45.4674 26.292 44.9754 26.448C44.8914 26.472 44.7954 26.496 44.6994 26.496C44.4114 26.496 44.1474 26.352 43.9794 26.112C43.8834 25.98 43.8354 25.812 43.8354 25.584C43.8354 24.612 43.8354 22.176 43.8354 22.176C43.8354 21.264 43.6074 21.036 42.7074 21.036H11.2554C10.3914 21.036 10.1394 21.288 10.1394 22.152V40.284C10.1394 40.932 10.2234 41.88 10.9194 42.696C11.5794 43.464 12.4674 43.836 13.6434 43.836H25.5594C25.8594 43.836 26.1114 43.932 26.2674 44.088C26.4234 44.244 26.4954 44.472 26.4834 44.748C26.4714 45.192 26.1234 45.54 25.6914 45.552C25.4874 45.552 25.2714 45.552 25.0674 45.552H13.4034V45.54ZM42.8394 19.308C43.0794 19.308 43.3794 19.272 43.5954 19.044C43.8474 18.78 43.8354 18.42 43.8354 18.3C43.8234 17.928 43.8234 17.556 43.8354 17.184C43.8354 17.184 43.8354 16.476 43.8354 16.212C43.8114 14.376 42.7194 13.128 40.9194 12.888C40.5354 12.84 40.1514 12.816 39.7674 12.816C39.5274 12.816 39.2874 12.816 39.0594 12.828C38.8194 12.828 38.1834 12.828 38.1834 12.828C37.9434 12.828 37.7514 12.9 37.6074 13.044C37.4634 13.2 37.3794 13.404 37.3794 13.668V13.884C37.3794 14.16 37.3794 14.436 37.3794 14.712C37.3674 15.204 37.0194 15.54 36.5154 15.54C36.0474 15.54 35.6754 15.18 35.6634 14.724C35.6514 14.376 35.6634 14.04 35.6634 13.692C35.6634 13.428 35.5914 13.224 35.4354 13.068C35.2794 12.912 35.0634 12.828 34.7994 12.828H31.7514H28.7154C28.4394 12.828 28.2234 12.912 28.0674 13.068C27.8274 13.308 27.8394 13.632 27.8394 13.74C27.8394 14.076 27.8394 14.4 27.8394 14.724C27.8274 15.216 27.4794 15.552 26.9754 15.552C26.5074 15.552 26.1354 15.192 26.1234 14.724C26.1234 14.4 26.1234 14.064 26.1234 13.74C26.1234 13.464 26.0514 13.236 25.8954 13.068C25.7394 12.912 25.5234 12.828 25.2474 12.828H22.1994H19.1514C18.8874 12.828 18.6714 12.912 18.5154 13.068C18.3594 13.224 18.2874 13.44 18.2994 13.704C18.2994 14.052 18.2994 14.388 18.2994 14.736C18.2874 15.216 17.9394 15.552 17.4474 15.552C16.9554 15.552 16.5954 15.204 16.5834 14.712C16.5834 14.388 16.5714 14.052 16.5834 13.728C16.5834 13.452 16.5234 13.236 16.3674 13.068C16.2114 12.912 15.9954 12.828 15.7194 12.828H14.2314C13.9314 12.828 13.6434 12.828 13.3434 12.84C11.5914 12.924 10.4394 13.968 10.1874 15.72C10.1034 16.296 10.1154 16.848 10.1274 17.4C10.1274 17.664 10.1394 17.916 10.1274 18.168C10.1274 18.528 10.1274 18.816 10.3434 19.044C10.5714 19.272 10.8594 19.272 11.2434 19.272H37.5234H42.8274L42.8394 19.308Z" fill="#1A1C1D"/>
<path d="M36.443 45.5521C34.079 45.5521 31.823 44.5921 30.107 42.8641C28.391 41.1361 27.455 38.8681 27.479 36.4801C27.527 31.5121 31.571 27.4801 36.515 27.4801C38.939 27.4801 41.207 28.4161 42.911 30.1201C44.615 31.8241 45.551 34.0921 45.551 36.5281C45.551 41.5681 41.567 45.5281 36.491 45.5521H36.443ZM36.527 29.1841C32.363 29.3041 29.231 32.4481 29.219 36.5161C29.219 38.5081 29.963 40.3441 31.307 41.7001C32.663 43.0561 34.511 43.8121 36.491 43.8121C40.583 43.8121 43.787 40.6081 43.787 36.5281C43.787 32.4601 40.667 29.3161 36.515 29.2081V29.1841H36.527Z" fill="#1A1C1D"/>
<path d="M37.0198 37.3799C36.8398 37.3799 36.6598 37.3799 36.4918 37.3799C36.0118 37.3799 35.6638 37.0199 35.6638 36.5519C35.6518 35.6159 35.6518 34.6919 35.6638 33.7559C35.6638 33.2639 36.0118 32.9399 36.5278 32.9399C37.0198 32.9399 37.3678 33.2759 37.3798 33.7559C37.3918 34.1039 37.3798 34.4399 37.3798 34.7879C37.3798 35.0759 37.4158 35.4719 37.4398 35.6759C37.4398 35.6759 37.4758 35.6999 37.5958 35.6999C37.6798 35.6999 37.7878 35.6999 37.8838 35.6879C37.9918 35.6879 38.1118 35.6759 38.2198 35.6759H38.7598C38.9398 35.6759 39.1078 35.6759 39.2878 35.6759C39.7678 35.6879 40.1038 36.0359 40.1038 36.5279C40.1038 37.0319 39.7678 37.3799 39.2758 37.3919C39.1078 37.3919 38.9398 37.3919 38.7718 37.3919H37.0318L37.0198 37.3799Z" fill="#1A1C1D"/>
</svg>
