<svg width="54" height="54" viewBox="0 0 54 54" fill="none" xmlns="http://www.w3.org/2000/svg">
<g clip-path="url(#clip0_2550_8024)">
<path d="M16.32 45.15C14.76 45.15 13.5 43.88 13.5 42.33V10.82C13.5 9.27 14.77 8 16.33 8H38.19C39.75 8 41.01 9.27 41.01 10.82V42.13L40.99 42.33C40.99 43.86 39.75 45.12 38.22 45.15H16.32ZM16.32 9.72C15.72 9.72 15.22 10.21 15.22 10.82V42.32C15.22 42.92 15.71 43.41 16.32 43.41H38.18C38.78 43.41 39.28 42.92 39.28 42.32V10.82C39.28 10.22 38.79 9.72 38.18 9.72H16.32Z" fill="#1A1C1D"/>
<path d="M20.7202 18.5C20.4802 18.5 20.2602 18.41 20.1102 18.24L19.5002 17.63C19.3402 17.48 19.2402 17.26 19.2402 17.02C19.2402 16.78 19.3302 16.56 19.5002 16.41C19.6602 16.25 19.8802 16.16 20.1102 16.16C20.3502 16.16 20.5702 16.25 20.7202 16.42L21.7302 15.39C21.9002 15.23 22.1102 15.15 22.3402 15.15C22.5702 15.15 22.8002 15.24 22.9602 15.41C23.1302 15.58 23.2102 15.78 23.2102 16.02C23.2102 16.26 23.1202 16.47 22.9502 16.63L21.3202 18.26C21.1702 18.42 20.9502 18.51 20.7102 18.51L20.7202 18.5Z" fill="#1A1C1D"/>
<path d="M27.3698 16.2899C26.8898 16.2899 26.5098 15.8999 26.5098 15.4299C26.5098 14.9599 26.8998 14.5699 27.3698 14.5699H36.9598C37.4398 14.5699 37.8198 14.9599 37.8198 15.4299C37.8198 15.8999 37.4298 16.2899 36.9598 16.2899H27.3698Z" fill="#1A1C1D"/>
<path d="M27.3698 19.05C26.8898 19.05 26.5098 18.66 26.5098 18.19C26.5098 17.72 26.8998 17.33 27.3698 17.33H33.4398C33.9198 17.33 34.2998 17.72 34.2998 18.19C34.2998 18.66 33.9098 19.05 33.4398 19.05H27.3698Z" fill="#1A1C1D"/>
<path d="M20.7202 28.26C20.4802 28.26 20.2702 28.17 20.1102 28L19.5002 27.39C19.3402 27.23 19.2402 27.01 19.2402 26.78C19.2402 26.55 19.3402 26.33 19.5002 26.17C19.6602 26.01 19.8802 25.92 20.1102 25.92C20.3502 25.92 20.5602 26.01 20.7202 26.18L21.7402 25.16C21.8902 24.99 22.1102 24.91 22.3602 24.91C22.6102 24.91 22.8102 25 22.9802 25.16C23.1502 25.33 23.2302 25.53 23.2302 25.77C23.2302 26.01 23.1402 26.22 22.9802 26.38L21.3502 28.01C21.2002 28.17 20.9802 28.27 20.7402 28.27H20.7202V28.26Z" fill="#1A1C1D"/>
<path d="M27.3698 26.06C26.8898 26.06 26.5098 25.67 26.5098 25.2C26.5098 24.73 26.8998 24.34 27.3698 24.34H36.9598C37.4398 24.34 37.8198 24.73 37.8198 25.2C37.8198 25.67 37.4298 26.06 36.9598 26.06H27.3698Z" fill="#1A1C1D"/>
<path d="M27.3698 28.83C26.8898 28.83 26.5098 28.44 26.5098 27.97C26.5098 27.5 26.8998 27.11 27.3698 27.11H33.4398C33.9198 27.11 34.2998 27.5 34.2998 27.97C34.2998 28.44 33.9098 28.83 33.4398 28.83H27.3698Z" fill="#1A1C1D"/>
<path d="M20.7201 38.0401C20.4801 38.0401 20.2601 37.9501 20.1101 37.7801L19.5001 37.1701C19.1601 36.8301 19.1601 36.2901 19.5001 35.9501C19.6701 35.7801 19.8701 35.6901 20.1101 35.6901C20.3501 35.6901 20.5601 35.7801 20.7201 35.9501L21.7401 34.9301C21.9101 34.7601 22.1201 34.6801 22.3601 34.6801C22.6001 34.6801 22.8101 34.7701 22.9801 34.9301C23.1401 35.0901 23.2301 35.3101 23.2301 35.5401C23.2301 35.7701 23.1301 35.9901 22.9801 36.1501L21.3501 37.7801C21.2001 37.9401 20.9801 38.0301 20.7401 38.0301H20.7201V38.0401Z" fill="#1A1C1D"/>
<path d="M27.3698 35.84C26.8898 35.84 26.5098 35.45 26.5098 34.98C26.5098 34.51 26.8998 34.12 27.3698 34.12H36.9598C37.4398 34.12 37.8198 34.51 37.8198 34.98C37.8198 35.45 37.4298 35.84 36.9598 35.84H27.3698Z" fill="#1A1C1D"/>
<path d="M27.3698 38.6C26.8898 38.6 26.5098 38.21 26.5098 37.74C26.5098 37.27 26.8998 36.88 27.3698 36.88H33.4398C33.9198 36.88 34.2998 37.27 34.2998 37.74C34.2998 38.21 33.9098 38.6 33.4398 38.6H27.3698Z" fill="#1A1C1D"/>
<path d="M21.2302 31.11C18.7302 31.11 16.7002 29.07 16.7002 26.57C16.7002 24.07 18.7302 22.04 21.2302 22.04C23.7302 22.04 25.7602 24.07 25.7702 26.57C25.7702 29.08 23.7302 31.11 21.2302 31.11ZM21.2302 23.77C19.6802 23.77 18.4202 25.03 18.4202 26.58C18.4202 28.13 19.6802 29.39 21.2302 29.39C22.7802 29.39 24.0402 28.13 24.0402 26.58C24.0402 25.03 22.7802 23.77 21.2302 23.77Z" fill="#1A1C1D"/>
<path d="M21.2302 40.8899C18.7302 40.8899 16.7002 38.8499 16.7002 36.3499C16.7002 33.8499 18.7302 31.8199 21.2302 31.8199C23.7302 31.8199 25.7602 33.8499 25.7702 36.3499C25.7702 38.8599 23.7302 40.8899 21.2302 40.8899ZM21.2302 33.5499C19.6802 33.5499 18.4202 34.8099 18.4202 36.3599C18.4202 37.9099 19.6802 39.1699 21.2302 39.1699C22.7802 39.1699 24.0402 37.9099 24.0402 36.3599C24.0402 34.8099 22.7802 33.5499 21.2302 33.5499Z" fill="#1A1C1D"/>
<path d="M21.2302 21.35C18.7302 21.35 16.7002 19.31 16.7002 16.8C16.7002 14.29 18.7302 12.27 21.2302 12.27C23.7302 12.27 25.7602 14.3 25.7702 16.8C25.7702 19.31 23.7302 21.35 21.2302 21.35ZM21.2302 14.01C19.6802 14.01 18.4202 15.27 18.4202 16.82C18.4202 18.37 19.6802 19.64 21.2302 19.64C22.7802 19.64 24.0402 18.38 24.0402 16.82C24.0402 15.26 22.7802 14.01 21.2302 14.01Z" fill="#1A1C1D"/>
</g>
<defs>
<clipPath id="clip0_2550_8024">
<rect width="27.52" height="37.15" fill="white" transform="translate(13.5 8)"/>
</clipPath>
</defs>
</svg>
